<mxfile host="65bd71144e">
    <diagram id="wCj_nOkCJOvEuIr2Etec" name="Page-1">
        <mxGraphModel dx="1044" dy="520" grid="1" gridSize="10" guides="1" tooltips="1" connect="1" arrows="1" fold="1" page="1" pageScale="1" pageWidth="850" pageHeight="1100" math="0" shadow="0">
            <root>
                <mxCell id="0"/>
                <mxCell id="1" parent="0"/>
                <mxCell id="2" value="" style="shape=image;verticalLabelPosition=bottom;labelBackgroundColor=#ffffff;verticalAlign=top;aspect=fixed;imageAspect=0;image=data:image/png,iVBORw0KGgoAAAANSUhEUgAAAcgAAAGYCAYAAADGL3IdAAAAAXNSR0IArs4c6QAAAARnQU1BAACxjwv8YQUAAAAJcEhZcwAADsMAAA7DAcdvqGQAAP+lSURBVHhe7H0FgF/Ftf637i7xjbsrEQIJwd1dC6VQo67vvfq/bq9FinuhOMUhEAIhxN3dNptN1t3/33fm3t1floXSlraEN9/u/O69c0fOnJk5Z87cuXOjYgZPa4OHh4eHh4fHYYgOjh4eHh4eHh4R8ArSw8PDw8OjC3gF6eHh4eHh0QW8gvTw8PDw8OgCXkF6eHh4eHh0Aa8gPTw8PDw8uoBXkB4eHh4eHl3AK0gPDw8PD48u4BWkh4eHh4dHF/AK0sPDw8PDowt4Benh4eHh4dEFvIL08PDw8PDoAl5Benh4eHh4dAGvID08PDw8PLqAV5Ae/yCigqPQxstWd+wE+bRGRXXh5H+4a6P7Z9DWRT7+W24eHh7/KLyC9PgnIRVE1xYcOznpvPc6+XfhLI1/Dofl8xGk5+Hh8X8XXkF6/IOQxdhKRdTKRtQW4XTd4XQ/qu1wF00X8x4nJfnPoXM+TvF6eHh4/GPwCtLjH0ArVU8LlU9LoAilGNWYeIySUqLybG2hARkqqQ4FijbG4b1YHuPoYtuaEdvaZH5tocX3D2k1l09XzsPDw+MfgVeQHn8/oqTB2tAqRRcTjcT4OMTHxJhLiI5BYiyvY2Npxcmqc/rOKb82xMfFITEhHglxDBsXa3HlotkS26RQo6OoZP/+ZhnqVB0jnYeHh8c/iqiYwdP8ENvj74Qss1b07J6PU084AVMnT6JCjKGf/oDyinK8/uabeGPefFTXNZit2UZN2begD8487VRMHjsasUqDSlN/hUUH8MIrc7FgyTI0NLVoUpbhI5QkEzVlZy01tAxDJchznpgFqyMVtvkqbSrcVjsGE8I8WmxbvGMpBnAp+WeWHwaOc6q3SNiVsTTkK49BkNDHoyuQkxpFEuFgUjAuq2HTT3ejgvPgx+PfBK8gPf4h6Bnf0AH98MUbr8V5Z56AOOql2ODegZIK3PPAX3DnPfehsroOrTQPqaoweuRwfO0Ln8Hpc2YijuFCYbBx+x788c4H8Pgzf0VNY5ObuI2iCqVQcIKB6o3KK1B9iKGXpnI1ZStrtVteLiZNGIcpVNS5uTlUkjGmIA8dPIhly5eb219cjLqGRjRSSzYpFaYvhKkKkQLKo2uI/+K7Bh9SktGqHx5tAGLnzknA25+XLp0QtrCAMWSQ4x55aW1cXNOATm2UzoI5rltfENQfPP4tkHTw8Pi7YWJQCoUKR294SN3EBC6WN6PpqY6vVzdcH7cYdm7CVH4BZPmp07e20jcQCCFk1UkgxzBGDFVnLDNNSYjFMCrn6664HA/ecxdefPZJ/OZnP8BVF56Bs46fjjNmH4Uzj5uKqy44A7/+0ffw4hN/wSN33Y4br74C44YMRGZSAhW0FgtJKLnnpB4fHuJXPCs6OTYaSaz4ZI5YdJ5sU+xR1gai1TY8Wz8UJITjOIhMiNXjiWgkxoivUXTR5DP5yXbKIZ/1hUBjevybEBOd0+f7wbmHx4eGVFheThaOmjQBI4cORDx7uQSj/Gtr67Fy1VosW7HKTZlKOfK/R14eZhw1kZZnX7Mgw/Cl5RVYsmwl1m3YhCYKAE2vSi1KqUp4OKXbhqS4GAwd2B/XXHYJvvGlz+PcU+dgYO9cpCZIqAAJTExhQxfH6wSeSKH26dkNM6ZOwXHHHot80lFUdADlpSUMJUkuKhwt4a9H11DNpCcn4agJEzBn1jGYNHY0JowZhfGjR2HE0CH27LmC9dnU3CTOEh9HfqrO38cZ/nU0uwlqh/AsngpxxOCBmDNzBqZNnICJo0caP8eNHIX01DSUl5ejvr7e8dM3z38rvIL0+IegfpqXnYmpk8ZRMA60KVYpJSm0uro6rFi9BktXrER9My1DKiCF7x4oyCGBglRYWSNlZRVYvGwF1mzaAgZ3U0u8qyklWagxbS1IS0nArKOn40ufuwFnnTwHvXLTXZ6UGma9MgOTcZbme52s1Diml5mRiuEU5IMGDkZNTQ3279+PZgpzUeiEl5zH+0FWTD4HRldedjE+d/2VOHHWVMw5Zhpm002ePNkGR+s3bERVdQ0Dh7z8mPL0A8n68DS3K64P4dS2dQwO5pITE3D6ySfiC9dfhXNOn4Pjj52GOXSzjpmKGA441q/fiJKyMmufFt/j3wbJKI9PEMIxcCTcIoBIF05yHu7snUXXDXkdug509pWwdM41pNC5ju/UjUPHlbvXEUb/OrcFNuYTOHnyTM8ak+LjcOoJx+O/v/lVHDN1PNKTYk0ptitGF9Ti2K48vLAS8dzS0TEgWko8IzkBx82YhM9ccyUtofGI5U031doBBdfTofDMURXyqGsXhu1wwRmFmlP6LoeghIe5w+M511W4SNcRNjgLynuYaw/Rga7SinSdY3X4BGct7l1WTaWLn7H00oBHr+5Ey+kpcpSWZnXNEwd33XW+7+cOB7OPiB9ZF7oWukpDzqGj/UY43j+cls6xIhHcOax/dfSnDhfe60B4ZXSq7dHJOo98VKEZEPE0qq2RYZqpVBmufceqDqf+fXjqHh8VvIL8BEECMZAMdpBT17E/dS52Vj0bjKXwio1qYmdsZEeka2tgR5RrQozeSVRnbO/YSsepPk19tobTnwEoU4KfTjjMX5SE3d5Zk4bIaHbu8miJiuFRoVqRnBSHE447BtdecRGGFnRHCrOOt5AuVaGFwqW2oRFllXUoOlSJXUWHsOvAIRSVVaOsrhE1FOhNTN9WsdIpnoS7LNlxo0baCF7PzOy5mUvSwEvCPfuMFm/QhIToViSQhwnkoY5xaI7gWYuFP0xgMkGJXKWiC9GtjRH07mdcawviSVAs78YxjgRi5OYJ9r5oazPDtCBReSoczyU0ZVXLRfIhFMeRTm1C9yX0LW+6aLPKRXub5R+6uFbmq+fALS2U2W4Rjv6CBOzgSkHHNMQvq1V6SLDrua7aUDR5IhdFHhkVpD2SJyEttpkDyxdNXsTofVg9Y7Z7LkwwzLFBksuHQygWSMnF8Gj5B2WJZt1Esy3Hqj4UR+nTWb4RLkpp8aYpd/Fe5Wb8BPIygfzWuYuv/uJgAw2XWOAC2CWJIe2qf+UdxzLEW7tg/bSyb7WoT6mNME2Vl87xQb88Ml+1Di16UuNUkuGsiA06mJZ4qT4aLWe8cnFMkbM8Ss1o5NHjo4XakccnFOpATjSrw1KxsLMlUdJkJieiZ3YW+vfsgWF9CzCErk9+Pv2TbHFAPDubE3YSTExDHVsd0o6uG1qntLMOdOXXFdrDRMgahzAFl1dCbDSmTpqAq6+8GGNGDjWhFtlgW0ifFOOm7btw5/0P4urP3IhTzjoHJ5x2Fk44/SycffGl+NEvfoMFi1ehuLwK9UyziWk0M15ZRTWeff4VPP3sc6iprTOFbBZnmD+Fu6ygWPIrnnSkxsUgLzUFBXnZGNKnBwb36Yne+TnISU1GanyMPQONI3+l7JzAdkLenASz0lTaUnosRHJiPFISY5FMZidTM+qYSMnoBCwVIs/TaCnnZ6ahT/dcDOjdA/165iMvIwWpCbFU1FKsgXIIBKsbenQ4/eq+FLwpVB5FY3JcNOlOQa/cHEt3IMvSt3sO80pGBhtIarye6VJpKryVR4pYAyvmqXx5JDusHJYTi6WjVrQ6Zcm4POqZsBacxEdHu3ZE54ZXih+FlLhYpMQ7l8wEdUxgvlIsGngkMP9EDkgyUxLQizzI4FFKSEojiooiJSHGZgNSFJcuVenFxRnNbUyDLYSuE8ir1mYqMtKUkhBnC2HMMa7qRM8Do6jMnDXZGaLd9SfVcwILnhQdhXTGzUtLYR/Kw+CC3hjUp7edZ6ekWBnFB4W3/mRO562OR+SD6lLP8MP2bWPDgKfiWwJpSmRDTGLYRDot3JECtTbGcK7+u6LX45+Ff83jEwQ3yg0EFjuNdWh2vvSUJAwoKMCoYYMxZvgwjBoxHNmZGbxHYUCnVyJaaDWUlZdj3YYNWLR4qT1DLDxQjKZWZ9G5cW+H2NdU2vCBfXHT9dfgvNNPpHBzqxeF4pIy3HX/w7jlnvtpwTUzvrpzFMaNGIavf+E6nD7n6MAKpDoimVt37MYfbr8HDz3zAqpb2tDM/HSjX6/utvL0ygvPbp9WlQBRyURPUXEJXnn9TTz25JNYvW4D6rUgiDcdrcHImulpcdApJ52I8849i2UfgtKSUjzx9PN45PEnsGNfIRUmbT85K4GEjpQZFQkFZv+CPpgwehRmTpuKEUMGIyE+zjZHUD7NtEwrq6uxbqPj2co1a7GH6WlhknhkdogUr5U02n6TqJxOOn4WLr3gPHTLyXHlYb1VVVfhmWeewQsvvIDsrGyMGzcO06dNs+elSUmJVldtzFTPTTdu2ow333rbntvuLz5k9ItnzbSwnHR1UDlkmcWwQWSmpWHY0MEYO3Ikxo0ejYH9+iEpMRFxsXGBQG5heRpRfLAEazdsxJr1G+g2YueefahvaEBWThZpGYrupDknPRWnnXg8jj5qvC2CkiUnXlfX1WPegoWY9/Y7KK+uoSojXW3R2LBlGzZt3Wb8aiOtyvNU1sfF552DHvm5ximR0Ep6H3zoQTz11NPMLxujyfcZ02dgJGlOTknFI395HI88+hfyqhppLM+nrrqS6Zxkm0woDVFRVVmDZ55/Ac++8BIOclDUEh22Sgf1C03Zn3HySTjvrDPRLTfb6sVYQEbMnTcfDz/6GHbu3W/t3mw18k+8VDlNwVFBp6ckY+jgAZgyaaK5Pr17IYHK2eqJabU0t6CktAQrVqzEgncWYg15qsVoesauNpHIOh0ycBD6cXCSlhSPGUdNwYmzZqB7NvulEiDUxhYz/ouvvoa9Bw5a+2xjeSqqallHm1BYXMx2q1KH9m5H3Xt8NPAK8hMECVrBXr1gJ9RONcPYia+65EKccvxxFGyJZkFqKk9CUcFV+ZENoIk9rqq2AYuWLsXtd9+HBUtWoJ4DcQl566A2xUrrpF1BXo3zTUFKAbi0Dn5YBSntSEhB/v6Oe/AwlVZNMxUkU9IzydnTp+JbN92AqeNGuOlHhlUMCYUSCsI/P/E0brn9LhSVlDB5jdE1GUULgfdVPkenRuYcdXMErvckL7vkEuzcuQN33XM3SsrKWR4nBFUus7mkVJhSMq0LKYEbr78WQwcUcATv8ldJhNA2ET0kmZZsMxXKJtz30MN4de48VNfWG51NTFcpmoJkeZNpbV56wTm46cZPoVe3LEtTqK6uw0MPPYKNGzfi/AsuwMQJY6nA4uy+6klQXgL1DJVEPV58ZS5uveturKcCaoqOgyaBnah3kGKMozU6sG8fXHnpxTjztJOQl5XRbq0opOpMTueiV2Vp5nljUxv2HTiEJ//KgcRjjyOH1uYXPncDZs2YFlg+bEeMaPQxjmhT+5MCaKIzwc37Or/ljntx6513o7yqxgR5XGw8Lr/4Inzh+ivQt4cUVActv//DLViyfBUuufQSTGP9p6Yk2j0mg5tvuws3/+lOplONrMxMfOfrX8LlF513GI/KK2vZ9v6Mux94EIWlFVSQmkgO74pWDVJi8anLLsUN115qdRDmrzI88cxL+N0td2Lz9p0ccMiOZXsPFKRamMo+qG8B6b/AFtb0yMtieUg7/cUHtbt28Nr6E+tWSu6u++63wUIj/fLyu+G6az+F8848DblZqWaRm6WpNMLIPBE/VSctTLiZ1+Lrxk078L83345X582zdqfHHm4QFpm5x0cBtQ2PTyASExNw4okn4Nc//zGuvOhU9M5JRFoc/dmH9IxDo1R1aBsVM3zoNIWTm5bI0ezR+Mn3/xtXXnIRO3CmdT8TJAwfiU6XHxFaA+U+yFz71BOd8quoqcNjT/8Vt991L5VjGYVgLBWRnhBSiVMqS2DImjILgPcaeF7FEf0b77yLz331a/jVH29GcXklhR+tLkp1Ey4UnG2tLUhkvhPHjsYvf/Jj/PzH/4PRQwqQTAGoKWrxTRAd9nwocOJpBjXo1Akj8f3vfB3f/NqXMWzIQMSQoQor6OgGJRJjzqlMcuK7tumbc+wx+OoXP4dZ0ychjcoxMg/lLeEpJ0GazTo6+4yT8O1vfoWW5hTEU1vJBo50yUxj1swZ+MF/fRvXXHI++uRmIJmZuSm/IF26kEZWvSnPBLo0BhrUJw+jhvRnXikM20rFEkXri/dJmKZXRbtrD2GZnL8GE0lqa0xcAzJNGesZnbNzFM6J85AGOZVVaU0aPwFf+tyNHNDNQjaVowZSotG1U/KM9aQ0XJ4d/FN8hXVlEm+DcEZfB6ysGpjRhXFdHJeWa+dhHlLLLk+lmZGSQp6fjl/97Ce4+vIL0LdnFpKZsfgZz+AaxEWWSdZmEhPV1PXF556BX/zkBzjrtJORRQtcfEqIjUUCB0wJDKw0RIMpWNO0Lu9Yal5NwyqdJN6zIytAz1E1FcyDx78Qnr+fKFjvYidj925pQVNtHaKb9VCfI0/ekWUVdns9v2viqLjZHK023dNNQv1TnX1oP46Uzz8XJx4zA6kUtrIhQ6HRDsVzh38YLq5op2iiMtNUV68+fTB29DBkpsZbI9XdEGvXb8QLr76O3QcOopF3m9piSb8bRYNKUZO9zjl+oM2J0DZaBA1NQF2jrFRZjk4UanpRz4VSaGVOHj0Kn73uGgroo6n0KLwYU7FFpSwkcYBJMF93HkICXAK6V04mLqcw/MqN12PCyGFIpF+sLHoyV+VsYRrhdJh+QwGdTs0zcthADOhfYP6RMP64KEaDjrJY9Cxy1tTJuPDMUzCgRz4SqITsmSErMJ4BJoweiU9dcQlmHjXBLHwpEeUlfmpRSFNLMx3bSeBaKHDN+uZ9Qc9pFy1Zji1btyE6OsaeMeqe4pszwvRDx/KZstSpvEMogjxatMBGzyLpeK0FK+J+WH6lpTZ3NMszafzojkGRwupIp+lZnbk/p8Tko/tKx9Hl0tVwQc5iypRlG9ACH8HiMWGFU95yHbxRPbVZPal+FVbKMTMpEeefcSq+TMt/6rihSCM/FV73Q6j/6KrDh+em8Zg+62PcqOG4mvUxZeJYDogUl7SSDoVXrzocopnDHFaIrMbInqdyaL7G1UZkbh4fNdSmPD5xoAJoasSq1avwymtvoqK6yTpXI4VSVUMDCg+VYvXG7Xh3+VosXbMZ2/cdRFV9oynKUIkqggTW4P59MOvoaejToxuFGC0TWgOR3VlhI7uouqwTCR+i6zJg5/iCnuOMHDECEydObE9PTgKorq6JAnsntu/YRSoonqgQpVRdU+4IbasdQxf8KYzEZ+hg8YK0qSB69+iBC847GyfMmkGBGBcITHdfQqqusRllVbUoLKmkK0dpdS3qpVgUX4EIhbfXSGZOxQVnn4W+vXuawpLgdSVlwAhFo6O5CCbotJnKqoZ1Vc5BTlltPWqaqczoL853cB9ISYzHMVOnYPK4sYgmLdACE1ZiZmoapk6chPFU0prWDfNS2kp3M/n3xtsL8exLr+GZl+bixTfexqJV67G7uASVDY2obW7F628uwBvz30YDrW+Vsb6pGQ3arq+x0Z5ZR5BsiUvUN9O/nveVR625RjSpUdmDQjpjVFgfjiZTgjzReRwHKbG0pl0o57TDktJtYxpRMXH0o3axQU+7CrQ0OuJIcboz/UbecRzoUK6CeGPO3eK/U1rugoMN0nPC7GNxxcXnYuiA3ja1rPAuBJUYw9SwzJqV2HeoDAfKq1BZ12CbXqiugmQRQ7Nv5MgROG7OcejVqxeVn3jVhHrxlPWrdFwMwVEov3r2ZcfLBtsusYH10N72LZxL3+OjR1jPHp8gqLOomx0qLcXCpUuxdtMmE1RL12zEV7/7Y8w5/RycdcnluPjq63DOpVfg9Asuxg9/8XtsKyw2JarRsw186VKT4zF6xGB27GGUcWHKToB07pjvdx6JznFCRPrFx8cjPz8fWVnZgU8HtPBh+44dtlDjH/nqx+HoyDU+IQ6TJ03A0WZtudcx5BRCllUlFePjzzyPS668FseffAaOo7vmhs/j2ZffQEWdG1xEliEzPZXW0BRMGDvaBGq4iKQjTCieD4c2V6+j0Fy+ZgP+58e/wpkXXIGrrv8iHnv2VZRU16ORtCiNUIzqvFfvXhg3ZpTbh5YVJ75kZKSjJxW+dmKRKlFuClvHgdBDjz6JK669AZ/+7JfxxW9819z1N30V5195Dc666DL86uY7sGD5Gry9dBl27NmHVgrinXsKce+Dj+G/f/RL/OK3t2DR0tX2fK29GMy3tr4e895egJ/96n/xnR/8DN/54S/x3yzDS3PfRDXvaeJXC1REh1yIMAkWvf2eLNqa+gbsL6nAohWb8MKr72Djlj1UDhrEObsvVLNdc/IfABNSuw/TM6VLonp274ZZM4+2vYdl2YZQHTSSzi279uDHv/5fnHreRZjNdnHsSafjK9/5PpatXW8DKL1ipAFGY4ubsUlNz6RibMWzz72EH//8t/jB//sNnuMg5VB5BcuuDBwXNJZYtXYd/njLHfjv7/8M//X9X+C/fvhr/OG2u7FyzTobsKhugslZOo+PGn4nnU8QQoERdi4JnLqGOpRW1mD+wuX47c1/wsLlK1BWJ4ukFXUc2dfTVXC0u2bjJuwpLMKAwYORm5PpRvR0EgKyALZs34mVq9fZoguzvpiT7aQzeTxGDh1kS8+Vt1wt01++ag2WrFxlO+k4Cy8K3fNyMZ0KaMiAgmB6ykGr+xYtX0katpowSUhMwuTx43H0lAn2/C/s/qJnf9EBvD5/AdZs2GSLSURLmH7XsJjuNBKBlw4q65BBA3DJhWdh6oRRlp+z+pg+6dm2azd+c/Ot+N8/3Y4d+4poLTTbSH7P3n1YTCWiqciCvv1sl56QEh2TU1JQXlmF9Zs226pOjfpjYmIxeuRITJ80DhmpiRZOTlCd7S06iLsf/At++qvf4c13FmH/oXLsYD7z3nobO3fvRUG/fsjLzTJFGBTBMpQy2bB1O3bv3WvpdMvPw8xpR2HkkIG2ACSkaS/r+Ilnn8eCxUtQR8uwvjUKDazTBju2obSqBotZFy/PfYMKaQeqabFrhW91TQN20OpcQ4G9d+8eDBkyBKNGDrdnZKoXifQaKt/X5s3HQ395AguXLMNKKgi5wgMHXV2xnjTlGM04Y0aPpIU7FplpyY5n5LcWw6i91VJ5LFm+Gr/6/R/xw5/+HPc88DAt3ZexduNm3qNSoCUZn5iAmTOmYOyo4VZfxkPSIWtsxaq1HGCsRZW+JGNWluXAP6mfVpvunDBmNKZMGMM6SOoYQLAQyuOdpcvblZVWEJ96/HE497Q56JmX0Z6XyqsZBVnhqqvnXp6L4rJqVDF/5bt+01as27iFyjAbed26k3+NWLZiPW698z7cff/D2Lx9t9X1Bva7LVu2sE7zWJYRyEhPM1pEq3ixcPFS3P/QnzF3/ltYuW4DVpD/6zdvRklFJcsmfqp8Hv8qWLvy+GSihQLnAK3Ip597nkLrcewrpqBSh4qOY81HUyg5ayOG5y3NzVi/bj3eXbzcBJQ6p5waSFpqKnp060ZrMsU67/vBdWzn/lGos0uI6ruQEryR0D1NtzWRVtvYPMT7Soj3UhJJn0Sm8YDlHzN6DCaOH2cWgharuI7RhrLyMrz86quYO+9N1El7xyWiOToeDYhDY1S8Tan95em/4sXX5lFg6lNdDsojJTEO48eMwIhhQ2iJUD0yusvfEezOO9BIgTv3jTfx0COPYFfhflsBK9ccFWuKYdGypZj/1jtUujUWPiy2aM3JykJ2Voalrbw01aoVubKAdD/s6NlZmaRnMPr07GGvsdi3PGNjqej0VMs92dLrJOUVFabc7VUN0cD6aGEYWYASzJ0tQR1l29rUH8NJcLdGx9KxvXFQ4FZadsCFD+KTCbKt9SeL7N2lS/G7P95MpfMySiqr0RIbw/xj0RITpKU8LH9Hw4fF3xPWwAiZ6ekYSWXeg1akeKgcw3Sk3O5/6BHWy0rU0ppuIH2NpK9Ri8boVnIQd9+jj+GhJ/6Kn/32j/jKt7+DR554CoXFh8yaFv22apgDkPDBhdKWv2pM7VOwa72uwjQRE4e22Djjq/jQzkOPfwnCfuPxiYC6CruMJHHY1SggdalXHRLj4pCWnIR8CsmCbvno36snBvbphQG96XjMTk9FU101muvrgi7qEEcBmpKcjIR4fQS5oxsbgsNHAScOCA3lCZJsfh3+Toi4aUSKDyubxIeJEDr9SbCE7r1CNPIqFMrZOdkYMKC/vRuqdJxCodCi1Nq+Yw8WLVmJ/QdK0dgcRYs4ila03jmUgoyzY3FZBRa8uxgbNm9xz3CDLJRWQe/eGNi/H60WpSrqnVjroENHJ3RXrlmDF195xSwuWT7u3cbYdre/uIxW9hYUHyq1lARHK63u+HjExycwU6bOxCppsZaXU8GpEAFET3paim32/uj9d+OW3/wSN11/Lc477SRMHT8afbrlIo2WmV5Kj2dorcIUf6mNGJkCmsK5VY7neu3ALThyJRCUviCemxKVEOdgTIpSClPPIF1NdcCVXnHlH4OigyX2DuO7tGJrtKCqNZpWrtsnR+tgZc1andqxI+8PgsjXJhBuIwiHIBXL9f0QpRXdeTno3SMHyUma0nXhdWzggOXV1+dhifYbJhP0io2tigYVOduEXANZL2v8t3+8FX9+8mns3F9slro+5WbPwaX0qFC13NkWp0VQ01420Sxeq/wMY3xQ2Y2fdBFxPD56hDLQ4xMB161shR6dJl+0QXdeZjqmTRiHmz5zLZ64/x4snPsSFrzyPOa98AzmPve0udf++hSe/PMD+MzVlyMnPcWmkszioYthGnExtC7UWakg3bcAQ9FI4U4hGiqFw/HhO6/lJdqZUGtzC5oamtDG4XWYghlFvBefkGAWrV4DcQIrUtkodIeTr/t1zoV3fmEc0Z6Wmobu+Tm25L4dvN3U3EorYRvWrd+CphZZRbS8Q+FGDunNOG2O1kxNUUjht2dvkb23RnYpYUcvFVdaagqPold5B4kH+YeQGttbdMCcUz4SmlIs2peG+bTFUDFTWdBK1aIZKUEhTDOGwjZGL/0HlkZldS22796DQyWlZhGSFIM6fGpSPIb2642zTjoO37zpM/jDL36IR+/9E9vBU3jwzttw7aWXYOzQIchOSbLdW7STS4wJYwlxvT7jLJewBQhucCJKyBsKcAnxJh3pZ0rNVpIq9w4uHA4Xe/fuvdi+cy8tZrYB8ZYK1hSO+B0szAm519mFiDwXOoez3AOGGDXutB3WPnSfjS4nJwsZGW7aU7HDLeGKioqweetWlFZwEMLyuXddWVeksZXltDKTZ/VNrSivrkMtj/baEZ0pyPZ25FpjQFU72n2UjsIFcd3jBPFBLgx1eFyPjw5eQX6SYD2dTtKztRWJFMqTJ47Bf33rq7j5dz/DNz5/LaaNGYjuqTHITYxCDl1Wot7hAzKTom2bsSQJQwl5S4//cu60/dfyOEw8dobCRQrDMPwHxAmSVqyWpiZUV1agrramPUejgz852dno268ASUlJTEqixQlWpdv5z+UVKsPAMY7WGsm5aU+KNmYaF8cBAI8KFULTuAcPlVDJlFje7482+xyRvmDRTOUlhPQKsbQSYqm8RKj8QoojIXncyHI30TlSNRDhiRxhcXgumloD7RiZis6d+mBI5lFTW4s35s/Hsy/PxZ6DZWhkXD0HFHUutsQuB1H0j+cxPSEWuemJmDllDL73zS/jVlqXn7v2Ggzq25thGKuFA5bWZpLA84CmfwaitzMXVCx9DaS+vu79sxAbRDnL6KZZg1Zl/s59IBQucIeF5qm8xBM3K+Es/dhY9gdaeCGs/ugqKytRoy+WiFBeu9iRCBSbFLus6UAxuhdbOocllMzfJN7j3w2vID8xUO8KHTs2pf20yVPwrS9/CeedegIK8jLsJWN78ZqdulUr6pqaTSBLMDcEx1a9ytGpVTiRHnq6q1D4fzBCet4fSqZDvriwzc3N2MLR+YZNm0z4GYJwGempGDp4EHr36snrMH2nBDvEZaQy7hB22v1HThu229jdrAH3NqQL17lD0HKmpaopZpdW15ClGD4TdcWgemZwO2c8p6wDOM/3QJaJXp2w1yekuFnYw52FYr3RegzyikRwm7QwHSlRErBt5y7cete9uO3uh7Fu626Ua3GW6rpF78Bq2s4pmfB5okoppw0Bhg/qjRuvuwKfv+E6DB3Ul2Ld8cnxp1OZ/gmI7pAlKmNDY729SmIM7CoP8xK/xWN3PzKUnifHxMbYkVwLfDsgv1g28DgqPYX5IIRt3ClMB9WNeBvFNFx88u79aNU9/gZkBugqnHw7ePpeqj3+U/jgFuJxZIH9y4QpT/sV9MHpJ5+EiWNHIjleiy/U0RmEwrO0vBKLV67B4399AQ88+gTu+/NfcP8jj+GRx5/G4uWrUdegDdtcegYl2K6MhMjzv4UPEbaTRJDQ3rR5MxYtWYG6YMFQmIKmebWn6LSpRyEtJYXljUzfCbIOp+tA8VFKSSimpiQjMUFP2NwL9Zo+bm5sRB2Vhx7XRVIaS0FbUFCAPnSRRIbpG3giQZmRkWHTcXHxMSboQ4jfjRT4+uakXR8uLd8HYQ4RCQWw2F2koZBOXAsUtTyR4tt/sAT3PvRn3PCFr+Db//NT3PfI05i3aCW2FR7EQVpAFfUNqNX7jfYKgkW2PMTzlKQ4229VG8ZrQY/7GsWHof/DocsSMnnxKFQW4aEdjBC28ZCXHeVmncXF2fPyOB7D+2oiYV46l0WYnJRkYT4IGkRWV1WzP9QHPoxvo8co5HfLR25eHvOLZf5h7pFgRhp8BQMwN5kqJ5ocXSHc1eF+Hh8PeAX5SQOFQmJ8PAYPGogxI4fYVljtTyzYjw8cPITb774HV3z6M/jyd/4L3/rhj/HdH/8M3/3hT/GTX/4GL772Oqpqa7vownQmaYJzHT5i2NRXcF5JwbRu/Ubs2LXHhHWoJCWK+vTMx0XnnYlTTjgBaYmJevJjwtumxwJB5GK4cwknPUPt36cPLjjnbJx8/HHITE1FfHSMWRPlZeUo3Lsf9VQWkaJOm5IPGtDPFHLHVm5M13jg0lWecbHR6N27JwpsUwDFlMXnhHhDQwMqqioDq4geH0LBtCuHvweMElaPcrYUSIOUZFV9PTZu3Y5Hn3wK//Oj/4dLP3U9jjn5bJx9yXX43s/+gCdeeAOrNu80hdlA+jQNG/Jbq2P79y1ARlqaUmyHG3Y4dJyr3O7oYhsVdnW4z9+HsEwuHeXBQU1zs01nd05Pq3Lz83KQnqoV12G7oOPRffmk1e5175bHAYD2OeqMkFrmw4FPSUkJStk+ZDV23I2yDeVt8/a8/GDBWKgAQ6fBF5CRmoye+dnISuPALMaeJpvStNkM47KDG8qF5xF8YhrKMwzhQnV2Hv8qeAX5CYIJD/7FxcQhlx1Yz+vUudyzKdi2VXov7YXX5qGkqtZWCOp1hSa65rZYW3EYl5CMqFg9lQpgJ04sdKDz9T+PsPu7lYY6xmPHnmKsWb+NFo57fiZxolw17h81YAA+e/UVuOycM9G3Ww4So7VdnL5vaS8mMCDFfFQzhVcL0pMTcNS40bjpM5/Ct2+6Hl+54SqcffKJyKClIeFbywHBFiqQvYX7oXffTRYyI73yMbBvT/vC+9CBvZl2A4We8tCaRW3h14D4qCYMH9Ifp5w0x5Sp6HMLPEgz+a0XvVeuWsV0KTT16oqFMKb+DYTC8MPC5Wk5MAvlIj+9x5dMq7lNKyVj4o3yOhZSluOKjZtxB63LG7/+TVx5w+dw35+fQHFZpeXq4muQEIu8XG3akGX+qgOt4GxqDCxi+3XhZaEnJyS6BVQqL+lRu9OrRFFRHc/ePswAwPFJvxqY0DGKlS34a25qQrU2TtBSUSKkWXU2buQwTBgzHOnaDUnfadTns1hXcW1N6JadjgvPPdN2OtKG9EaRElcKvLCBjdHqtissK6vAjm17UFleTSqsNMZfbf6gj3ifesIc5GWkQd/zVF76VFcs218sOZ1Kq/vkOcfhFz/6Pn7wza/gxKOnoWdmCpK0QWJrA7NUW3WL3uwRR0tL+3Ni8VnPZFOpzBOT4o2fUvT6kohT+GGP+XvbicffA68gP4FQJ7fnIzyGXccEATuVnnHpGVa4BZs6vUSQhFvf3n0wcvhwG1lbeKH9hIg08T5iKBsTgnLB3559+zDv7YXYtmsvFYzLWL9ylMEYM3wQvvWVL+JbX/4Cxg4fgnQKvPT4WKRRemVQUmbzvE9OJs4//RT8v+9/GxedcxLys5IwcnB/3PjpK3He2achMz0Jrc2NWLZsCea//Y4JKZueVGY8piQn4fjZx+Lc005D79wcpMXGIJUWYwpdWnwMRg4ZgE9dcTFOmn20bc6tfUbFf0WuqKjC6tXr3LZ49Ndzsw96hijnTtqvuoAyCE4jIKXTqg2ug02uVfO52Vm48tJLcNNnP4NRQwa57x/GxVCBxdjXTWxlMpW2VMHBov3Yt3snWhrqee0QZiMBLieobI11DaivbdA6IkNYJ5q67tOrB3qQT/quqD4urUVf+gKGNit3zzHtyWcQ4++HSiaxpa3ZNnNQs4eDGvvaBX1FjtpJn4I+uPiC83Hs9KnISklkPbFN0PXOzcal552LKy86DwU9u7WXz5ESXuno8lCdVVRWY8Waddi6ex/qmJHyUnBN9ffr0x3XXnkZzjjpRORnpLLdxSCNPNa3Q9NpyZ5wzHRce/mFPE7GJeedjp//5Af47A3XY9DAAfZc27UT0dyK2ro6Ww8QCmTdkQU6glbq8CGD7ZN1+pBAIjNOZtvTV1rcBvBByYN69/ho4XfS+QRBnUqKRdOG/Qp6Y/LEscjLTOvodOyQchUVlThwoAgtzbQd2dmyMtIxZsRwXHz+uTj5hFn2IV/FCfqvWVUbNm/D/HfedTvCBM9h8iiAj5o4HiOGDLSddCQ0FEU76SxbtTbYSUcKx4V3O+lMtC/5azFIkLzbSWfZKqzduMXt1MPw6ura8/PQwQP26sLAgRTwFBKiSfHM8UefhBpJ5XjGqadg5lHaOWYwpowfZ5ten6vNpT9/Ay6gIuyVm2VfqTDbgPFystJtP8wDB0uxecsWVNfUUFnEYPDAgeiZn2thwnySEhMwccJ4TGX62q91UP/+GD1iKAXj8bjhU1fiOFoG+tivyqTF/uKxvn24at1GPPbMX7Fu81bou4SaeNM3A8eOGolpk8bbLi6OMywzC7xu4ybb4UY7H7kdUsJlMapVnbUy7wLMIA975OW00yjodYN3Fi/Fuk2brb60n+nM6dNw9WXn46xTZtunu8YMH4F8Kq/s9HTmnWKfvuqWk2XKYtaMqTjn9FNpKbMu2SaUq1Bb34Q3OUh5k3Wv3Xr0fFhTimNHjcaEsSOpFF1b0argGDYATT2mpachlkqioE9vHH/cbPKsOw6yvdXX15I3bRZOPNBOOpp6DHmgOt+0bYeV44De9bTXGjosT3ckJ6SZqRBkLQ4bPBAD+hVYmnaXtOnYo3t3zJxxNCaOG0slMwizZ87A9VdfibNPPYE86NgRJ8zb0uXv+k1bmP9yHCyvNFWuSdyqykrbKGPwQH1DM6G9nctlsX9NGD8WI6nICnp2t52LjmKeF55zBq665Hz2jb7W7mRx6tNdY8eNRmZuHsu5CwdLSpUxB4Vt6Mn0J/Jej255Vq9hqfVKU7du3W3Vtl43mTh2LMs13QY2JSUHbcBrHaH9FRqPjxJeQX6CoO7hukkbMtJTbMeUfn16UJC4jqNDDpWa9u0cO3oURo4YghlTp+DsM06z7wXOmDoJqYFyDNPRb9cKMvpvKMh1VJAr/24F2RgoSDkJU73qsb9wHxKTkjFk8GDEUfBKCLoUnZMwSYqPt43Bp4wfjelTtLBkPEZRceZmptuUbKgYw7JJI2lf0pXrN2HtuvU2HVpRWUWLMhPDhg2l4I9j+EDoKi4L15PC66jJ4zGLlsHxs2fgqAlj0IuKKvx8lCxx/WklqT42/dRzL+LlN+ajiopF9pN2mNEnjjQYEX1dKch3qCDLaLWYcuDd9yrIvlSQk7pUkAtCBUnfnJxcW6Q15+iptGpikZ2caJ+uOmbGNA4mTqY1faYNIC48+wz7ePNpJ83BwL69SV90u3CWoaut6V589XWzomzTcfJE71Xm5WRj+PDB6KZt74LwcslJCRg5bAhOOfkEnH76ycxvMgYP6I89e/Zi29ZtLIUUZDTGjBpFBTnu71aQCiMadNbIttEjvzuGDx6E1FQ366G0zPEilbRoQKGvZ0yi8unbM98+Z6b7Uq4uX0vRMpfy1/Zw7yzRVnPlcDsGRaO+rtYWcvUtKEAPKkE9m7aZDqahPFOpNIf072d9ac4xM2z6duKoobbxhrU7OuUlvV5eXY+5b75jW8jpWb+BN5KZxki2u34cVMi6N9psGpX9pns+pnOwcxoHgadwAKsdnyoqKrB50ybUkAdadq7Bl6PG46OE6sHjEwaNKrdt34533lmMg4e0p2QH1LFzMjNxPIX8Z666AjdecwXOPZnCsQ87PkM21DejsUFPQjrhsP7nFMH7dUg3DaaT8L6kj6hov9NO02G0BU7Q0XYXoeW178BB3P/Qw7j97vuxbfe+9mc14XNJJSIhRNluDVpOCstZdIFitASda2hswYZte3D3g4/gpZdepuBvtbzKqWSeff5FPPzoU9izv6R9VWcklF7Hd//cogs995SIUtr6Coe+wv/AI4/j8WeeQwktERPyLIcJMvKhq5WsAWkBRKxcJDpCRMY+7FzKi9EUsw+tY32TMp1Wi+gN+ZJERqRRO2RyINQjMxU9s9OQkxxnGwLovtqHEhWNVVU1Nu28dPlyWxQTkqQBwAoOfpZxUFMfrHjuqGqn0vWZsGT66Th8MJX65HFmrdpAghFccKee5N6DML3DEIZ0x+qaWixatATLV61HdZ2+cNERIiyvlSlwgtqBhh5N+npNI8tkhNMFATpyCP80gxKFpStW4tY77sUbby1BRW0Dwi+rWGz+UKdRsek5rNpbOBEc5K9E6Gpq6zGPA6a5r821TfdDqE3otaa5b7yBHbt3s911LJQSh5RGPH+0L7GOqUlxGD96BPpSmUqVRnPAojAeHz08Xz9BUD9Up5IrPlSGJ599AY889QIOVtWjvqUVjQygr5K7MM4y1JZdMgy0JZl2XVm9Zi127Npl99y2XoQNldlUOPLXQhMtFAifJwmyjLTtWKi05HTHBAw7uxMXHSJDabowWqKg/F0+WqAjSNm4tCUoouybj9v3FeHWex/AT393CxauXG/v9Mk6tTIwnpwhPBI6lVPaCifFqhWdi1euxs9/83vc98BDNs1lZVU+PG7csQu33nM/Hnj8Gezh4KKqsck28Ra94psrsYNotydrbXFUjFGopZWxdssO/OHOB3H7A3+2rcUaqRybyR/7Kr0oIUGyTOwL8UyjiR5aO9tIPy3/0c48bvcc8SmkniHb9JJ+q+Uvxd0gx3N9l1JHCeyQz6ojLe5ISIxDXaP7VJY2ptem5Moz5JUT/0G5eF+CWp9oqmP4/SVl5MGT+ONd92DTrj22J6xqxUQxz/cfPIRnOJh4e9FS1JBH2oigiek2s1zhFnSqbQ0o9Fx20IABtMD60k8zAwwQ1rnyphP9VgbyK1p7BWtQEWE96tcceaCYSkN1toyW7W33PID5VJTVDY1oZDmUjmtf4pVTNlbHvFfPshWVluNNbQ24fZvxz+o2pJu80x7GbcECGpe7PvXVyjyW4he/vxnPvDwP+8ur3CfImD6TtbIorGvhLpb8lW+D+lZVLZ6jJX7HfQ9gNS0/fdVD6bexL6k+9Imw1+a9hVfnLaD1XO5eu1EI0qXUQieOaMCjmYRB/TTlG+9uGAVyHh8l/BTrJwbWSzo6EztWdU01tmzZRsVXgdSMPArMRMTQenAvk2vBAYUJLZ4Kdt4167fgsSee5mh8Jfr274/c/Dx74Vz31Vk3bt2BtxYuRhmtCilMjcT1CsCkieMxaFD/IE12aqVXXY/lq9fZFz0awq950OXn5WHypPHoV9DLFqoorNxBCqzFK9bY8x+z5ki/rCEHE4eWpzYp37RlCxYsfBf7ig4hKjYBcQlJNM4kTCWMnLDScyOVTx+E1rRgDa2c/SWVWLp6A+55+C/4w5/uMiVZT8nZyIj20rxolCLjdW1tHRYtWYJ3l9ByiopDXGIKovXOHAstJaLpWOc46KCSLquuw5YdhXj6hdfwu1tux2vz37bvATpFqB1UWIagPHo2OGLYMEwcPwbJSfEuDToNYNZu2mYfKC6rrDKeOYVnRaOTUgAGUtFMmTwBeTmZ9o6l4otnh2ipLly6wqYIpawLCwtp5a3mYGcvmqgxorXJNRPQsysNWuxD2WE5dM38q2rqUVhcgkVLV+Ku+x6yTdh3FxWbErdpb0dF4Nqwb28htm/fST2WiLSMbETHMg+ah6JJC090rGtqQXFZDcu2nVbYKuw/cJDhyYNRIzBu3GgkJSdYOJVBfNjA9DTFuf9QiasTUzmODwYxgf+mCkQT627f/v3YuGGT1UVKmt5FjbNyqk1a2URHYwsOsB+8s3gFfvfHW20195Dhw5HXLd/yVpgGurWbt2LRshUoKatgmTXF6/K3MlObFx88aF9w2bJ9F9tEEvtUGtuhljm5AYbanfUt8rO2gWUvrcLSVRvwp7sfwN0PPIwtO/dYmxPdxk9rFxo0xKC+rhHrN2xk3pVISc+y1ceajg7T1SKvJtUTw6meFi9fgU3btts3JTvaSwSvPP5pRMUMnuaHHZ8oONvDRItkCTuXltn37NEds2dOx1FTJiGZQsm6NO9puyx9wmjem29iL4WqNu0+4YTj7aiRcBuViBTPitVrqABeYIcvt1G/0tbii+NnHYsJ48basyu9Y6YOqm8namHHG2+9xVE9FUXQcQt698KpJx6PcfpMElMxK5FpF1MYvjbvbSykYJT1ohG/TUlqaG1xnZi08phYYYqMp5f+x48ZjdnHHIuBfQuQlpTAsiUjngJSKwKra2vp6rCbgnzuvHkUKMsohBqMO9ooWpaYFIQJKfLINkFnum5JvTYF0+YC0Sjo0xNzZh+LsWOk1BIRH+deg7F3HCsrsWzZcrxJpVhMq0ppymoQJ5SuUnLnoj2KfIrB9CmT7V3MnIx0uysbR4JvyXJ94Pp124zc7e/pyq5fCWDtrztm9CiccvwcFPTsYVPHaNUXRKggy0rx0tx5ptSpk4xXol8VqL1Utchk2pQpmDRhPDIzM6ioo0xZqxx6n1CvuqxZuxZvLXgHu/fsNaGrerPncKRSFm/7F/0pzI1HdFp6pE3sx1DhzZk9CwNo2eijx4qlFbuHDpXZp7oW0MLT82vxJiYuBjOmTcPxs2cjh7QEHGJdtGD12g14+bU3sHtfIfNnLXRafGIkCHYkLUzP2ntrk32lf8jA/pgz6xiMHD7UFtSI583MtPhgCebNn48lHPhoalaf6zrpxBPRn+3cSkU+Nbc0YwmVuDYh33egmBacFKTKqjbBwQ3bjLbaa22lbcdIqRxwjtEHkI89BoMKCsiHOCo0coSKtqm5CQeKi/HmWwuwhO2jvKra2rXxUzMuDCPe26yM5a8p7jZbL6Ap2j49u+GEWTOtfaelpTGYeKHn5g1Yu2EDXmd/3UzlWMd2boqcfFI9RfLK45+HV5CfKISdw431hXBUaQKfHU8CXysptUuMFls0anqMTiNoJ3wYT9JAMe2UnhKO7Njq4E6Z0EloKE2lznQkzi0uES31xzAavSu8i6O0NN3GbkxBKOEaFSWnGBQq7OD6WoHi2VSru6ETZRqembN8eKL8ZUVpAU0qFVdGShKSE5NsqzEJqbr6elqz1aihUgwVIUniUdzQuWhTajYUYLpOJblnZK58uhsqTPEsISEesYGC1FZ9jdquT1ayPJQ+YzErHuXh4PLQidJ1eWi7P/HC+EbGiHvBHaNP13ZpcZxzqSgHfWlDdDIUBbbyctODUleqEVkkCmWp8MgSqr4Uh7zSKwZxWnWrL0kQUgxNjY1WFrPCGV8DBgfxzeVqJwbxS3/ydU5/qge9AxlPJyqkILWLkD5+7JSDyuiSMVp4bq8bqVi6wxOlZlyx+leIkA4HxwFCaYhGu3D81MAJVJRq59owQF84kTJn9la2Bg6+XA5Km1STf1I6Ft9RRtpciawdMm+1DcHFCOgPzq0VMQ0t+Emi9ZwYT4XM/qXGoAFaA/uVrFPXbxRXaes8IDoSxlvXT1X7yp0twfGT5dDuP7IkteGE0pVF6foWY+jIJEW3o8zjo4JXkJ8ohB1EVRp05aDDR0sQSSHJT73JFKL8JAAoWqwVSInapcGlZDcsDVkU7ddMI7RSJCTMm+lZasxLwsWsDt1gOMXXle6bcLc7Eh26LV+ngEW1nOK0IxAekTDaLU+mTCcFYGmadpKfldRgaerakgjT0v3g3EjUj+NZKL+cIBVUGjqmIV97n5FnRoPlqrR17mKEQtfBnVvelg8df0wQKhyd/dHP0rFgCuXgzpx/xx3lIwXrYuivhSw0xWYheFR6dp+n/FGZrFz009Sj+elHYOZ2xgCOA05EW370s7wtjPOza8Z1to/gqNOVrFybdmA+dt/dChSOaFQoF0/pqQ2FG8e7ktBDYeWCuJGQF5N2FhWD2ju9zNPaoZyVWTnJ/mQAfV2DZ6JG6RqUhTsLoCtHndIOaTRa3gPn7/5cXuZUBl6HsLvMT854Kr5b/qLRghhcDi4lgwiwGFSQ9OrgsQtr6SgfqxfFc+WyaBaiI7zHPw+vID9xCDuIqpWdyC7ZXa2W27shj67aP8gnvHZwHd3Ogo4ehrXwrocapCBNOATXCqCQ5sP/8Bhc2J3A13mHkHe7h+XSDpdzGN/FDgWPS4e/uh3QarTbeQgXywLbmYtl3oGfg/Nw94WOsxBGS5C2/bYH6BwyEq4ELnWj1q6UTGT0MFXnF97p8JWTr90xGty9yPDir7vD31DAmnP+wakhjGHH9ps8dQ2JUH6OzsNgwfTjyuWOPJNXENjdFToi61bYNuWvOzoL21pXcCF5tJ8gRUsyyJt+rrXyqk2KVL52JzgyTnAIEdZAB8LwndEpHbqwduyO8mL+7T661Cl/nF8Q7j0IfRUqDOl85ayYPHGhlD49eGHT3pan/N1dj48OXkH+H4W6UmR3UiPwDcHDw8OjA5qT8fDw8PDw8OgEryA9PDw8PDy6gFeQHh4eHh4eXcAryP/DCJ87+uePHh4eHu+FV5D/R+GVo4eHh8cHwytIDw8PDw+PLuAVpIeHh4eHRxfwCtLDw8PDw6MLeAXp4eHh4eHRBbyC9PDw8PDw6AJeQXp4eHh4eHQBryA9PDw8PDy6gFeQHh4eHh4eXcArSA8PDw8Pjy7gFaSHh4fHvwDhJ+UinceRBa8gPTw8PP5F8EryyIZXkB4eHh7/Avh9jo98eAXp4eHxodCmv7ZWWkHvdf9XVIHjgXMfCn9PWI+PHbyC9PDw+FCIinJOQv+9SvL/hhKI0h+ZIPe3YFOq0QxL53FkIipm8DQ/vPE4AvC3mqkXQh+EztwRN9s5qpu8eH8OutCxsTGIp4vheXRgGTU1N6O5pRUtUTFUk5+88bbjkdSifjUQ0Il8OSRoo0/ItMP414a4mBi6aDeoUMzWgFetrWgz5doR2uPjC68gPY4QSAKpqTrh5MQOz6316kzC2S48IhCKYmNdAJ22RkV3CHciyqzCw/kXxrVpRSqHQQP7YeLYUchOTUU0lWJ1dTVWrFyNLTt2o5EKsoVpftIgrogL+o1ua2Era+EllRx92jhUUJl17vinkDzyfNiQwRg7ejjSU5MYJwr79x/A0hUrsf9giQ0mHGc9Pu6Iic7p8/3g3MPjYwsnfJyL4Qg8ji6WUl/WjPlTKDmZYz8ehAlrE+PiGY8U7NE82jM0/jlWOeXn1KZTBCGMr4FDWytmzTwaX7jxOpx35omYfcx0DB0yFDt27MKmzVvRLEXxIaYdjySoPDQSjStSg2pvsdEaijmeWhhxp330oSuFBU6ccxy+eOPVOOf043HcMVORm5ONjRs2oXD/frRqyrWdVZ8snn3S4J9Bevxn8XfIBzXWpPg4dMvJwoA+PTC4oBcG9+2NblnpiKWQj+nCCvq/jrjYGOTlZGJg3z4YRNe/d09kp6cgzvjVQn65aUPpts5VIU6G3JQOiI2OQTLTS2DABFZGQmwUR9hUCbz+xD5mMwY4pZib7fg4OHC5mWkcqNGqbGtm+TXBzPanRUzka6z4Q6YkkS+JdPG8F0vrs32aVhBTGc8p2NA5fFLZeaTBK8gjFBrZdnSnD4eObsg/dsrQRd4R7Ezp/wN5dMZhaUW4EG2tLocPWsigOyZLqAD79u6Nz33m07jvjtvw4F134P7b/4RrLrsE6YmJ9lxMrkNJhmXslGe7v3Pycc7BroI4nXz/huuMrsI4Z79B+i6vgB7z+WggPuTn5uD6a6/B/XffjofuvQO33/x7nHvGaUhLSqAV5AYVTrAHkd4HYp+sJhpQziKVo6fiusgKEQn5/Y1EOyGS36Ld1ePf6z5CqC2RJtGRkBCHSy++APfcfhv+fN/deOieO9juLkJ+VhpiNfVqgw2Fd3EkWMWj2OAoXjvlSIVIJXoYzXYd6efxcYFXkEcg2rtRhExS5zRBF9ERO4RM0Pms87qjm1YLOqyNYnXu0lGYcNrNwr8HCqmm00GA+fDH+ShOkK/S5lHptecZvCpg6VsLZFgqSsXtSPFwGB0amTNAHi3GAX3y6XIwqF8euuekmQCK4Qjd8SAIHyQmSsIf+bsyBbTYMyU3sg8CWbzgjGF1GU6ryUroxLPAuRgd8TtweLgwrKsXOqMlVIyijYfDEHoE9+lEiyun/Jhm+3lHvQmKGUctlpeVTF5loV8vuTzkZNCCZJljWslP1oWzvD8I7q5IVXWFwt/ooMbUik6XYwhHz/s5d9+lGqRsvoaAEFdGlc05nev5nx3JQ00XuzqPqJMgbcHS5o/jZ+j/XlrCeO/1pzNr0KXd1tKM7Ix041+/nlkY0DuXyjEVCeSvLPEYhou28MxHjvFDuCK59ESr0c3zdsd7tvApcAELPD4G8AryCIR1/sAlxsfalFleZhpdKjKTE5BE6ZWWEIuc9GQb4eZToeiYnZqIpDg9v2u1KbYEhktNjEdWWgryM9PRIzcDPXMykMd4qbwZG02BZMqjmU6CwnXeDueeWZk/pacUZBJH2lnpqUaTXC7Tys1IQh5dbnoSaeLRrpPN5TBsamDNdAirEDqToKEQiYlGUlIikukSY+MQR+843tEIXUIqNTGWVlE8kuJFd4cy07M3uy9+pCXbdGz3bFfWHlbWFGSRB8kM46bBJOgkzJg7j/HMNz2FNJM/+VkMn5GGDIVnYXXMJf256WlIZvpS4NB0G4/x7FkprJsM8jyX9dKNeSnf/AzVEekk8aqjbPEn0/FJ13HMOKRdwlLn8SyP6i2DkXJZhjymYfXKdHNSk5DGsifEtpEfTaSf+dNJgSSSF6IhkWUTrxy/xA8gmfdSWVfJCfG24rKD550R3nH1ENaP408rUpKTWC9JChD4k+7WZiuH6MpJS0I343cmy59h/MpIjLM2Kn6bcjaF4nKIjRHP1J7JK7Zpx5doJKv85JvK3Cs3y5zqT206xdKSolEbYh2Y07lo4h/T1/PDdLYP9ZOeeZnoQdctOw1Zih8fRRdNXiaiGwcP3chf0a0qjSEvEzkqS0mMses4UhnyUlPNKXGxjBvyUeJUPAr7iiuX4wvjsc2kMJzaS4+cTPTKy2Z/y7JyyqJXmwlnQTw+HvCrWI9QaDpKHXLS2DE467RTTHhrlLth/XosX7Ec/fsPwPgJ45Cbm4uY6Bg0NDRgx86deGfhQqxZtxa19XXo2aMHJk2YgAnjxqFHtx6Ij4tDQ30D9u0vxLtLlmDJihUoOlSCphZZfx1jXDeukuhR0wlH7hSWVF4zph2F42fPQjKVhxSeBH0oVEPzSMJVUFpVdQ2kaTFen/cWKmvrWa7DRYtTmq2krxsmjB6JscOH4MRjpmPS6KFmTSrcu4uW4cVXX0dtcysKS8qxYu167CkspHUaTZqSUNCnFyaOGY2RQ4fYlGMi6YyKpT3S3Iya6mrs3LYDixcvw7pNW1FSUYkmJtpmqxOBfgUFOPmE4zB2xDB7nldZUYElS5eiqKgIo5nmkCFDUN/YiOdefBlvvr3A6I+nwumem4cxo0aQv2PQp3cvpCYnm6VVVVWFTZu3YPHSZcjOzsHUaVORQcukhTxevGQZXnplLg6WVlg6gmRuDpX6oP4FGD9mLEYMG8bwGYjmjQbme6C4GGvXqc5XYtfe3ahnPWvWulu3nlbmUUMG4sRZ0zFl3Cirtdr6RsxbsBBvv7sYNfXNKKmsxYp1G7B99z5TK+J5JEzBqEZam3DROWfi61/4NIYUdDfLZ+feffjjnQ/g0WdeRFlNM1pJs+o7MS4avXt2x6RxYzF+9Gh0y89HfGIC2lpbyb8qbNi4EcuXr8S2HTvJ72o0UiG0kDjVe7+Cvjjj5BMxZtggtrgWlB46iIVss3X19Zg8ZTIGDOjPOiUvGbq2phabyct3Fr6L9Vu3o7ymnnUnG1plYAh2kli2gVQq8aED+mHq5IkYRn5ksa9oSr+R/Nu1azeWsj7VP46aPBn9+/a1cu8vPogn//o8tmzfiYnsR+L/6XNm4dijJiCBaSqLt5nv6+RlSUUN214blqxcw/A72FxbceXFF+FLn7mKlmY34/u7ixbjwT8/ZsOXcRMmonv37jawaG5uwaGSEixfvQbvLFrCOixEXaNemwn7weH14fHvhVeQRyzaKIhicdYpJ+M7X/0c+vbItFm/rVt3oZide8yYkUintRbZvVooAXfs3Icnnn6Kxx04/bTTcMzR05GWkmj31ZHlFGnfgRIKiBfx4F8ex9ade8D+z06rZQYcrtM5wdmhHNtoNWTSGrvqikvxhc98ilZSrKWl0CENYUPTtZxil1TU4qG/PItb77gbxWUV7cvmXdggDwrj6VQkX/vSZzB9wgiI2gS6GAZSOhLszXK8WLZuC379hz/hlddeR052Nk48fjYuu+g8U6zJHKLrGZoQ6B8Xn4XbtmMPHnn8STz11xewr/gQbTG3PnbsmFH44o2fxkmzppnVV1omAb8VyVR4I0cOBQ0e7NhTiN/+8Xb85fGnEMs6GTJoEC467xzWzYno1S3bntWF0Gl9QwvWbdiM6ppqDB8xlAI7nYISeOzJ50j7bdhVWIRWCuEYEtu7RzecdepJuOT8szCoXwEC2WxORZGra2jGwkXLcf/DD+OddxdSCdfg2Fmz8ZUv3ojJY0bQunIWj6CBlfEqcBu27cVv/ngnnqGCb1KFWModOFxBnkEFeb1TkKyXnXv24X//dC8eeeYlVNW3GC2ZtHBnTp2MC889CzOmjDMLOUwxPLYw4Natu/GXJ/6KZ5nvLg426lnHUmzjRo/FN266HnOOmWJ1XHawFJu2bEM2B3oDBvajhUmlR39rp0QjiV67fjPueugRPD93Hkorq0xRo411TWZ1Y7xTOMC59PxzOUDqx0FgOLxzR9G8b38xtm3fxYFMDwzo29v8t7DN/+gXv8PazdvwzW/chFNPnN3e7szC4yhPcyuNdOJjSVUjfvLL3+PRxx63gdcVF12EL99wFQZKQTL4NirOAxy8FfTri260HMPBnXihY1lVHV594y3c++AjNmCpb2qxvqAhpsd/Dp77RyDUuc0F0zFSV1JEmqIZPrAAR0+dSEGVRA3ErsfRrMJISCYz0LD+vXDD1Vfgf77xVZw8+2ibYrLnJwzn0nOKp09+Ds4//SScTQWcm5Fm96wnExKy7WgnRhcuv1Y6e3k8cK2Ba4tw7X4MyxNGNencJewZF/PXy9amVXmwLIN8TZ3yfgvvK285BZLFN4RCdcyIwUgic6J4v7mxCQ21dWiipawRg8obT6E7bFABrr70Apxy/Cybdg7tZfd8iDxhPuosmanJtMZGY8LIIUjUFBzjRzO7KJZF05fDBg7AtVdehkvPOxMF3bNtGi5WfFVZaS200iWSlvGjhmDaxPHITUttV2CWjzIhURoY5OflUNGciWuvugRDaMEorTYK3+rqGpTR0q2rqzP+pSTE4phpkzgw+TSOnznTpuvQ0sS8KLpVb0R7nYl38mM8WyAlvrbQ+tPo6UNCKUptRrMCaklDfX0dr1qQnBiDOcfOwOeuv5ZW/lRkU1myUlBPfleUV6C6qhrNTc3Gs8Eszw3XXYnLLjwXPXKyyCP561kejyy7eCFF2I2DnBm0HIcP7m/tO8rai9qqsQkJtFbHjRlmA5LRw4bST+3dzVzk0TI/7/RTcMOnLsXYkf1sgKM0lYbqQtab+Ne7ez6OPmoS+tPSt/tBGKWvQWcbtZjajs18yBlUGTzQP1xoZm0v4HcIS4s//akYJ00axzrNtvDqHwqrdhVPl8/B7Cnsj6edOAc9GKbjefrh6Xn8e+HfgzwCoU6n39hoCvbBA3HMjCn2rEv+0fRTRy2tqMLuwgM4wBF4E4VfXDyFfgzFDgMlJycig0pPPbe8qgo79xdh74FiWjaNiE+Io2KhqGe/TEhwU0AbN29B4f4DHJkHL4PTKS+jw34kPGjRJiSgZ89eyMjMRjFHy4UHDmFf0SHs7eT2FZXwWIo9B0qxfU8RVqxeiw2bttASagymFi3R4Ncdc7KzMKD/AKQkpdsUpp75SZcIpeVV2LH3AA6W1WAbLeTFy1dg7959FNwNiGe5+1I4xcTFYxfDLF+1BgsWL6HVtwcNHKXHJyTSxduUW0oKeRITZxbzvgMHbZorv1s+jpo8AQP79wFlsT0LjeVJC3lcwVF/canLe9GSpaigBXzRhRfiIiq1nIxkE/KNVAiyHLbu3outu3aj8OAhl29igq2MVHoqH5OjVbkJ7zCdMiqTeFqiZ5x8Eq694mIM6JlPYd2GiuparFy3Ec8895JNxRbR0k1Ny0BqSjLLGYtupDU5JQXbt+9EE+utoG9/JCSmsJNHI4lKXxm1UHkcLC3HnsJiR/vuQiwhv3bSCnZTkx2I5L+eLY4aPgwzjprIsqWybGw7ldU2Vaup6ajoGEwcNwbXXH4pZkwcjWTyqLGx2azrF155HY8/9SzWbdzMBhqH9IwM0hXPdpiAzMws7GaYbdu3UWG0oBuVlSxQvUYh/oXNobahgZY92w3bYWlZpY394mgOaqpZyj+/W3emsw+r16yl8nHtfc7sY3EVBz2DBvQxi42aCZW0rnfu2oettBgLaTlW1dTbdHt8YhytUzetLlfKupy/cAl27z+I/oOGIzk106zXlKR4GxiIqIPlldjF+wfIx6KDJVhAXmzdts2U7tjRozCVClHP4x2iaKG3oZKDm32Ms5eupr4R0exrsXJMM4XtITUtHes3bcbOnTuNDm3oIDXp8Z+Bn2I9IuG6cRI71tmnnIj//voXaK1kmUCR4N64ZQcefuwpvDZvHkf49Zg0YTyuvOxizJg0HgkUBhoJyyLbuW8/HnvmeTz74ksoKSvD0CGDcelFF+Dk42hFaUUCsXnbTvzhT3fjUYarbY21aVZNYSkNJybUfZ3FxqE2nUbvSt8te9e/694utJz9ulsm3KIkBMzRduB1Z4GgtZlJVGISNiOH0EK77CIbbWuxiUL+5cln8Ptb70BVQwtqqXzKqmpN2Sr/RMY76qjJ6J6Xh0ULF+Jg8QFakQ3MvwU9KYw/dcWVuILpZaUnG92FxWX4w50P4J6HHkVdUxNGjxqJmz57PU6ZNQ3JZInorm9oIo934rmXX8W7S5fjUEUFDlLxjRoxAl/9wmcwffIYqwsNLlat3YD7H34Ur7wxzwYNEupjRo/ElZdegpOOO5bWORWYhQUeffKv+PXNt2L73kIq5AH44uduwLlnnGj51lI5Pv3ci/jTPfdi645dVn9JVLLHzJiBaz91DSZPGMuBTRT2UfHdfPvdeOqvzyOWefXt0wfXX3M528kJlk9ldTUeID2PPPk0KuoaUdfcxkFSHWrq9AxRdW61YrwTwpqIam0OnkFeZ1OsCinl97Pf3ozHnn0RaVlZuOryy3Dd5eejV046Leo2U+a33XMfXn3jDVRRMWij8wLS8+lrr8N5Z52GNFrjZBEeZ7n/cNvtHCztwZgxo/GNL32WFug0m87UQK28pgGvznuL9fwUNm3ZwoFFPI6ZPh1XXnIBRg8fbDSK2pffeBu/+sOfsJxKMpcK84s3fgaXnnsa0mU6MsB+DgKfevZ5mwoXD6Vke/fsiTNOPxUX0OIf0q/AZhOU3hYq0O//4vd44fW3kZGTi0y2vS9++hpcdvYp7Hcuv4eZzr1/fhz7D5Xb9LSeX9fQopZKu/Lii/Hlz2iKNd/ajHrINg5GHn/mObz8Kgc3HID16NEDF110Ps46eY4tZJLFqqnVX/zuj7iXdVRa04hG9bf2oaDHvxue80cs3IsBgjp06MpLK/D8i6/goUcfw5Zde2ilHeRIeBHmvjGflkmVCRyhurYeb7z5Nu578M9Yu3EbR+dlWLR8JQX5m9ij3T4YRulJCKdTOMTFxdm1YMqNFy6pkAr6S3HqIRmtsegYWnhysbQ1zMU6p4d2cnZNkc3wtuWZjcqVdqBAA+cQZQtSig8epJA7QNprLdfQ1dbVorDoAC3m/baoqK6xyRSuLN4aKrM331pAq+sFKodaZGTnolvPPuZIHC3KVbZoJISsiBSWOT4uxgS6ISii0cPzrVu344+33oY/3nYnLb7l2LBlG6pq69Cnb1/06tXLwgraXuyJp5/FMy+8jKKyajTHJKK2JRqLV67HfY88gSUr19G6Z0CmaQOOwJF9GE0LZOK4UbZyUvnuLyzEyhUrUE2LPz83D93zuyGD1sbOHTuwds0a1JMnUlrasaVvQW+zKA+VlNKKLya/6sIhDC1VWqK0omSJ7S4s4oDgEKo5iHJC2HHd/TpnsMpuv+rwD6DrrIxMDKCCycpMtzZWW9eAxe8uwvq1a5FGq7Y7ByPde3SjRd2Itxe8hQ2bNlmV02jCxAmjMXz4cKZDGtqibQpWylw0N1OBr1q1Do/+5Ulaq0ux90AprfH9eJptfPGK1eSfpjhJA+P0JE/yWX7Rk5uThYJeeUijclTJmtgm3pz/Nh594mls2rUXDdHx5raRDw/T7+W5b5IvVQzpymPvx/JEA86S0jLs5mCyoqY2GMA5V0WeazHP3n1FtAoPUDk2WJtzk/MujKByNtCanvvmfA6CnsJK7ahDK375+o0cXDyH1Zu3oMkCih8xrN8sDh5SLK7HfxZeQX6CoBGxVqCuoVCqqa9nh3OdVQKyiAqknCNchREOHTqItevW2lGLGWQz1LMTFxUV49DBEhMScrExMUiIT6BOU1rvD4XV1FM6hWFBzx62Y4ue6bijrrs716ebuX7metD1RG5Whj2LURrvBwldWU0WKlCmkXA2T2jPyrFpMxzlDXrk5+DMk47Ht7/yRfzgO9/Aj//nO/jJD/4HP/7+93DNlZebQjF5SEEbS8WaSMtL09f2jJIpmuN9uRb6bd6yFRs2b7bFQTYFRhcbF4/U1FQkJLoFTyL1APm4ncK4pp4KOzqO1remqPXiQBS27dQWbdvR1Nwxsdmuh0h3Tk4OhXyOKQopvhwqnvPPOgM/+f7/4Kek/Wc/+B5+8cPv47+/8TXMPGoKEqJjEMs89VpHNgc0et1GFr2mvk3pKlk6FiXgU/vTVTppYd11nHNcpBfDvh8631LZM2UNMzklFRcbjZkzppG+r5JO0vqj7+PnpPfnPL/2sovRv1cPe/am3POozHK0slQR+a8ZCkufDK6n0lm2ZCnb6jo00NxUjTSRSQfLK7CXbbWGyp1jGuORdllS3aktZWVkUMkE05tMTM9BNzCN3bRSG1nP9ewI9eRNE+ujjIpv+67dNq2qfJ0jDcaT95a1AwzDNFydkZ90VgBzHUpSrqS0FCtWrbYBSysHiHpUoTmW9Rs3Yev2PWwHLhdlmco+lJAg+9njPw2vII9AuC7IP520X7ufyqpqG/G2stdKSbTRSmpujaYgabRXACT35WprqlHKTtsiIUEnQd/C0XsjO6qeX1l6RDT9oyl8nV3x/tBzT3Xsyy+9FM888Theef5ZvPb8M5jH4/zn5J6hezrC8R7ds488iM9dfSXy091CIOXyvjmxwBKiUsSdw4XnJpCCdFKorMYOH4pvf+mL+O1Pv0/BfDbOO3UWTp09FScfMwUnHzsVx0wZhz75eSZUTdDyRK/PyJLUvqXtCoP35bRCsbKyElUUqlo1654RuYGIqFAYAwmRMpVzr64onG6Kn7SsNZ3JOpLFbN50ol1WUzS1TAwFvZ6vhYotLzcXUyZPxJxZx9DNwHHHTqObjuOOmY6RQwdSIbKeSVtLE9UvhX8MY3at4CTUVSplLyXgFHxwx5woddQyFHnpEBBJhD6Ryev5tgZaITS1PWLYYBw/ayZpnIHZM6djzswZOP6YozFz6hT0zstFFGllY7OBSWJ8vH0pxC0GcylL2ba1NaOssgyVtTW24tOGLGyPat8azJUeKrWw4ntMHMusOCy4kUI/ldPIZqOXNah2qtYjzupP5+JXm0x53lM0c1Y3roymBA8rbQD5hyPOLqC0Qxw4cADFxcX2TFqLc4znev2K+eo1IbewzOWnldAamHr859HRoj2OMASdj4fOXVQyV8JP3d2czk0YRobVGZ2SsXuHi0bB/QbhukSHv8JK3Oil8+TEWKQmcSScFIW0pGikJ8U4l9zh0pKj6Xg/OZbCNJYkOEvKcnu/7CLQOchh1EuxtbVi6KCB+OoXP4eLzzvVXgbXCtDiooNYtXItFr27FO8sXIJlK9ahOBCylredCV0T4Wh0/NQwwt5Xo7DT88aamhp7n87CsWdlZ2eie/duSLDpaVcbOkqd9qJ/Aa1nKWSXZiCCeWGDFllLLU5oCloFum7deixctARvL1yGt8wttYUkoZtH9ybLtWH7TtQ0NjnlHVHvHS7M7b1OAkH7q8qCNqu+k5YVrUbv4d6mfORCNJL+HbSeFyxahrcXkdd0C0j7Ah7fpt9b7y43N3/hcixatgqFRUVM07UB0RHmo3qVM2XEa+MgtaB7BSJo14pCOGuZV60tqK6sQB2VqktPFm0s+vXtZ+/TasGONg7QhvdyacnJ6N2rFzLSMyxsmK/jSYDwMsLLEGZgCOl2f5FQu2huanL3I9I4PJTHxw1eQR6BcCLDdUUTdexx6nOus/HcOmDQxekZhm8fTRuC0AzU7iwMwwZCR84huLJ83LkJoo47FkdpNjY0orKikgJdrgJlZRUo5dGczulK6A7pqPsMp1cFLGVJDpdMOzrSd0fR18ILlUXXgixKswDpq4krLZGPjWmzl7v1Yngc7ynpXRTYd9x1D278whdw2TWfwqVXX43v/uAHWLJypVknlo+cyh8410U6CFKxlbcsGPmHfG1sacbe/fuxr+hAwH+gV8+etPJmYvK40eiWmYaspHjkpCRimF46P3EOpowf2f6MUblIuQtSjJoO14Iam8alKykrx30PPIjrPn09rrjmGlxy1dW4iO6CK6/CJSzLFZ+5EZdcdz0uuOpT+MMd92DPoTL7BFUz6dTsnd7VU+qyrGQpO/UiFa9X1zXpS9fWgoy0FAwdOADjhg/DoILeyEhKhN5+FV/lXCrvhV7k17PMZlljvG6kMnj5tdfwpa99FZdfRRovvxIXX3EVLpQjzZd9+jpc+qnreH41rvz0DXj2pVfRyIjOmo1UL+Qx/dvrm3VisyNt4XDD+cs5PjolX1JSiuKDJaRDNLvZhGOmT8Mc1kffHvnITk5Adko8euVlYvqUiZhKl52dYXFd3q5mlYvbQq6VPmHrd0ig0rVFPdo9SXy0cLxBgsO/EHamgtg913asHdk9dx2Jjpge/0moPXgcYVCHkhjo6GAOJkjo4aaE3LXBFBs7eOhPp8UabnqIHdMsDZdehyJyR7n2+PLVfBivnWqwu8FZlD331O4iv/ztrfjxz27Fj356C77/s//F//z0txHud/jeT3+P7/3sj7x3M37+uz/h5dfno7JWStKlaE7Eu+QJCURZVlG2yq+W1pGEvhN9QEZqMrrnZtEyTaTVGm8LP2LamigU45CclNSezI6du/DO4qXYX1qOBq0OTEhCRn53ZGbnuHIzoC00kmKkh9Ej3pDXITl6HV7KVMJZdMm3lTxpaGnCxq1bsGLNBlTUNhq9SaTl9BNn45c/+m987xtfxPVXXICbrr8KP/nvb+GqS85F7/xse3YmoSpnL6DbfxQ2bNyEVWvXUfG2mnLr0acPTjr5FEycOAmpmZlIykhHIi2elKwcDB0zDmddcBEmTp2BmMRUNEfHoZnla2bqja3kmdJwSdurOPk5WcGWeXHIStY2e22IbW1EKq/PP/NU3Pa7X+K+22/GLb/+Oc6mIk+Pj0ZsWyPpkyJQKq7kOg1tpYMlxdi+aw+qqtyCoNiERBx3/PE486wz0atPb6SmpyMlPRMpmcy7dx8ce+LJOOrYWUjNzkN0YjJaYxOpIN2zOfFfuYiHSksWtfjeRqvWcjc+8VpH+ctPsLqLsePB0jK8u2wltu3abUpbVvHIIYPw5Ruvx4++83V85sqLcN1l5+OH3/4qvv/dr2Hq5LHtK1hDKDc34GLb58CvsY5WIHkZ5te/wH0dJT0pFulUttoOUIOzgHo6R5td8UertfU6TNjXXNmkKINyEY6v/A09PP6j8O9BHoFwQsk9J9N7kMfOOIpKwu2HuWvPXrz17hIUFpey47nOqPfgBvbVBgKT7SVkdcL9Bw/ZdNfmHbsplGIZTsIlCr179rB33bSwRuGqa+qwfPU6LFu9FnVNzRYupOAw0F9TbAcPHcLGTZuwbv1GrN2wAWs2bMLqDZt57HCrN2zB6o1bzX/95m32bqCEeChalJathg3ycl5OfWoRzfDBgzFx7EgkxrpndMlJKciikutNJTJ61Cgrb1FhIQYPHIhptAwy0pL1CAoNFHIHDhbbh36zsrMxcvhwXHj+uTh25nTbJ1NpafuxVWvX2ruB2o5PU6RHTZ6Egf36kN9u6nD1uo0UvitQFbk1HuPr2aSm9Xr36GGvkCQwgvZy1WeSRo8YhpnTj8K0yeNpmfV073FSwIfPU7XJwdqNm7FgyTKUVdfYbjiZGRkYMXQwMlKSbdMDbbM2YcIE9KWCGUDhPJ5lnXPMTFxz+eU4n4oon2XSatdDBw/as0+xLzEmFmNGjMK4kcMpwGPs2VY2w+Vk56KgTwHGjByFaOZ9qPgg5sw6Fp/51OUYNbSAAj8OvbTRQUI8tm7bgaKi/eTXMEw/apLbOIJpl1dU4Z13F2P9pi02Jaxt3fr26cWyd2PZo23hzciRI0lvAXqRJ6NHDMfk8eNw1aWX4tNXXooJY0fbpge7d+8m3+tNGfXKz8VM5jGY/LY6Y33o/cIVazeYNSxeG2itjRkxlPU7AdmZ6eZVWl6JtxYuwoatO9ieWCYqybTUdPRjOdNoMcaTpnRayIMH9ceMqUfRopyKEdp6jn6qezl9a1Qo4SDqzQXv2lZz9voRtdkQ9rWxo4Yhk31NoXJysq2OtJXepIkTOTCLJx+L0ULreeyokfYepF4PEXbvLWQ5lmDP/iI39c3cVPOayp45Yyomjh5hClrtfy37zKKlK3CovMoGDO1l9vi3Q23C44gDO4z9889Gox3TNVIyNiJlx9NA1HpchDXkwrhwLRRozkISLGD7WZiec66Tuo76wZ1VYZyF5fKQzRGu3rQVnOY0IcX7FEYa3TcrsBat0N8pRaYTWAkh3JmUUJW9IrBn735nBdNXFsqll1yM73zra/j2N76Cs087FdkU4sVFhdi7Zw9lqbP3hg0ehK9+/vP4469+iZt/+Qv86sc/wEmzZ9J6IjVKi4FsJxQ694FhV2r70z2mwWC8kjJ1ik0E6KgrCb7lq1bjrvsfxBsLlqCotJLWbjOtOGd1KmkNImrqG7Cn8AD2HzhEi8SVQWk3857yV3p1VM5vzH8Lf33xNQ5mysxy0Y0B/Qtw5aUX4Ltf+wq++/Wv4LPXXo1Jo4chPTEGU8aPwYmzZ6FbrnZiUa0BNTW12LJlK/YW7jdLTHlp1e4Vl16C737j6/jqFz+PE46bjWxaeJlpqeZk1copfjqv5VQtoszopLOpX7axFvrLptLik6XLluPpv76AjZu324polTcnKxNnnn4KvkV6/4v5fevLN+Hk2TOQmaL9Ufvi5ONnYdCAfq7a9RO0AdEpp+sotg21c0H1oKl4F1TWopv4FU1SoO4Jr1s0daC4BM88/xKeeeFVbNuzH9X1tAJlTbMQok1tTIuaSkvKsZftSYMS1a9cMxWw2xXH0RTFgY4GTtoiULMYuqNXMU475SR882tfxddv+iyuvOQ8DGGZNCXtpq9dXcrpV1ehj/MTRIj9G2/NsXDhmgGP/yxcq/M44mB9JxAkEr6hkJDSCRVa2AutO0p4sMO3d0I6rWZsD6SUFIxnUidOibr0zGo0ARWEf5+eq3CWLl0wIeuc/A9zLolQ8Zi0C6C4ds/udyAM1tTchKVLl+NZCr1d+0sorPSCO29SVurZmhZf9O7ZDQW9e2PDho148eW52LR9r22Ert1yuufnYBxH62NHDUUeLbvCvXuxYeMW1ATvVoaiLeSPWYh0HTwWzzuUo07sXGB4rUp8Z9Fi/OJ3v8dt9z6IeQtXYO3mPdi2txhb9hRh9aYdeO61ebjlzrsx7623SX+TJaPdX+oaG6x8SlBl2knl/tAjj+PhvzyN9Vt2oJyDg8ZmUcBysqzaek21osUfZbR4NtEq37Jls1llpgB4T+8JLl6+Ei+9Ph+7ig6hlvzSZuzR1ICaik5KjKPS7YsePXvYq0B79xWigXmoLdXS4t5Hi+dgaYm9p2dPKllGnYfX9rpCwKPKmhrbPOG2ux/A24tWofBguaUhhSPYs086KftqKu5tO/Zi9ZqNOHiohHdVKjfYa2/L5qQAHf9d23KJqX24sK6uFFZLYDQgs6FBG/sAA62nVf6HP92OX/zvbXjmlbewfP12bNpViK37im0f2rdI5533PYznX3oFJeVlxnflrfeEtSGE6lr5KM11GzfhpblvYt3WnaiistXqb9ERH8f2wGO/fv1RQMs+mpWjVakakIR9QArbNtAjXWyiBiuxlC9d+JxYTn1EA1zlGwT1+A/BT7EeoVCH1DZlvXp2x4B+fSmY620BzKatO7Bo+SoUl5ZZ55agZF9Dt7xcCsJ+dq5FMjt278XiZavs6wGmBIJEs3NyMIAj+sTEeAtXWFRMq2g91m3ewjzUfd//lQ8nvJgrM7FzBgvTDp1gxyAJlUPnNlq3cxc+uM2jzoJ7OvB+bW0Ntm3bin379iM2MRlt5INeu9BOJlt37sb8BYuwbOUqFB06RH5so2DbQgEUg+i4ePuaRTkthT0HSjB3/rtUQI/Z+3QZ2XmopNVWSP/lazZg9fpNtPQakZWdi4EDBtqntsrLK2ybttVrN9puLdXaz9XoJXH8l7LS0CQ2NsZe6F+1ejXmvvEmXnptrrlnX3gBjz/1JF56+WWUV5TbtNzwYUOtHrXzz6JlK7B46Qrb3CAUjrZ6de16LFu+HPtpEUXFxNnL81XVdSirrMGBQ2VYvnKdKdJ7HnoYi1asQlVdPQWsdobVE7FoW+yzhfwqKj6ImPgkCuBoVNfV2naE26ks3l28wrbg27R1qykGPZOVUF9I/wf/8gRWrFtPy4sDj4L+6Me2oZf9tchqz/5ivLt0pdvZR/Sy3jUlum3HdixZsgxbt+1EUys5wvy0w4w2atC04ebte/DcS3NxBxXpS3Nfx4GSUio3F05T5YMGDWD7S7Svmsh6XkjLdB1pawgUkjUE/uvj2f379qHCpRVIPu0tLDb+7di1x/inMLFxcaY8t+3YwQHJm7Zw6KXXXmf+r+Lxp5/FU399jvW5HsNYD1MmjkcKLVvtiqPt8954ewH2sW1IudkgqaUJu/fsxs7d+3gdh6jYOHsPs4wDlz0crL397jJbqVtUUmK86kNl2cDBi/rRFpZZ/a2QdaByWnuh07T0yBHD0a1bLioqtYCtkm2P7WvVWtYPBzpRVKoe/zH4reaOQEipyGnqEK3N0Geu5NzIlColhkosPt5ZVvKRPNF9jtxtIQiH9Aoa7mSjob1G+ZpykljWZuKUOibs9fqFWX1MM5rC2TK2O1IHQQbvgRHyD8ClF8aOTN3oDe6Y2G8jjXR63pidk22fjKqsqkQJhZNWUNpCG0vB0akzvTiuvVV1dUA7zNjOKRzlk48SsmKNYO8haqcfCjLxuI3WnTbzFn+MDt6LpnC056RMS366ozF/AqXehFEj0b+gN3ZQURQWFpl12qx64n1ZfrlZ6TjnjDPsWVxBr+5G214qm1vuuA8PPv4UKuqb0Eg/QeJRGxS4SmQudOlpaeie183u63ljJcshhdZGuo0W0yJOqLs6ZTquERg38nKz7UX6igoKZPKrSQMflYXlFd/00r++u6lntaFlrXJqSrtFfGp1vNB7jyGfrF0oowDiilY6i3fx8XHIzck1/ldWV9kKU+0sI/65hTfOQlMsraRta240J5JtGlXlMmct0mi0tGVNM33bVFybIogG7dJkC2HYB3hpzw1Hj0JZyUFs2bQe1ZWV9kqOnvmKXi1amjB2LK6/+krb8D0+XrsvteKhx57Cn+66Fzs1lc9aMKvOcld9iJet5GG6fTFGr3AcKqF13qDNORiOzl57aWQ75FF06V1i2wuZAxd9qUUp6flzK3mpTeXbWlhm8laLiWJYBu041Rod5wY6SlPlJc2uXXv8u+AV5BEI6yNy6nwSVDyXeGGvM6hDSRzr0nVqvQbBDkkPCxdAQjWcCg0bge4754SQRJfCuKnbsHNKWDiB9p+AJt00YSWIAiunhJYYI4FLvkiYS4C7Z1dOwBi1DCPhZUJW4Rlb8e1eyIQA8gtdCMcR8k3x7Tr8MTGKvj16mLA949QTUVxUhLVr12HzFm32vp+CuZGKLRfjx47E0dOnoV+fPjbtqO9tvrN4Gf5wy114c9Ey1DE9TV0KkfkH5AZ52m9QBtUHXfs5f6Ukw4gW1kKYVxDa3dLR/fOGi2Bpyike/1upDDr4FYQNYII7greRsHak+/wL77i4uiIfedC1a1euvNqcQXyUwmOB6KNwmkoVzy0Iodan58BMlwlYDQc0KifpPsVLSU7ExRechysuvRhxbPzr1q7Gxg0bsG9fIS3waqSkpmDggAE49uijMXbEEFvFK4J2FR7EzXfcY9vA6TNUoYK0FscMjSq1IaOeUYy/hBUjCEeYgg/vGRjDaAzrlvcUhudap6syWFmMj/biCPP1FuR/El5BHomwDkQEHco6lXk4mABnl7OKdb3PDqFzN4hw9M50ItEeluFMEfHEPetxd/QbiAm6fz9ESaggQ4geFcsJbIYhaeHCjs6w4uuHYTqEmytX5xJ1vnb50HW+QUtAX+7XAqGvfO46DBnQ0+KKtQ0NLWhucha5dulJSoylleDy08Kc3fuKcP/Dj+HPjz+D/aUVaKa1oWnQEJ2zCmEKgeRbURjeitLeNtyplY432r11Lt92P6f41FrCBUqGIEIQ7TCEaTowhPt/D6TEjAGMoTz05+IyPAcvWuqiPEPFLqaKR1KSime7y9BPC2QURm3auKbgvK9gZKO7VLo8s/LJ8WrMyOH47A2fxkmzpyMlwa14bqLlWq+t/xhfFl1iQpztf6rwQmVVPZ558VXced8DWL9lO5rapK6lqJg/AykfI9fycPmEPLXy8Wb4XrJ+dF/hZf1ZW7PIrm7DOC5VXbO8LLOeS+qOtZj3acMe/x547h+BUD+z8Ss7j45yep9KiybknCJT1dK1uaNGrXKusweOcdxoOwgbuPaw7MyyHKUcnSjQfR3l/nMQLSpHSKdzopH0acWjVqDo1ZX3hHFO5ZBCkTiO5ghdTueRZQ+dU8WRzvG3czhNBcYnaM/aWHsuVVFVa5970qRnamIMstLi6RKQkRxnr5RoGlufF9u5qxCPPfWcfTi4uLwSLcH0oBOkwnvzCp3qz9ULj1aPPNfRLqhOpJwCBSVl5Kww0k/n2o4rjy2AYVpWv5a3rJau+SF3WDim837hOvJzC230BNsGWroO8hQdru50rvAMo3ZJzunTWG2aalR69ItSWw4DWR6u3Vvb5z0t0nHpKz0gISmBx1abKtYGFiDPE6kMs9KSkJueYps2JOsxAzuBFnsVl1Xh+dfewD0P/Rnrtm6z56KOV6LH8co4K9qVD/OUo5o2Z3VBWtpIny3wsvAKx6P4xLo1fol8BbX77mh8Yh4KY+d0HW3A4z8Fb0EegbCOys5j3a999KpRa9DzAkR2r3+skq3rtp+5FOWUWmTq/26EZe6A8xH+frosXlCsvxU7zMNZPR2I1lZ5bc1IpPKbNHY0Tj7+eIwcNhTd8vOQnpyE5CSnGE0Y1zXYB4937t6L5156Ba/OewNlNfW2cbYGOPYMjWm66Tnlc3heoY/5BkE6yq/f0DnozAS9xZDqUpSO++5U7clS/IcRkWIA+dBFJktl4VpucNdo7wiioyxDIbwf6Se0x7G2L1gIOothgd3zXn3Auj9mzzwaR40fhwG9etl7kPpCjXbB0fSvFKP2ed1bdADvLFyMF19+Fdt27UEjFZ+z+UNlrzpXui5P0ePyDnIP+qGUmhuShOg4a8dhhQkO6s9hGvYblsnjPwmvII9QmIA2ARp2o7AaP+pO1bl5fFw6bVfN9h+nTal92NiWc6Ag7Zf1IIHsbDInUrXIJTcrG/nZOSjo2dM+96QvNDQ2NGB/0X7s2rUbB4qLTVHqtQo9c3QrOZViJCWdr0PRGVn+8H547LgXnoWiV0Gc4u2MyDw+Srx/XiE9kYhUPLofxpbfYf68iNQzkVBtWGAtSqIFrf2BczPTkZ+Tg149uqMnXVaa2xxfX7PZuXs39hQV4WBJma1ylrWn+jAr1mrzcG4LIS0hIkO8D1kBdPe9IZRH13X6n0JXpQ7Y6k6tDty5lPt/mt5/DbyC9PD4CCAFKYHinINEnolYKSQqPj2D0jO3QLe68Y2EDD2c1aEbhwsam2rrhEgl0oH3+nTl19HZP47d3tEkqkPKQyrdtRPZH5pyRTImc9DCg9UNmWdfaaElL+WpaWgb3kgh0rkp32C61Jzs7Y8Sf1cJ/oMQB8JJZYeOOhGPeKSHu+sVpIeHxwfCREa7EAlh1x0/FswJFtftws6no0JoFlZHWTfOLnVT6iGkdO1ZXISfQ5hSJCxFd3oYDp8E/HiA9Eh58SySalNfRqoberyXwx8ABjUuKmm75K9Fl21INRgoRyUvHtszQA1kTAHwnDe64t4/B+VmBfoPoqv8O/NVHGh2gwleha611fFJg7p2BWnKUe6TB68gPQ5Dx6jQwZq+byEfEu/PKCdCnFAx9cSj8ZXS293Th3KT7Iv8blVlK2rr6lFSUWWLecKUTcjzwo7vgfNzrwkE1FgeOiFcVEN4/HjAERmvjz1nZiA1OcmsO5WipLzSvmziFoqF6vPvg60y1ciD0Iv5ykMb3Gs7PVmQh8pKUVZVbUrSKUepT1uDaz4fLVxZ/1NQedonJWwQFpwabyPRBn1pJicr3Tb8tz2DGbj4YKl9WECL3NzgTXCc+iTCK0iPw+AV5D8HY1WkrKCHCVn6yVv3zdkFhRUvJJq0afWMqVNwwTlnoU/PfCoIbYq+AX9+4lnbDFxKTxsY6NuS2nD8/QS3lIH96UjpZVuetdISbXHTiWYpmXCLJPI/DZWlFQP6FeCi88/B5PFjbGpa09EPPvIYnn3+Rehj3jYFKroZ/O+hXvwI6yA3KxOXXXQBZk2fZoumxJ9HHmMeL72MusZmUuGsR8Vwg5CPmk8qa9d19++A+NBR+46OjoFBR1nl06dXPi67+AJMHDeWvIpBQ30D7rn/Ybz59jto1OYZDOdK86/g08cDfqu5TzDauyHbbth8zS+8CNp1cHCIuA792o8aRbZffTDUwTRSNUVg8Vw6YWzzJ9whUmAoJq95Q/EdwlA6Otd+630QWc6/FVZoDx/pDGGZD/Mk3LVoMrqCMuro6NQUXRgzLA+v7b6Du+ecNnKYMG40zjvjREwYOQj9e3VHc0MDVq5ci32FhRYqOyMd0yZPxOyjp2H8yGF0wyPcMMaT3zCMGjoIQ/sXYGBBL/Tqlo/MlEREtzajubHBFIKN/EUHMz68HoKLSDBc6GwBEf9tNWdE/MNL1IHDeNp+CMM6WP50ekbYp1dPnHPqHBw3YyLLn4+CXt1su74lS1eYBemGEgGfO8HajCHyvs51FdzjAEG735x72vE4dc405pGH/r3zsXrVaixduRraOF9xrEzto0KXQqQL7whdXR+O9/p0hZCXjh9MMYjWEbvjrCuE5VcVHY5IjzYkxsUiPTWJVnoiUpISbSchbawRfuw6DK061aYWF5xzalAfeeiW3w1LlqywT7E1BQpSr60cTjv/w0QMh10ccfAK8giHmp+bHAlaZ3AVdBf+uwbqRIvzt4bc3qE6BIAQnkc696NDu08XkH+YC38DS8auI/KQs5xdMB6MIrvUpJa7FyHujP4wsDt3Vy5EGO89oJdCKIruunDuGCL0b/djYDfV5HzDPxdTuYQhw1jycyPv9o89B/7u/dOOFIwHIobMtxAWPLyre8DwIQNx9FET0S0zHXH03benEAsXLbENxLUVXL+CPrj2qotww9UX4/iZU83NeY+bhhOOmYFTjpuFU044DifyOH3yBORlZ6CsrBSl5eWmCNo3oRf1pF1TaO4dPR3pLfBc5QtpFJwYJSyu47y4FtTcYbAY/Imsh3ZEKAGdaJFH97w8HDN1EpV7H5v+lBW5YMG7WLJ8pa0qVd1EpnH4OWlQkubJcEzPbTjg8pG30ktPTsGx0ydj9LBBiLeQwNvvvItlK1bbxu56B7W9f9gxKD0vFVb3eGpH86fTj4sT4WcIzzp8Qohe10Ic7MrK6K4E+8SbJWg/5vd+EJUWIuQrnTsYtfx3x6GDBuLkE2bj2BlTcdSkCRg6eDCqq6pRyrahLQQd/1z+edlZmDVjGob07Y14+muzizfmzcdGKkg9vW1f2KScNF2hvAlLwuAoOJKhOvI4wqBm6CZJVH3OuaaopioRJmHhzp1/5z/GYE9w1gxd2Mi7gKmqoHNpxx05y59xOzuXBh2lhev+ch3pOrodXD+23INYOopeFyJI6TBoNah7Oy18pcJNDrmULVvS4Zx8LA3LJyI9FzTCL6SBjmXT1KZzh6ctdLz4Ll/5KwzDRrmJucPS5InOLVTAGxdCPkwpSq7ZXBude8W9I6+Os8OhFMRVCXuda49Yfeeyvr4B9bQ49byyyb4Q0oq42Chkpidh9PBBuPzi83DlpRfaJ6a07ZqjV3Q6Wk3wR9AZ0hzWrXGDgVzrkRN07KhjF6qTE0+ZkuVneQUlcxnyvpx5MIGg7fI3LJ9BBAZQUA1G9JHqNr17Ksd8VF+uTXTk1SVEQ3DaAUvVnUYgzMvuOHJ5CFq29a/QyV83XYsUFRbBYqpM1nLMufgdcUO/jjLIT3GJgEfmAuhMeanHd3ZGg8I6NvJK6apdSfG5fjNoYF9ceN6Z+Nz1V+Cz112KKy4+1z4knci2or6lV2MsMhEk0+5cnTaRhXIuvVjSrMVOqi/XP5Un0yIv3OD2yIZq0uMIQ9hB1Pz07CoxPhYpifFIp0uJi0YiG3oShWBaXCyyUxKRl5bMYwLS4nmPHSW21TVw14Fc4w+7aWe4rt5mU4D6ALB2IkliHsnsUIc7IJlmT3Icz3U/PsbC8xY7jtLoDOXGDqV0SWdyQrx9RDiZZdFnnNxCe1FGMLIUvvbGSYmNRRrDpSXEuQ8AS+Cxgyp965R2hH2wN4VhUhPjjDf64LCUBgOb8NTm3VIUojM9OR5ZqYnITk1CelKclSeBfIpDMzu/U5YhvRIS2nA8ifFSExg3kbRweJ0U3YpEOvE/MzkRGUxTixzsFXOjzwlAxU1hGbNSkpCj7y8mJ7FMMczLCRonYEJ+haKJvyx/wI32+9q+bG9hEebTynrhtXl47rU38fzcN/HagkVYuXELDmlnHj17ZNj09DR7YX7m1KOQokUX9FNeqhvVbTyZlkR602zXn0TkULHqqPIlxbbRgmgi/xtZL+6DUuGgSbyOJ/3J5LX4rbLFk7ex5BtZRP7Hk6/JTC8VGWyLkXWm+E7+kzv0C/b6sbI5+gTmYwWXr37JQ4bVDjgp8axfOrUF5a2PU4cqqkO8d0LgZfwLnH47uEvwVNdhXglsD6lJ8chkObJTU5CdzL6kfkblHGttxA1waGMxFo/qY6zopJAnbAhSQHEMn8BCpdIvS30yPcXaShLDJigvphMjK854IzilZ/1E9+ni1WaZdwZpyGYaWWyzaWzjrDamz34vWtUm1e6Zb0JMlJVBz1v1QeY4nZMOWc9yCao/0RXTFqShNkEetrp6sLogP6QA1RcUN5btPC66hf2KbYXtJJcug/xJIv9jpSQZTopWbfZIh1+kc4RC3UaCrVePbrZjS0pSgjXM4gN6CX0X0lLT0LdvX7oC+/pDfW0d9u3di207d2L3/v321Xq3GbLbko0/hOsUkXBKoQ25OTkYyPSSExMDISQFezjctetWilVcUsr8dqO6rsENgi2AfpSZUwRpaSkc1Q5En57drXPW1dVj6/ad2MEy6MO2+sgyNZopjx65ORgxZDCyMlIZu81e7N60ZSsOlZYzfZYjmuKbPEigZB4yoD8G9etrCriW+W/ZtsNeCFfO+mJCJgVdj/xc9OreDT3IwxyWT4tCDh0qQWFhoT33Kz54kLQ3kg5XYpVBylXPyoaTjhQqdQmT4gNF2L13D5KSU1BQ0Be9+xSgsqISi5Ytsy/ISwHEUnhksB70tf2+vXqgoHdPq5eq6mrsIo927dqJ6VMm4YbrrsKggl42xfj2u0vsO4ZvLVlhH5oeNnQwvvb563D2yceZcBOvnn3uRdx6+53YQJ65IY8T7j26d8cVl1yCyy88F73ys1XDaGpuw32PPIFf33YX9hSXmkiPoaLJ1NdBcjLt+5j6LmT3bt2RwLK1NLXgQPFB7NmzhzzZjwMHi+1jz9rxx+qFqeo51tCB/e2ZqQYc9aRp2/ZtqKqqQnfS0K9fP/Tq3YuDuASUlpZhJ+tVn6PSp7dqaO3a1CmdBOqYEUPxnZtuwGmzZ1j5pCa+/4vf4n/vuB8NURpCRDOPaHTLycKg/v2Qk5VlfUCoYH4btmxG0YGDbNNBfamFkSFWb7pi/fbKz8N/f/3zuOjsk43Hwk9++Rvccs/DqGlSe1N/cDzUgC0/O5t9rCd69+yJHt26IZ4KvqKszNrH3sJ9LMcBVNTUopHENge0xLAdDh4wAIPY95I4+BPUJw+yPWVlZqIf+1GfPr2QlpJifNKmEeLL/gPFqKqrQyMJln2mYbAbCGtAp6/RJKM7+0AB+dm3T29kMi3NFuxj3ezYsYPpF6Nb93y25x625WFLcwu2bttu7T49PQP5eTmYffR0XHL+WTaNrTQPsB3c/9Cf8faiRahn+zhUVmmffKtraMLgQQPw39+4CScfO5WDP318uwY//H8/w9z5byOLbaTvwMHo3oNtlfw+dPAQtrMd72BZDpWVo76xyW18QXckI2wjHkcQ1A01upVVNHHcaNz0uRvQu1uufSJo5YrlWLtmDcaPH48hQ4YgKyvDLLlWapuqqlps2roFz774Ep6bO9e+tWf7XjJBex4lydAFtGpy3OhR+Oynr2On7+OsHapXJ447ILoCUWTPc+YtWIib77wPmyi8tf4hckDplI0sm3TMmXMczj/zNGRxNF1eXo4nn37WOq32JrWxNCNqazB9r+/G6z5FRd1bnlizfoN9kmjeWwspUNwUsBRWfk4uLjj7DFx49lkmQLft2IXbGG4PlZBWgvalEjhx9rE4ftZMCrJ+yMhIQzxH3CKvvr4ZZaWl2LR5M159/Q288eZbKCKfmiS0GEDfbpxEnn/++k+jDxVrNEf8ixcvwpq1azBq9GiMGDHSBNfSZStQtG839u/fS2si3p4fHn/cLJw4ZzYGU3Gn02KVsG1qakN5RRVWr16Fhrpas8DCXWQPs4Iccw06NV8pFntmRtuCCqQpENAKse9guX0X9JhpR3FgQQWpoLwfLSvLwlHo8nwgaTmF/D9u+mQMpNBWfSRxsMUmY4+V6jlAOMSByPJVK/H0s89i4dLlKKWfCJASyclMxzlnno7zTj3BrOfSQ4fw6muv2SeljjlmJhVBH/vGYiylcVNDs0trxSo8/uxfsWDJUlRw8GIfFmZ6zlrqsB5Vxo5r1i3p7sMBxkWs2zNPPYUCP89i1NTW23Z9+4sOUODr48uK4XjhuBemJOjc+YbgmMe8XF4sFfNJoWU/fdJ4nHb88Zg0YTwHDfkcDMRayo2NLaaQN23ZgpfnvobX35xv38YUw1SOxNg4zDnmaFxx0fnIZ//TRvbz5r3JtrAf48eNw5DBg9nmUth/o1n/LRxMVWHtuvX2bcp5C95BcWlFoFwknjW4ArpRMR4/+xicPGcWRjB+tvo1B4Kqo+qaOlOQCxcu5ACtNyZMnMg6TEZdfSMeePhRPPzoo5g5YzouOP9cDOhDRZ/D9s7Cqrz5Wem47MLzcPppp8gWxmvzFtjK4e279lp5FCZ0UqhDNfAcMBCTp01DDw4Ek5KSzL++romDhUNYuGgpy/E8Vqxdy7pt4oBDrURQCkce/CKdIxHWYtl9aAmNHjYYp8yaht45KchIiENPCo0Jo0dixNCBNv0Rz06oaT1Nr6SnxNv3Bwf274vGetep6urrTVnpOZNLulNDZj66NWTgAJx43AwK0WxkpcQhMyXBpszktEpSx3S6NPqn0iXT6VuI7yxeapZemL4Dz4PLxsZG9OSofsakseibn2ZTWI20dtetX2cfPJaKUNDczAwK8lk45bjpyE2PR1pirCmY7Rx5S7i47dqkmtswnLSeffIcjBtG6zmBYWhZvPrqaxzlHrDvNF564dm4+rLzMH74QJse0nRpHDORIEqKj0YehZcGAqOGD6XlE4e9tLyrqqpNwUvBjhk5AscfcxR656UhnUKzO0fm48aMwegRQ5CXmYIEKp69ewqpOJegiEJx6KBBuPaqK3HVRedixICeyEyOpxClNcQ842OjjGdSVIP69ycfqUwkhVmO3fsK8fbiZdi1r8isIlnxM6ZMwPBB/U1Qt3DQs3nzViym0tKo3SwxckB/cbRchg0ehKNplcpSVh1X07p7Z8ky+wCxrPrU5FScf845uPGaSzFmSB9k05qX1aQpbqON/Egm/7JpsevZVZ+CnigpLTHrqaml2QRoZmYajj16KqaMHW7tIoOKZQitp8mTxqFvQQ/bg1ZtT2lqajAnPQWDmVYP8mzPvr3Yu79Qe4iztFHoxrY7c+okDJZ1IxYQb739DpYsX04FH4Ue2Vm46MxTcfVFZ2F4/x5Ip1nT3NKId5cuxWNPPo51mzbRkms160vpuXamow5u+j0tJRnHzpiCMew3YR5vcyCnVaz6ULLy0TuSp500B1+47mrMmckBRl46By6yXskXukSeZ3CAM6BvL4wePsy+0KJPaFVWVjFfDVxjMfWoozBzyjj0yEy2afsBtPomTxhrZVPf0dSnpjf1KED9pi8HUH169caBoiLspsXexPasgaueX/bp3Q1XXnIBPnXFRZg0agjy2WYVT3XELmDTqb175rG+B7B/9zSlJ/q0YnUdB24rVq7EmLHjcPycmejdIwdJbOgxwYBAg6T09FRk0yrPycmkVbwfi5evREl5Ka+zbTHPoH59aCWyf7BcAwcOxIRxY5lfdzetLRrIE/WhvKw0jBg+BOlp6di2bSf7fYnxw3ol68HJFrkjByyax5EMNTdVohzbui3KyGZDbWpuQllltX3NvLKqhiN6CTSNAqPQj5bCcRzdaxrInjVI8kead53BW1oAcoiW1YGDpSik23eQgjJwe+U4cpfbo2Pgf4gj4yZaEpYAnRtLOgszPNY31GPrtm208naimbfZB9GrZy76ksZoPfwwywEUEr2omNj5qOQ14ld59drDcCqBnt3zGUbPPtyzxX4MKytNArCBo+gtm7ZiJ/PokZ+PSy84z4RNT1ncvK/NqvUy+i5aALv3H7CX0hv1oVvmKSFwyYXn4mKOsLvl0QqLap+4izjCLNCcnAzzq61vQGVNDY911B+tyCGNJ8w6hop9BrpRWIomTX1VUuHuP3CQCuIADpaW20ee9bHeeAq1jpW7co57naE7EuapFPg9WP5+tAwG9u5hbki/XrR+xuEkWhwDaG3LepRFt4kDhRWrVqCistzSqK6pxZo1a7Fl23bUNjSh1L6MX4ytO/dgGy2I/QdK3PQ4CUiMi8Pk8RNw0fnnY8SwoSyHE3e2WIVO9aHr5MR4dM/PptWYbBsdlJKfJXR6uVzfvVQgbYQwZvQIWjVTzTKyugv4qbK2O/4obT0/69UtD1ddehGuueJiFLBeFKC6tgHz316Mu+65z6az6znYUhyLy8R0fD8or9A5qBzatzXaVndefN45HCANJq3R1h4OsD1v2roL6zdvx449+1FeVWuvRvQgXReeey5OOeEEa4/RNCFFs9Jyi1bcNF1GWjIt0Hg0kcYK8tn6ZTXTIE8UhuMQjBo2CHOOnWlKTu1E8bWx+nHHHovTTzmB1nOeWWt6r1XT68UceO4uLLZ+V04rMpXWv5RaHAd1VjYxI4D6mRR4Na1t1UP4fFBlqGLdlLKvalMKnesVjmaG0T3jpYUkPRxkZGZkIDY+wcIdLKu059x6hGHfWGUYPa89avIEHMWBWQYVr/qE462r3yMN3oI8QqFnYXquJQVx7PQpyEx1Cy+kPMora7B01Xq8/NobmL9gEXbRmomLp6WXnmEdXh8S1pfN9Sxo9dr1UkFswuGyn87NmA2bXo2NDdi9ey8WL1mJt5jmvLfl3sXrPL5B9/qCd3mU4/WCxby3GO8uWY6du/dQCTWaJWgWDhMLhZdyktJU59HHg8eMGI5Elik6JtbirVy9hpahFEc8jp91LM4/41Rb/CIhobixVCbNFETbtu3Ajp07La2czEyccvxxmD1zmlnYmzdvw9PPPIctW7dj9qxZphx7d88yXtVSwK5asxlP/vUFPPzY43jtjXnYu28/EhKTkUtrJSE+lpYwLczkZHu2sm37DvIuxhTE9KMmIosWl9IRNJ21c28hrZ3VWECrT6PwzVu3YeSokbj8kvM5GOljNGtKbev23Xj2xVfx4COP4/mX52LL9j2IjktEFvOUxaryiU+7WW8LFi2l8nYWZF6EBWkClGH09f9hw4bhWA545sw+FiccNwtnnHIyLj7/HAr6sbZASUJqPy21Z5/7K+bOm8+Bkz4CHGv1oZe/9XyqvrEZr8x9A/c//CjuvvdBPPfiy1ScO8n7FORRiem7iXp2GxUVQ0Wxk26bCfcMCuWpUybaTIasIvFDAnzv/oPWRl5+fR6V1wp7TqzpW9GrsunTYI20gDdu2W7PaTU1qSlTWZCDAgtSbWThokU4cKAYF190ES49/ywqiVyWG6iqqcfbi5bjngcfwuIVK2g56tWVcGmXMdCcfgW1YZ3rOd6x04+y1zyUhzA/sCD1+kvvXr1w9RWXYvbRR9litEYOHFatWY87774XP//lr3HXvQ9g6fJV7D7x9qxP08dyxhcOxPazLLFsv5MnTsCksaNoPSYYT9hM7fme2sfLr82jYl+EvUUHkZKaRuWZalPfWmSUnJyC9Zs227N7qZzRo0fhqssuxLhRw8ziFKP27T+EufMX4rGn/2qbKCxZsYqDsloqyAwbmMgqtHogf5euWInla9aglor5UGkVy9OMHLYz262I6ZVXVdmjEE2tLlqxluFXc4C0y9pzpAUpa1XZi0fbdxey37+LV994y8JXVNcjMyvTPlCtUIkscwUHgGvWbeDgT1akYqoudDyy4BXkEQmntDTaHT54oHV4rWZTp9Ay//kLF+F3t9yGJ559zqbUlq5ciWqOVocMHkAhm2lKNDomDlt37MKCd5dYR+x41aNzI6baoQKrrqnGrl07KAQ2Yf3GTVi3eTPdFrqtdNva3Xper6egUCffU1hIyyj4OoKlFQovTenaJdGG5qYG9MjLxbgxw5FJpSMBU0iBvlx00xrr1bMXTjtxDqZNHGNTdZTAJnH00d04jma1SGHVqjX0bsGxR8/AZRedi97dstHc2IIXX34df3niSWTn5uH0007lyHaCTU9JKa+gUPzjbXeQT89jPRXoFgqGVWvWGa8GDRpIxZBtJCYkJFKp7bBnZ+rkw6mQIhWkdqlZvnqtPee856GH8Pyrr2Hl2nViMk499WQqrWNs9a/C7tmzD/c99Ajuuv9hrNywEdv37OUgZQOKiopYzh5mPWghivLZRYW7YNEy7Cx87xSrhLtmA9IpXHvTauxPSzF0vXt2s5fBbSChAnB0v27dWvLiZVsARRnJ+qBdwzRlWezcuQNvzp9PQfm2DZpkAesrI5tYlxXl5RjQv78tLlJSqst1G7dgFcvXQMsqU5sX0FoIFaTClJRW4OG/PInf3/onCtE3sXDpUqzbsAkZmdnoP6A/krS4iQElhNdt3Gw0NZKHoYIMp1j1zcw95M/o0SNx3tlnokd+DmLZduvr623lrvi9kMq3XhYPY7h3JUWBm06NFMimIOnSU1MwmwNKWWuHKchVq+wZ89QpR+HMU+aYIpblt4tt4t77H8DLrFM961SbO3joIIrYPvsV9CW/C8zCTU/LwAa2+41s98po0oQJmEAFmRooSH0j9EWmcfNtt9u3P99ZupyKne2JbX3gwP7W7kVtQlKKKWspF7Wfk086CSfOnokcWqCip5RK7tHHn8af7rwLb7+7CJvZh9cxz2VMS4OvAf360pJNszybmwIFyYHmFrbfpctXGN/1iKBbLgeJDFR08BDue/jPuP/Rx/DWwnexieFEq55t52Q7BTm4X2+bYhUKD5Ti7gceIe/vwRtvvcO6XcbB0lYOLHrbwiGtSFceGnDp/dXd+/a5iKoN8leDY50fKRAfPY44qIHRudZm0GhbVto+CtpXXn/DOl8tFYQ+wFtGgb9q/XpspBLQajtFlZDSKspEHtVwzSmhw6BUHbTaMYGWVBIFTDI7c0pKauDSnONIODU13VbPpjFdvVZgrxMw/zCZ0HIMU7Vz+ml6cS3pW8WOLGWcmBCLMaNGUMCMsZFrQa8eGDKonz0jbKEwLD5UzI5dbEo3gwJ6GAcJPbvncSSeQmtqMAVXb2vYel62bcd2lFdXof/AARg7biSSk2JMcTTUUTiv30RBtB7VHFQ0MkZzVDyqGihUVq/DCgooCUzxJDM91VYLa+FGK5WwfYiYd3RP7uChElpcr5jg03RXPbV/c1QscvO6Y0DfPkhLircX/5XgO+8sMuushCNs5dnAFGqbWygUV2H+WwtQVl4RwfUPhnhVW1trKwgL9x9g3TtXSItL07aa7m3liF8WxYRx4/Dpa67hAGKm7a0p7qsUsgjKbCq8mXwrwORJE3HMzKMx69hjceyxWmTTy8ps+6awsFqwpU95aQcWU+PiESsx5IWIX7lqNV6b+7ot2mjRB49j4rGn+CCWsX7386gPJzNbW4Wan5tri83MxGJk9+egKeTjjj0GZ3KQoZWrUmgt5OHq1Zvwl8eepJJea1ueuZf73crVDuUodHAyPNNROYWwcPwhKxEXF48BAwage36+5aU2VMkBQgbbtBTnLNIieo6fdYxN49dzINFAZa1wuZkpGFDgFjmJGy5/l5/a6a59ezlYeB1rN29CDWluZJ0UV1ViwbKl2LZnj4VR2PjEWCQmkrfkWyIHZj2792C7VpqO1hXLl+PlV17l4LMIzeR7CyltbotFcWkl5r75lk0B61mqlZcRFEfnJiqkuWwQ4WhyYeyG8c8GGHTSnK42OoEeb8x70xT9/pJSNDBqI/v35l27bUCoQZXiiB/d8/Oo9FONj25YrPbznhQ/9lBZPI5YBAKFDU9NT436IBvu7r37bI1pc3QsmtSBKEAqOCosqawwy80aMY9x1BQxdG7rMJdGZ6hxS6H07tETp554Ii4+71xcQnfZeWfj8vPOwhXnnYErzzsVV517Cq4892RcwePl556Ky849HbOmT0YWlYsQClNBXTJ00ey5+ir7JirvBe8uRVlVrYLYgpWpk8ajZ14mR/v9MYJWk0bQJaWlmP/Ou1hOS0+rH1UOjVwH9++LPt3yMHrIAKRTISntQg4WduzdizbyITlVyjy5vcFXVlXZ9xhr6jTdSJ6YgKUVQldkPDzAUbB7BiMZomnGfApOWRBa8KF0wjJs37HT9k21AUlUHPOLZ3pxSOFAQYMFCQmhprYBe/YdwMGychNGei1Ar2ZIWOn1if1UtFKcUiAmwJi4nPimfATRE7oGDizeXboCP/3V7/GVb38PX/rOD/FFuq9+7//hFzffib++Oh/baYXW07JISk7FtGlayXg+hg8ZQpraqLTb0D0nG6cePwvf/9bXcNtvfo5bf/0z3CL325/j5t/+Cv/97W9iCutB039WXv5o8YcWoohvWnylXXlCgdpCRXfw0CGUVriFWe6r+zEgCajVhga0OqWMhMREKlpZWAxnaTMFd3ROU+S9enY3JSp+K55CqA6iYznkkGK09qP8FSLktEO7YOZRfxrwaKs9d2Xe7qiQPImhUrJBI+kKaRg/diy++fWv4n9/80v8gU7H3//mV/jtr3+JM047GWkcNAaJcECUa8/opII6Xpp32EXLXDMCepVCK1SbyBe1NU1FHywptzpXMgqvMSUTQBwHr5re1+DU/BmgmAOMErYfKUEtRtK0crPaEkPoFZFqKuwmlrGFEZSeI81i29H1dfrLy3ydOlf5xUOtam+hkBBfI8Ek7bmkVner34jXmqbXHrkNza04wDJU1LAvuQyhd7P1OMdSYVrihnuUc3i6H3eE8sLjiIXr7mFnaGhsoCCu4zlFgwku1zBlKdjDeYYJm6gNKF0LDlzXkAAbMWwYbrz+U/j+d7+EH3z3y/jRf30FP6b7ibmv4v/919fM/cTcV/GD73wFl154rk3NBV3T8g3zNqHPjhNuedDQ2IzN23aYopQgk+AcMXQwTjxuNiaPHW0rC/XMS1/hf23efCxevgoVVTWWXu+ePTBy2BAMHdAPgwrcijstxd+5Zz8VXaEpoSamGS46ENw2ZLp2AtPBcdK6c0hoAFlrCiVeyIWQnxRVQ5NEnIQGnW0z54SB1YMCErb4hk7CR/FUbv0LkkdRtM40eu+gpgNOSUb6yPoDDlCpLllJi+3td/DqW85ps4Db73sI3/reD3HLnfdiO3mm9GO0Anf0SNvzNSUxzlaUnnP6SfjGTTfi3FPnYMzgfshNpZXcWI+6mipUVVdQ6FWwbLJzVXaV0NWjJKqosel5XQZHvZen6fh6tkNHbcAHEuBUVUS5mJBrG86FiLx24fmn/Hgh5TFm7EicccYZGKhFZrzvnPLnn0UMOS8XDEHMQg3rup2CAAxJJRPFxOVCK0tobmlGbV2tlamqtsaO1dXiTRXKae3rtZUDdEW02BvYvqJiGTdQQh20sY1oloKjhLA/msKgIlK7b6T1fjhFvGIa4ntdfY3REPgihwO1jMwMG9haUeWrdkwrP4mKXYt69OUShbWyMpA7d9wwDxfREPJfUBsT7GBtvCOgLrXAqIblb9aCP7tHnpFXOmqKvFlaNED7oEeVRhw+XDhyoNJ5HIGwxtdFe9OUmqbE3ouOwB3N+G/BdSqFl3LSQ/9WjoDb6PReZeja2PHbmp1rpWumn1bCaTpUu72Ewu2DoNv79hdRQe5gZ1N3cpbhibNnY+zw4UiixaCX0Ndt3IRlq9Zg9YZNtlBEI1YtFNFIf/rUo+xr8YKWmK9bv9FeHCc5tBQbKOD0zp3jRGpKCi3CXPcpH+u+Nh6nAmhBfk4WLeY8e0VGYVUGWa6HSvTayeEF0ZXCmNKMrBCe1tbUoryi2qwnhdPUWbe8HJuy1buO2vxAO49I6aRQuOVlZyMjOYXXrmMeJrwCJ0TkYuLfWZyuBKag9bI7raHy6lrbY1TPTwUpuIzUFNsQQAtQxo8ZibNPm4NBfbshkffqaQEsfHcx7rr3ftx8x534w+1/wt0PPYQV69fbcz6VnTXOlMTESCo6YHWtgQiDHM4pIvCwmF1Hfw/U7ooPldrqWq2kVrQ40n709Ek44bhj0S03214zUMmDlooYmlp6BSE3PQ3Zaam2W5JWN7vW/B6qHCjoNV1bVV1j+SiU3O59e/HUX/+KW++4C7f86S7cfNtd+OOtd9LdgT/+6U7cfPtd+AP9fn/bvXj2pddQxAGLWdQkNLKfOb7oqBI4Z1s9GqM6VEd4V5Bi3l9URIWsT3ExGG+MHjPKnqPn5aSzfbYhIboFiTGtyE5Psvdz+/ftZTNDoWB35VA+bjAT1F47RIPaWwwDONUdhuockj5Ga3BBiHbzcxfu2CXCEh15CPnocSQiok1ax9L1+7RTp6QiIwRd8QMbtiCREm3PF9Zv2Iblq3ZQQW3D0lVb6DZi6coNWLIqwq3eSMfjynXYtG2nTWE6/I18KKD0LGwHLb7yalnAQK9u3TFl/FgU0AqVVVhWVm4LIfYeOIStu/Zg5bqN9omiGCqyqUdNwhmnnGTPPaTEd+zci7Ub1ttydD2j0oKklaSrrt59hSApJRmjRo3AOFpUWgGs7b70ont+RiqOoqAZO2KIbb0l4aHXZPbtK7JdT0QXOclfVyKxzz4nxROx1Fky9KdfUdEB7Nq1lwJXn1Fyr7DMOnY6ldIp6JaZhlQKshQKc20HOGH0cMxgGfKpvJRnWJ9yXSlKu1aeVEaxzDielmcCNaDeOdRS++T4ONstSNa1nvWFcfQMUauf9TqJBiB63iZIoOs50m133oPf3XILbrnrTtx+77144ZVXUHjgQCAuGUgWA11gH1jczhAv1Nbee9f5yVmZuo5+GDTAeeiRx/Hr/70FC5evRK3eD6R/VmYqrrn8QtspKJd1FtPabNvbadpY79WeOGsmPvupK3DtZRdh6vhxyCEv4kiTpundsCcCAVFa4LZ95y4q5ENWh8onPiHJVja/8OLLeOihR23wcOd99+P+Pz+KZ+j38ptv4dGnn8Xt99xnMxt6pSXc0ag9G16oPehobYQ/cnrGqiAW9jA4habnwstWLLfV0JreVLhePfJxxSXn22440yeOwcSRw1i+0bj8gnNx/dVXYMSgAfa8O3zPsSNtR4w2HNdrRkpfSExKtIVeei9Xu+XoqMnzcCvKdlh6olv1H6QclMVdBwc6xbJHEZoN4UVEKkcc1E49jkiEzde1StdEiaCBtiO40X6f+LsaLFu9FkZodef/+9Wv8NmvfBk3fOnLuP6mr+DTX/waPn1T6L6O67/0DdzA4408fvHr36XQeJAj8P3WSdxUzPtDNGmp+sZNW0xI2TRrQjxyKdy1JZdG3zt37ca6DRvt3UWN1PXcb789D+mwjLQvqKaYly1fgRWrVjOdNlpYbdi1Zw8WLV2KfQeKbbq1mQwZM24srr/2UzjvzDMwgSPziWNG48JzzsTlF19gW9qJYk3LahuwLdvcaw2RAuEwdJYEDFJRUYE1q9diB5WzlKhua0cdrbK96pILbHMEfaLqrJPm4LPXXo2ZVJB6Ob+L1A2RylJHKcbstDQM6dcXY4cNwbhhgzBu6CBMGD4ER08ahwvOOBVXsSxjhg+z51eKV0Mel5VVmJAMFZ3SEm1x8fG2yMRcWjqts3xaJRMxdPAQKnepbYULqNPh/QjtBBeUvzSBQhZ1Pjp0JCp/uXnzqYCeeApPP/cCHnnqOazevA11NsWnr01k4MyTT8BxR09DRlKCKcAsCnt9U/MH//V1fPnGK/HNL34G3/nqlzB14kQqgGizlNqpiKBf7VN31q7fYKtC6/SslP69evbE5ZdeguuuudpWLg/qV4AhAwfaYqfPXP9pfPc738JZZ56J/LxutFy1007wx7LagFWIyOeDEAYPoWt9Wuqdd5fgAAeFpmQJbdrx+Rs+g//99S/xpz/8Drf+7jf49le+wHoeaKu8VVNhOwnhYkbZIjBZyW5QB3tmqhf/x44YjlFDh9jGB9odSQ8LxKcwDcXvuArgPO3HpX84zI9RPmTxP5YQHz2OQDh5rE6tCTpNjDgrQJOr7hlHIAYoRNVAQye/0DlB74Sk++sCDKhnGpp20grEPUXF2MNR/Z7iQ7YpwO7iUuwqLsPOA6XYWVRibvf+Q9i1rxjFJW4xAWi1WH6G9twN4ZWcNhXYsWcvNmzZgZoGrZx0o3iVVS8jb962Czt276XCi7a9IvWupEb3uh8JLcPX6lW9CG/x+dfCEfGylavw8tz5OFReY5sSxMXHYtrUifgmBeivfvwj/PJH38eXP3sDhel4W66uUfu+okN4c8G7tEY3tVsGmmh0FAcwpcmu1D4IUI4MRf9Fy5fj2ZfmoqhEloULMpLW6eevvxY/++H38auf/BDfZv7Hz5yGLFqSSjZMXWk4IRXpHHRMpEKbOmkCvvHlL+I3P/0hfvfTH+P3PP72Jz/AL7//X/ju127CnGNnIFXpMkJ9U5NtCrCFFklVda1tfaYVuIFxY6+vXHvNVfj0VVfjivMvxLduugk3XH01BvftZwpWcHQpd0ePe8nf0SNY26PF7njhfMO2Zb+BklQZQxHsku5ogWH5VUfbWMe7CwtRzfb39Asv4N6HH7X3eiXgxfYhg/pzUHM2pk4Yj+S4GFt0NGLIIOTnZNqsQwJNxjEcMIzmACJFq0MZyZXBQTkapVKcdLvZ/l5+7S2sWLMVdfVNtqvR4H59cPWlF+GnP/gfW7j0R7qf/vB7uObSC2ipTqM1d7Z9pzMpLs4sets8wVIPy6liM196dtzhOYkI6Qih65Am8byupgavz30DL706D7sKi9GogQ2RygFhj+55KOiVj57dsu392arKGtTW1jNdRmQiJg94bhY94+h6T+E+9qF91p8VRs8yTzz+OPzkhz/Ar372U3z9Szdh7MjhpmijWZawdkS7648h/zrqy525yVmFcU73XBvQmWK50EcWVAKPIxBqbloM0tLmFoWoUUqguKXfrrG2Vy9PdaV+I2EYNmAnyGIoGNiI1QPeD+oRJliYtsV3T+u0OjbSaRNrHd0L205Qig4TwExfybwX8pdCV5pRJgz1ysOB0jI08m4TneyFbbv24O1FS7H/UHmQf7TtQrNx6063elR00ck63E5Lc+OWrczX8UD5Skjt3VeERx97Go8//SIKqci1aELIzkjB8MEF5nIy9W5jm73jt7uwCI8/+xz+/MTTNiiwFYOWlhM4xk8dyZtWK6tiOj6GeWrK7ZV58/HyvLdwgJZbgwQcb+qF9UED+mLUsMEU6llopVWkqdy6xkaWzZXZeMejIuhMLjJv5ZRNq3nYkIEYQ6U7djgtyOGDaUUOxOCCnjZ1rDBaZVjOwcLKtevx8F8es11n9Ix42YqVmPvm2/aKQDOZl5gYbytWb7pRVtdXcMm556Bv93y0cHCiZ80u47CduFozxWJXrryql+agTdorA7orWtXGNJijn2t/rr7UNuw+D0rb2hhP3XNV16a1D65WatZxtDX/nUV45Y0FHHxV2spKbTc4dfIEexWkX++ejNSMJn0YmuUTpGSaG+rRFOxspLysD+jI+zwE9PGHTlvozXtrAe778+NYtmaDPcfVvsL6MseAPj0wftRQKtxB6NUty6Yj2YiQRsWbma69VcmTNg7f2lRXbhglZ/3SzkNxq9IyhDK3zuHCieKQJoVwi8FibcOGO+55ALff+2csXLYG2qWqglZgJZVhBZ0eTWzZvhPPv/QyB3Ibrb5D/mkBkM1ekH/azH8PB0Vvvv0Otm3fxTbeYgPYJLaTQYPZFkcMwPQpE6ggR9j0fIx2jiKRokerYpvomjlY1sDPDQodndYmmLZKrXxd3pIVLKOVwUpr7kiD3yjgiIWeYUSjr3agGTUcMRwua+utLTt2453Fy3DgkJbZS0i5KTQJ5OHDhqJvv3727cCqmgYKzI1Y8O5iew3AjXDVmF2Dfg8ivN2YsGu0p9CeXtAp7NxBXa7LNOilqb8Ejob7FPRGRkYGR/EN9kzy5dffsg2uK7WtFTujCVqGzcrKsjKpc1bxnpaav/7WQrzw2puopbaUUpPyMkubHba0tBQbN22kgKlGQmKqrSRspXUpZalXECoZf//BUqxavwkP/OUJPPTYE9hddNBel7GVjnT6QsXw4cNsVahez9hIy3bhkpUoouAyPlrZnFPpS0tL7KsKqh8905K/FlNp/1gtHiqm0l+xaj1WrF5rVmtsQoK9EqIt395dthL79hcznWhkZGZi1KiRtjK4jvdlVWsrODmlo52B5Gf+FJyl5dVUfuVmdS94ZzHue+jP9pyssq6Rwi7O4mlVcAOlZEaG211I73jK2q6jhaFtBZcsX4Fde/chLjHJViqWVVRj5Zp1trmBprL1LuzIESPRu1cPs0rKqeSXr1pDC2ydpa9FQxqkqL779OpluxBp5xm9o1leWcv0V9luTnqxXDsJjR49Anm5uahTGejmk+7la9ZT6Lp6rGK9HTpUioz0TGRnZduqWW1GEZ+UQv6X2tddtLGDviQSnxBvfFi0bBWef/Fl7Nizx97lHT12DHr37mVtSwu35i9cjBUsTwPbgupYzyI3b9lsU/pS9m0xcTxKebbYAEezF1VsJweKy8iLjXjsyWfs3eNDHAApvr6kMWz4CNsAQPpP5Vi7cQuWkI6S8irXL8UTthWtPJ04YRz519PoUT2+tXAJ++YGGxCYYmPeWjm7atVq+7iz3oHUBvo7dhdiw+adNmj40113Y9nK5RgzejQG9qfFT9kgHs976x0rm9JSvkLR/iK2MyBddU5atRuVVmErb1O223Zg/aYt0IresePGIzcvx9KqYH3Ne3shB6XbGEfDNZXDtfKCPhxgDh2MpKREq7uSskq8MX+BfShACtPKwZCuXxw58J+7OoIRw06gz/5Mn6JdXWgtsKFrg+uFS5bbDhnhlKCaZCaF0vgxozB65HDbqUXP9DZs3oK3qSC1D6car0aGrhF3Ar1s0YWUHBMM03x/BCEUKKJ1fbh4rfYMRItzhg0aKLWEBgreFWvW0rJcY6Nxe6GZR33nbmDfAkyZMMF9+ohh6xvrsYyCZMXqdSy/1qQqVZVLT4ZkUYgrzdCG091ycjFmpDZ2H2orYZV7eUUZheMWCu119nknDR6cdSgFqVE9MHTgAOY5Htm212S0TcstoiIrpIIM3wkUVFZdOVHSimRaGr265dMKGUlhMgTJSdqvtBZbKdRXrlyJ2Lg4jB4zGrlUEFIoeynIFjNdWcoStNlUINondAgtT1cOB9FtxPFEVaRctTVgaXk59tIi11SqBgbVtbSGeFf8E2/EE9uNJzkRwwf2w6RxVBxUYqKjtKQEK1etxNbt2+wTXkPJI23510ALV5s6rKbSqqqrR2paOiaOH8e6GmA7yuiVhLXrNtj2bFVUxOH2b7KqtFH8FCoD29eW/NAep9rlRWHFZ73CoPL179uH97UaNYaDvSW26YXRS7pVk1oBrC0Wp2jxjV7MZ7lVz3uKDmDp8uUU5BWYMHY0JjMvvcj/DpWKdnbSc8VEKvTJkydb/HD7ND2bXsbBST0tRSkR+YnemOhWpFLg97F9gEdiANtaGuNryvKQVkmvW8fB1iYc4gCojhpHfNVgQM9rx1FRjRs1wj5Dp74jpaMt6g7RWm9l/1OLUD7an3XG1MkYNnCgWxzDsi1cIgW5ztHDsum9097dutnq1CrWaV2tniGy/q0fMAzPtS3i8XNm4XPXX4exI4ZaO925pxA/++0f8MzLc1Hd2Ebrz+3mpNXTyaxjbSE3gTwcOKAfEuLi7dnkJsqE5atW2YrylNR0TJ06xW28wfSaORjR5vFOQTqLUXay2txADhonjhtrq4qlChs5yHjz7QXYvH2HKVPbzMHuWGs9YuAV5BGOGLZ4KYqoVoo+dRY2RqcYeUOKUIHYITRVEhtNO0o9hCNhikZr4JqSdCNayVd1WbkuEHibony/MB8B1IG0Kbi6kwmwVr0yoJerWS6jkwVgjxS9EmIqjp416SiqZA1KiepVh8gpLYtnZyp1sw0m7GXu4BkaL919SQJTcnJOQOnccrB8yEPet/zsGY0gX6VKsU4PCWtBuTpK3THcUD1Kws0y1CyAS0GQjxuIMMWAhpZWV2al4Px1ppLxqKQVhzcYLUBHesbNwF+Dm/Zn1ApvJaCQZgCn/pUbA3ckZIrAkrPw8lfNKwytER3IY90Tz/QJNCsTr7Woy6bUo+1zwozBMCyzKT3ej4lS+XnN+rQNLYwVWl9KfohHVExWP2ysuqdpQPfdUqZDmowHRrdz4qlxhWmr/VsbCngk6Ff3NXiRklW+xj+jiTxhYXRmMw0MIyi+S8nRonPqJ56LRcYUOl4oT566z8bR0V931CY1PFM55WFcplJRPqJFzlFF3jNR8V8bncvP2h1ptFxZNu3ac8UlF9uuTKs4AFi3ZjWt1wOo1wpx5pmWmoqhQwbjogvOtSlSTQcr9bdoWf7i97fg3ZXr0MC89Tk05aAVro5vkhTW6gK+ujyt3ll3zuoT81VX+vAy7/NWOHXquKz4Lg2VWVsBKm999camd3mtqV2FFVd5aWGPFHgFeaRDwoINzi3LNg9dWUO3pqoDG7zzVSdQx5Afr4IO0WIN1sXuOHbAiR/Fdsd/HVweykJdyRxpV4c14aMOa62VdPBalLgu5+hSbAUwwRJYLnZbRwulU/pKkEvoMQ2nn5ir+rjSCBSW8rHnfZYh/Zm3wlkeQXoSKjpzlChP8dKFENyZu7IQTrry3CgM/IP86DryU1iXpkroHBF6EapDnSp06DrgAumZm4vCX/5bzqLB3aaHs8iMFscAy9/xRYKS1y4BR5fR5uh3iZD7opP/skqMQzzX9LEbQpiKsBjuV/S4sruW564sDLWM8TioH8tD+QZhpMKVptHKAZSB9CgX87Nfd2ZB9PzMeKhgruWG1Lu/IGWLoDLwyp6bujgupIthztqLQnb8WSgerH0qCNucBTK6gvSNVuUvH6coLEX+KAVrE0YH+adTwngeQLsJnXzCHHz+hmsweuggtHC0oA82l5QcQnl5GVNze/TqA9lZGdqoXPnDpqJvvfM+3P/IE9hPq1VT6tq5SVkoeRscMl/lbfTS05VJfBANRj2dflmTrBtNlts9+nRwR/XEqyAN1ZCK1M5z+ikF5XYkwivITwTerwrVtIUPW8Vh+I8LOtPdmb4PKtffKss/yhPF+2f4JLHRdapdU9RVXp1D/jP0hPiw/Ph78H50dZVXVxwJ8Y/y4G/lE95/Pzoj4cIqZOfQobLoGpF33i+f94lNJZOWmIirLr8EV116Dvr2zLUt/6SowpR0tMEST5SKnpHq2fPLr87FHfc/hPVbd3AAQkueylvT3YJmXiLzVBrmlA6PUmq6q1BdQ6FCuPYsRPoKSsPl0vnOkQO/SOcTATXArlyIru515T5u+Fv0db4f6f4WuorTleuMrvz+HoT2R0ceTsB2XB/uusKHCfP3onOaH4V7P3yYsB90T4i8/2HDdA7Xld/7wYXtXHd/O/6HCRcZpsPJKtMWcrJCY2PjbG9WvfuKFtp1dPrGp16NktN2hxXVtdi+ex9epHJ89PGnbKMOfZzApms1+6K4QeqH5RP8Scu6MB/UHuUiERE/wh3epo9ceAvSw+PfjM5io2Ok7fFxR1ci/19Vf27K0j2P18K1gQP6YvSw4RjUr599uUZf+Nc0sqYzGxsbsXvvXvuG6toNG+z7m40t1KVUjDaFLQUZUN6Z/s5lCsvyYcvUOb7wr+LJvxteQXp4/JvRlUDynfDIwL9PGbgUZYe557XOJkuIibVtBfVsUgpUoH600NpLVh8ksIUxDC3F6CZTXez3Q2SZlI7L+cMjMn6IfySdjyO8gvTw+Dejs0D5pAiT/yv499afU2+2iIqZ2lIXKkFbAkWrMKRDS2KkDN3CGsYIp0qDadW/BRf6Hy9LGD/Ev5Yn/z54Benh4eHxsUWkeHbntvCV2ihSIYXosBRNrXr8kzgy1956eHh4/J9AaJvJSVxrsY2eJ2ri9b0unE71yvGjgVeQHh4eHh4eXcArSA8PDw8Pjy7gFaSHh4eHh0cX8ArSw8PDw8OjC3gF6eHh4eHh0QW8gvTw8PDw8OgCXkF6eHh4eHh0Aa8gPTw8PDw8uoBXkB4eHh4eHl3AK0gPDw8PD48u4BWkh4eHh4dHF/AK0sPDw8PDowt4Benh4eHh4dEFvIL08PDw8PDoAl5Benh4eHh4dAGvID08PDw8PLqAV5AeHh4eHh5dwCtIDw8PDw+PLuAVpIeHh4eHRxfwCtLDw8PDw6MLeAXp4eHh4eHRBbyC9PDw8PDw6AJeQXp4eHh4eHQBryA9PDw8PDy6gFeQHh4eHh4eXcArSA8PDw8Pjy7gFaSHh4eHh0cX8ArSw8PDw8OjC3gF6eHh4eHh0QW8gvTw8PDw8OgCXkF6eHh4eHh0Aa8gPTw8PDw8uoBXkB4eHh4eHl3AK0gPDw8PD48u4BWkh4eHh4dHF/AK0sPDw8PDowt4Benh4eHh4dEFvIL08PDw8PDoAl5Benh4eHh4dAGvID08PDw8PLqAV5AeHh4eHh5dwCtIDw8PDw+PLuAVpIeHh4eHRxfwCtLDw8PDw6MLeAXp4eHh4eHRBbyC9PDw8PDw6AJeQXp4eHh4eHQBryA9PDw8PDy6gFeQHh4eHh4eXcArSA8PDw8Pjy7gFaSHh4eHh0cX8ArSw8PDw8OjC3gF6eHh4eHh0QW8gvTw8PDw8OgCXkF6eHh4eHh0Aa8gPTw8PDw8uoBXkB4eHh4eHl3AK0gPDw8PD48u4BWkh4eHh4dHF/AK0sPDw8PDowt4Benh4eHh4dEFvIL08PDw8PDoAl5Benh4eHh4dAGvID08PDw8PLqAV5AeHh4eHh5dwCtIDw8PDw+PLuAVpIeHh4eHRxfwCtLDw8PDw6MLeAX5/9v7z2jJjjM7EN3pfeb1vm55D1cFFDwdQNCCbKNukd09avWSNGppzY9Z78do3sxab6359f6OkZ7Wenpt1OoZdUvT3UN2iwYkABIAQdiqgiuUt9e7vDe9z5y9I/LcewtIkgCIJlB4se+NzHPihPki4uS344sTEcfBwcHBwaEHHEE6ODg4ODj0gCNIBwcHBweHHnAE6eDg4ODg0AOOIB0cHBwcHHrAEaSDg4ODg0MPOIJ0cHBwcHDoAUeQDg4ODg4OPeAI0sHBwcHBoQccQTo4ODg4OPSAI0gHBwcHB4cecATp4ODg4ODQA44gHRwcHBwcesARpIODg4ODQw84gnRwcHBwcOgBR5AODg4ODg494AjSwcHBwcGhBxxBOjg4ODg49IAjSAcHBwcHhx5wBOng4ODg4NADjiAdHBwcHBx6wBGkg4ODg4NDDziCdHBwcHBw6AFHkA4ODg4ODj3gCNLBwcHBwaEHHEE6ODg4ODj0gCNIBwcHBweHHnAE6eDg4ODg0AOOIB0cHBwcHHrAEaSDg4ODg0MPOIJ0cHBwcHDoAUeQDg4ODg4OPeAI0sHBwcHBoQccQTo4ODg4OPSAI0gHBwcHB4cecATp4ODg4ODQA44gHRwcHBwcesARpIODg4ODQw84gnRwcHBwcOgBR5AODg4ODg494AjSwcHBwcGhBxxBOjg4ODg49IAjSAcHBwcHhx5wBOng4ODg4NADjiAdHBwcHBx6wBGkg4ODg4NDDziCdHBwcHBw6AFHkA4ODg4ODj3gCNLBwcHBwaEHHEE6ODg4ODj0gCNIBwcHBweHHnAE6eDg4ODg0AOOIB0cHD4EdH6OE3zbnIPDrQFHkA4ODh8KtlPgzTS4nSgdHG4dOIJ0+ERjux3zcVXT7yaUWxE+tN/hOpts+XFvAQeH3nAE6fCJhRT0z3IfNT5JVGHLwkr1iRS3nNRLx1S41MzHoNIdHN4nHEE6fCLx0ZKPRxnW3Qx7TVbVJmF3fb3w747z8Yaoz8hNsf3bnM593asODrciHEE6/ApATfkupX/z+aaSRZtHXvhe8W7GZohNHWxTMUedDgKdNpU1nfH10vowFbZNs8Mc2giYM+UX6jSMC6DF3LwyKYRck6HlT5Kkt4YjdRykX5jXQp0Ww8iHoX1yTFtWWTcVU0ub/rZkH26ZfhGkNvzM0f6p1GFfG/FAi66OiK/GstiyWwXzTvm88+3OweHjB19g/wP6zTk4/D3BU+ueIpTK9Ihwu3L0aK3djWHPtn++EwrX7l6SupYzN7MhxSaC7QZ9mJ7IxU/6Iak0jTqnWu9m343xS8CWTfSm71Cggb5wG+mQyKGFUr2NQo2EGYlhsC+BdDSAerWElfUiClWf6BCRcAjDmSgGEiS8ehXZjTJWKz6UETVEaCiUZOsTqTI75dX2h0w5TO782CJhwcr0/kCy7h5thwhwO2y7WHJU+UTqg8kQJgfj6IvzWqeOtY085tdKKNZFk1E0fWEj3ZZ8vWTrlbuDw0cLR5AOf7/wmGjbgz9r81iVaWEVuiwpe6bvTbrr+t4MXZHzCNJYMsxDCjsRaiMVliVWNdZci1ZWuR1Evu5DpS1lHTLhLbyUPigUV2kFKXEbw2kfThwYwqHxKALtCq7PLGBueQM7dk7jyIEdGM2EUVjP4vW3b+D1i8skkAj27p7GXYcmMD0cRqVUwFvnZ/DTtxdxI0crMZRBNBJExF+x5WFOtaYfxUYA5VbIEKzsTcHWl0eUPNNzQB72qr93QvTYEdPeBNaSiX9zCjZ11XcDY6kAPn3nTjx4dASjCZJ4p4aZxTU8d/oSTl8pYLWWQsWXYhsETR5emzo43ApwBOnw9wtqWA11mmFOH606nkcCHVpaOtcQYwetFkmsBTTafjQ7JAV/2ChUM/RoFPS7oZtWbjtBivpGU0Ec2zeE/WNh2i5lpt8imfjx1vV1vHF5DYVWnBZNzAxNbqUit/X1/qBIEiJAqmrg4FQcv/f5I/jMkTTCrXWcO3cBa/k6Dhw+gtHBGJKBGnzNGq7PbuBHr1xCM5DAiRN3Y/dYDJlQCb5WDTcWC/i/njmPJ04tIZCexqGDezHVDySQk+2IjVITr11awrm5EgqdFKq+JH3VoRA5mvmjEqxLkO+kt94wBKkDBlZ4Df12T+m2p8ALahT+x/xNPHxkHL/z2BHcvaODPqywFuootYKG4P/jDy7g1AxQ8A+ixtZQH8nIqCRuSlPoZujg8DFCwD+443/qHjs4fHig/hMBRnwt9IU7mOwPYu9IEAdIXLdNxXDX7iRu35nEwfEIdg74MZHxYygBxP11Gp0NtNuWPK01+U5lugXPMCWtIh3p4MHbxvEPP38In7u9n3kkcGT3APr74rgxv4xr8+u0tiJmYNCmS/DLZ2Zc/uw8fjFsfFlUE30BPHCwH7ePd5DxrSITqWN0IIV42I9Ao4BUoIK0v4SBeAdjA3HsnBpGfzqMYJPXUDJuIO5DrVzD1ZksguE4HrrnCL547y7ctzeOY7sSODTdZ6zThcVFFKotlkdDsSwT69snZ4VSwXj83solq151aL+tszFt2W6COe2AYuN+EuRDh/oxEWFZO4uIdTYQDbTY8w7h6vwGri6WUEWcHR52X0w9G7G6eK/SOTh8NHAE6fAhQurOKj1ZOiKsg2NRKtBBPHpsDJ+/cxCfPZqhG8Bnjg6SSPpwz94Mju9J4/iuFAkzjd0jEQyQKP3NKmqVEloiSvMcTqnawdmblCpP5CNy2sO4X7qfRLInjEHfEi2uDVqudZy/PIdnT13CUsGHOq1H2rFMhxbXTQl5sJaMLnnO+xTsVX16V7YGDf3sDIxmQrh73yD2DfsQ9RURCPgxs1TGT09fx0quhYH+QSRYL1F2BILhGGZWivjpa1ewmK2jL51GOuZnp6KN5bUS3ry6joX1OjLpBA5MJTEeL5JAsySmBhLxELK5POaW86i1w7SKQ9usae9bR1uyvxuWBGXVJyPsyESaSIXqSAXpmIcs4na71Q1lp9uYY/7rLBECDu8cxO27MhgMFxBt5xGkxd4hWa8VO3jtwjIuLdZQ8SXMc0hb4d3auonM9WmPNq93z72z7fBCWmwLb9Lfns7NIbfgdbwsvCP7/c4ct9r3Z6Xm8MmFI0iHDwdmKM9vFGeUCn4yE8D9JMavP7gDX7l7FCd2R7B/sIGpZA3D0RoygTISvjItqhoGoi2MpfzYMRjC/skUDu3IYJTn/mYR1UoRtXqLdEvKJVFaxWaVllGBflpm/E6GOrjn4DAeOz6O6WQByfYaSbOJ5fUKfvTKVbx0IYcC+kiQcWNtGWXHD6nK7cOJdhhQ9GnP7ac9Mt/8N1arcTaUkUWXWO6RTATH9g9hz7CfZFHBjYUN/N1zl/Cdlxex3kxiatc0xmhlygKcWS7g289dwH95aRZL5RAmxkcxOZwkMTVJfAWcuryO6xs+NP1xTI4OYHooTFusgDAqiEVDKNeauD6fRbbcYbkipn6sYPr0hHw3rK+tQdVofyKIO/cN4f7DAzg+HcGdO0I4uiOGBNumkM+h3vKZOrMdFMIkwONWG6l4GFNjfRhIBREg4TUo3UY9jJMXs3jurRXMFcOo+pOGwG1EtaB1VsotOe3nFjRELNLfqm+G7gbaVvPm3FzoXvTCb6VtnRlypozeuH2H7feOEMYJOjc+Js6mh8G2Q6Kb/zt8HT4ZcATp8KHAR2UToDKJ+JrYNRTCF+/dgV9/aCeJMYjJWB5pWnPRThFhswSgaZSpLAipXD2f1PzSoK+OiJ/kGW1j52gSu8bSxgLM5fMo1VpodkSS24dHreYKkOF2DEbxuWMTuGdPDAO+VUQ6ZTSawCtnFvG9F29gthynJZNGwx9RjowlxdbREzFz5KNW3dKF+vRU8PYzoatcu+eeU2RN0hklQR7fO4i9QyRIkuCbF+bww5OzuJKLI9I/hkN7JzA9AIRaRZy9uoKnT8/jai4KX3wQ+3eNYs9YjBRTw+xyDi9fzmKmEMJGzU/rMooD7DikQzWESbwBfxsdfxhzKyVcX/aGMT0SksxGqp7wrqgMIsgJmuxfuH8/vv7ATjy0P4Z79yVx555+NGslXLmxjFwtSAKOmgFYG5kfLC/5EcVyBeUKrf1m2xD1lZU6XjqXxZOn5/DWQhu5TgZsVeZiLfYtqXQkD0khqK7VLjbEZjhG6oa0frb6u7BHZoic/yYlHtu2sX72o+vMv717tudjj6yf4nohDNEaX/tnQ+pO0CGPjZcVSIfep8MnB93WdnD4JaG1fyTHnSNRfPG+nfi1B8dxx1jFDHXG2lmEqNQ1QaNBk6BQDyBbCVpXDSHfiKDSiaHRkYKnVdOpIh0s4Y6pIH77U9P4tRMj2NdHq6mTo1VWN2pISswoMpJjkHfx9GgfDk/3o88QiGZ7dpAvtXBxJo8b621UzTBfyCh5kaKgm192UcDoOKUqAiBlmOd5WmNIX3r7aRmaNX1m+QiDiEwZWtanlcSqRqNGzTW75EQattbsoNL0o05irrF8mogks8jf8aPJa7LOGpSrTvJvaIKSJDJRZTWzvpjuRrWFt64t49J8gWnE6BtgqAYmB2I4snOQ1nbArLmUbMpTsvw8mLpj+eRUBFnaCX8D/YESBv3rGPKtYNi/hgw7NaF2kWWhFEYm1ZjXuWizPgNYLrXx9KlZ/H+//Rb+129dxP/y7Sv4d09cx3OXW1hu9bHetyx2P9vKOnus+8E4ltUjSq/uRNzGMZy+Tc6KZ0JJFlmXtgxKyce28bEcxpl0raT677D9jNOfsjGOscyJPdU9QSlMTK9FJZJtc9Z4W7UuObpXbVRzZpKzpw6fMHj3m4PDLwWRyEgmhM/dPY2v3DuOveki0u0VWo0kRmqPBglgtezHGzMV/PD1Vfz1Txfwfz6/hL9+cQVPvFnEqVkf5itplH20XPwkAcah3YI9g3589Z5xPHI0g/FIniRZpKKSKiMYRspKyyB2jPVhx1AUUdC6atN0JAGt5WiJrVU0IEkSooXFFDtUdHaNZA2RVglxukS7SouzzqtaMCGFTJoi4Uj2TLCOwVADaT9ttE7J+IUV1izmt+rUU6tWedpzFVrkKglblMWkrCFQmSWGxCzZ6LpIW0tR9K1zm47KqOd/HcoexNXFPM7d2EC+pbKETZ2mQm3sG0thejBGG40dB5GEyf9nQ1clgoQTSQXbdZIr64Lxo8wvTKeFI+pKiDgDLKu5zk5HmN9m8wOWXaSh8mlNZrUVxPJGG+dvVHBxroXVUhzVdooWf5jXt1SMShhkGtG26r2IeLOIaKti6j7CdOWizCflq6I/2KRrIIUyYq0yImwvDT0rDVOt+uRN4muzZluMz3QybKOBYBUZXwlJ5cG2ijI/taWPMlsatN0awasrka03nKuKDbJsId5DMd4XaV8FQ+x0DYWZrp/3Cu+/eKds0g2xflSHRpauVA6fLLghVodfGlI06QjwwJERfP2BKRweLJMc16hA6kZBVqhAL6/U8OM3l/FfXp7HD06v4dm3i3j5ShmvXi7idSrWyysN5OohRJP9iMVivDEZ05BQC4kY/SNhrKwXsJQt0Yqyi8+l6qT4hpj5g7eN4p7dISrGVYTbZV4JmGUQz7y1hplCgpZMmimJFJoY74/gzl19ODoewYHRCPaOJTCc8MNfL5hZtFMDERyZTOL4rjTu2dOHY9MpHBqPYbo/iL5Ig6RSRbvJspFs9RzSUCMVrEhtNB3Csf392DtCgm+zXHNrePXSBpbrcQwODuDYvmHsHexQxgqukfROXl7HYjmMeCqDO/YO4/B4mHReNmsnX7m0jrlCyDzDa7U6mBhM4ODUgJFBzyGDfpEvyXMhj0tLNZQ7stbsmsifBavGmT+DjabC2NnnNxOKju9OY+9QAHF1MEgkHX8AC2slLK+zUxCJYDAZxlAygGiAlmOjQfJjSix7fyKMIzv6cKfqaDSM/azLvWNpM4GnUqnQYu4YS89PWccp/x27+nHbRAyHGXbfaJz1FUSgUSQZ1TBNi/jojiTuZp3L3T6VxL6RCMZSPsQDDXSabFfWuyzDILNXB2FHv/JP4djuDE7sTePYzm5bDQTQF2ZHiMTZadbMjGhRtCFsyiN2t/RoyVH1og5SKtjCeMqPg2MxHNuVYvunKEsGd+5M4sBYFFP9AQxESZ5sI1+zyntAxKvYtnNzMzzydLhV4QjS4QNAP3r7w5fK0TZj+8aT+Oq907hvt2aQynIsmetVWhHnFsr49vPX8LevLNJShLEUN9oZFNpJFJoxrFYCuL5axZXFHEr1APr7h5BORKgERZAkA18TmWTcrJG8Or+G9YqPvmRkiiAC1fPKz94+ioNDdSQ7GySPOsoNH05eWcfz5zawqMXqVP0aZAv7G7j70Dh+7yt34SsnRvGZ2wbwMMl1R3+HVsgaDk8k8OjxHfja/dP42okJY7k+dCiNh44O4+59aZYzhJEUVV+9iEqpjEbLb8i6RULZmsU6QNLRJB2WaTZLEtzAai2G4YF+HN83ij0DPnYeyrQKc4Ygl0ohJJJU7iTPgxMRlqxiZqeeupTFfCGAmi9BBU+Fzzo5MNWPSSrpCOtXz23b9L+xlMPZ2QKtS9qAm89orfq32K6kNXwJ9EWDeOD2HeZZ8b17IyQ3P4Zi2nZABCRLq40IWXR8uB+Hd4/jrv3DhsDjoQ5Ws2ynmtLyY89kH37rkdvMUPijt6XxadbnA7dPkIC11nMB+WqHLRRCkIx24siEWTP5+IkRfI71+jDbbNdwCJHGKskyhsdO7MHjD+zEl06M4TNH+/DQYbqjg7hjdxLTQ0EkgzU0yxu8qQqYotX84OExfOHuCXz9/ik8fu+4Wdrz4KEMHjwyjOPqpLDzo+U07VoBlXIZTZqIno1sh5hZLyJHWowRPztOJMZ79vbh88dG8fg9o/i1+8Z5PMQ003jgYAYPHB7CcZKw2miSBBxnGRvVIurqMJhuhR2aV3VrXMBie9073GpwBOnwvmEVsP3pS5nSiMCJg6NUVuOYjheRaGfp36CqDeLaWh3ffekavntqBdeKGeT9Q92dVaTMQ10nSgsbZbqyUYEvEMbYSD/SURiy03KDUIAqxx/C7EoeV5fLZlKKnhGKQA/Rgvns7SOYTtAS6RSYaxsrhQaeO7OIl6+WsN7R7FUm5usgRII8PJXCpw5nsCedx1BoDf2hPAk9h8m+AB4iaRzfl8KOVBH9vmWkWktIdNbo1pEJl4xi3DORwiCtr3KRaecqZohRxKRdg0ZozYrodg2TwNtNWpAbOE1LcL3GjkN/P4lmDDsHQwxax5WlAq9tYIUEmUqlcbvIczyOgK9uZrhagvSxBuJUvEGkSFiHdg4axR815WyyLfyskwLensljrRo2HQf7rNBTzDcraNlKQXJnfyKAzxybNmR0eKSG0UiRMcvGwja8QRpJx4PYMcJ6Gk9hL62yXaMJlFjmi9dWkC2RECjT5EAUDxwawB1jVYwFF1mXOd4PVcwuzuGty4tGJi2tCQQ6OExL78EDCexL5zASXKWFV0LcV8JEvx/3HZnEMZLPZKqEPv8KOzor5j7SUp3heAN7aG3unkgj5qvSyqviU3eyA/PgHty/l3KxHQexZIb0kyZOHgNhWqRDEewlgfclgijmN7CRZ4emreUwliB194rItORmD8M+etcEfv3BaZJ3GkeHqhgNSY5lxJlmrL2OOO+R/lAZOwaCvOfS2M36iPB+KrJOitU26kxbIxeqcs1otlA+DrcqXOs5fAB0qGBkociRICM+TA3FMZSkZdQuUck2FMLsQXrqwgKefWMBC0U9HUxTpceMspc1d7MD6rSG5nNNPH9mCa9dr6DQSaNBYut0tHyE5NMXxW4q60yYNkBHlg4tTCqi/mQIQ+kwtBZSEzn0LC9XbmIlX0epqed7UlrWohK5a3KGnh/p2Zom9GgC0VR/CMf29GFXfxMp3yr9s1R1ZSo6u6m4dk3Vc0s9f5qM1/CZIwP4yr1TODjSphJdJ4nTpGIWBSrKc3NFvHA+hxculHBhuYNiK2aslnylgfO0KF+8mMVPL5VxbsmHjYYmD0VRZnQNlZ68sI6XLhRxZq6JbC1irkmZ65lsodrAerGBalPWiiY0+WnlBTHUp31QtdylZqzYLdxMjh46tJigZ3cqk7omrIMguxxqN/OsTtcJU2bzzFXPAEmgrRK/GVYkqhajTCJcKRE9l9QuOpp17Oe3nl2KZFVzps6VHttK7Wh3xGWnh2mNpQO4ffcACcqHFNbox3pnnooLpimZNGSeJOntH2rjq/eN4Q++tA9fuyeFwwMbGPQtItXeIHHqmaCecXYoI++yFu+2Vh7TsSot22F86fg49vY1SKAbLE/FyKEyqPM1kfHhseOT+M0Hd5gdgcZI3km2f5B3rKARgro/ap79qveg56SD/gKOTfrxWw9O4vHjQ9ibqVNGdVpqJl1TOQ63PJwF6fDBoKEpfmmIc6wvbJ4/3j5FSwjrVEA1Q4Jz60386PQcTl4m2fn6qWQ0zGmfkZlF4qan3XVSo/yWWqnX6xik0j+8axjJIJUzFbQoQUS3mKvjvKylsqy2EKLkCVmvDx0eMLMu9SaJFhO5ulTCT89mcWWNqt+fEZWafCXv3vE0TuwfwgiVZ4TEoAk3Ib8PYVqpUuZlJrBOazZb9iFfD6OmmZjBGIUMGTLQJI5I0IdINIJsrojriznGiVLtU5HW21hayeHc5QWcvrCMMzNVLJZobdKuKTWAheU83qZldfLiKt7ktbliEKV2jKTnw0q2gAtX2Tk4v4Q3rhYxm9c1bY1HxUy5NEll50gSByaT6AtVrDImea4V6njrahYzG23Kqm30LHn2glpNpYxFAti7YwSTQ0n4SSYamA0yLVaBqSmFqjY7yNVYB42omWmcq0dwbr6K16/msVxlTbKNRwZixmLePdhh56FgiKdNeS/Mavg4x3BxEossSGD/VIadkH7We9OQjDo4WqKh55Oq92qjjfVyi3UPdioiaAVY5wGVXaXRBJ0mktEAhtkZSodFsjU02FYaeVhjW63XQ6gyr04gYuS3U6NI8sw7Eomy7jdwfbnItuhOdOI9OBht4bN3TuDxeydxaKiOPjNzt4oa+Xku18Fbc3W8Tnd+qYOFQpDxkgiGaOWzJxbyNZCK855PJnkfFDC3ljMzls1MZOZv20DfDrcqHEE6fACI0awTcZnnQUdHsX/Eh0QnR0Vep2oK4tJiGc+8vogr6yGUfBkql+7wH6PK0pPq2O70obkfzWYTmUQYB6f7MJpuI4qSISUN6W1QEV6YLWJmvUXiCGEgE8MDt03g2HQUKVpyGmRstHyGMJ47s4qlSpKkkTLELHWlGZr7RJAHBjBMgtRkFyleKVRZeSslH05dyeO5t7J4+WKRlmyVREXiiA8jluozz6vs7M4GAkFrqcry0wxdEYGWcRQqTazSel3Jt5Gtyg6h9eEneVKuHFlyOdcg0bexVtUm6naYucGCy8JczdWwlG9hrUL7tU2S4LW235K7Ji1NDMZxdDpNkqH1S3JXl2K9aAnyymqTZU2yHCKV3gRpKpmEZNYOMr1cLofVVXYswhHWeQxBP602Wnpqp4vzOTz71jJeZgfntRs1On5fK5kJVYWm5rwGMGoIcogE2e4SZMsQtAjy9OV1rFRleYkgfdg31Ye7SJCjMc1WLZl613NA1ftivoNXL2TxkzMreIX1fma+iXwriWhqCKFwmGE1YK9XaLHuKZ86Blof+taNEttqDc+fK+D1mToW2OEIxAcQTpD4aU1rqF9FDbF8a4UqLi8USMCsb1rm6nDctbcfv/HpAzg25WMHa9WMKtTYhm/PlvCdVxbwNy/M47unVvHM2RzevFElEduJZMlUgnUli7iJRDxi1oHeWMhiraj7UnVjN1bo3tkOtyh+1q/IweG9gYo9EgohTlNO1pk3vKS9VIvlOvJlEpZoidafyE/r0XRdkOrwnD7NbFCTgg+r63ksrOaM8tRSAg0xiiZSsRAStCKkiIUUFVV/hspKw3r0M5ufM6MNkkaWRNM2ZCH6s5966rSltiSHmJrykoSWSx08/cYS/vQHl/AnT87jz5/L4t8/s4I/+uEMvv3qOi5txGkJp1FXWZhXLNimBRbHSH+YUtaMTCqDLElNrKn4U8ZqFpF75WqS5GtUoLJ0tLhCg5xWCvvqqwqt1ZLi8nrTr+dlqhfJSCJh1VVpodabdhjZFoLExLpPREgMWsJCH1tawfu+GcqrWG3h5LlZ/PVTb+I7L87g/CKMlWs2iWc0teSluSy+9dwF/NlTV/DHT87gT566jiff3sBiRc8Vbb3a/GwJ2hrGNllKAh143zbPrXOF131gh2CzrPfn3lrFf3jyCv7sadX7Ov7oqSX8EfN89iI7Dc0B1mPShNUdIrVVbgRx+lIOf/mjq/jTJ2/gPzy3gj/9sY3z3TeKuFpKoejPUE7VfRuxUAu72TEaH4iaSV8ajs1EfWbi0b7REJLIIaLZz7x/5rJVPPXqdfzti/N46QY7esVhXC4M4pVZP7718iL+y8kVXMjSqtaoCOshHGjjyM5+HBiLIekvszNXY1HVyaCoDrc0HEE6/BKwis5P6yAYsK/4tU4gIVBht6mI9LzSkKMJ7ylHnW39CVKefgbUa6tajSYaNVl2TLcjWmMCJmH77MjCh2iESika441MPykl+olI9EyP/EzSUWjlYPP0CHJz0T//LKkFcX5mHd954RJevdHAXGMIy+1R2hTDuLIRxpMnZ/HS2RUU23YvV1lgAVpi8WjQEHbAPKu0pG1koLtp1R7zsvSvE4ax3t2rgoShnPTwXoRsS0l/Km2zcbs9NJ0F7xpFQIqWX5LOq/ub0uwFE99n9nDV8GmuaV9J1dQuQ4aQbY3VyZTFZgjr7RRWOwPI0hVoZ1X8eqbq1ZzytPnYI/qbUQI6tpsJoWP5s3C2HiS9zUM23rmrq3jq5et4azGAhc44ln10nVGcnm3gp+fXMF+k3ehPMIbe1yICD2F+rYpnT13HixdymKn2Y803RjeMi9kgnjo9h7dnyrTcPWtaw8cNZOIBdrD0rFa5tjA+mMYekuZAuG7WZmqZR4cyXry8iDPn5lEsaaSgZYhT62+1aUKxsI433r5AmRdQaKid9JqzFsb6o9g7kUJ/VCMMdk2qw60PR5AO7xtGCUtTS9GRlOzrqnhsFKAUJ735EQz4zfMfQxcMbwwMOaNGLdFtuZZRRma3EoZJkPRSiTj9lY9UqT5JeMyn2dK5Vc3KIxTUJB5dtdDyRMkjItnyVf7e2Zavh2q9hWtzG5hZLKHe0bZtUfPaLSnlJqJYzFZwdWEdxZqUYpiKlAUjAYSDIUTDYUOWXrmt47nxsMe/DLrJUGoSCgtlVC/TVHHkH4uEjBWvYplw/LAl1NnNUJ3ZujM1zVq32yN4tqcHW+O2pSy12/o2SyPeJ5SSjWctQJOSaQu709CFa8u4OJtDqR01+862jOUcIEH7zazmbLHONtEr0LREQ+0RNstgri1ukKTsNnhNtZVf83qDmFkiaWr7vaYNr+F11YlGqtVOumfBDs3IcAajg0mz9EdDseo0BXnzpEJB3LlnFF85MYHfvLcPv30igX94IoZvnEjhN0/048H9UYzGNHFJpGrjhoNt7Bjvw3BfzNSo6YYpU4dbGo4gHT4QrLrjJ0miWmuhUG5SEdk1eG2RIY9S8Qj6khp+vMmWMp9SwNv/rBqV6qc6oyIbHerDxHAfvBmT0q922LaGQqVhLCylJH0np9gelL/CWihU1+lL2FRc3jdQqtSwRmWsoTu9EksE4tGDLCBtA1eqtVFt6NwqXOVqJmsETKlJWCyJcbyyedx1N0n4AXBTel0/gSd+dhL80v7G38rSPekJXZETKRpbiuXrrcu9kF2n3o05/nlgQr2CbWagCyIoHfnNMPxaTutWdZdEzPC4KSA7S20eF9nWpaqGyrvUyhtB/vlKlZ0VdpZIjE0So2x32aQakmZwlOpAjW1mdihSHGXIb00IsvdMG9FIALEwO3E+TfiRox+J84Hbx/DPfusY/ttv3o3/7pvH8N9/8w78j9+8Hf/DN+/Ev/rGMfw3v3EHPnMkg6FQGeFWxRCrxgv60nF26iKmVu2945XZ4VaFI0iHD4Cu9qOiEpEUyy2sFezkBqNseUkqaTATxw720uPmmY+1DqUyrKJ7hzO3olUomvQwPT6Akb6ImTQR6A5XNWgVrm0UsV4oG4UpKKYU93YCMqlQGerbHJtLktWI7AXYuk7U602Ua1rwLYVqCdAbKFUCklGWiFShSYdHdgDXOruT54cNT0IrpeENfniSe8TLolLxmyBdMKCpk3fDKm7bDt6ZKZMSsZ5EN6b52vQkth+/G7oqZ2P/rNx1ZSvferNt2tVutcfYInxT7zpjuLZ1duSBfqoEQjOVNbHJ0BrjmhRVH2yWNu9DTZZSGD1PtTEYnwdmL9hu7iZHRjDn5lutX0csUEc6XEV/OI+BUNaslR0OrvF71RwPhTeQDhYR81fNPsA+EjR8QQSCAdNh0n1jt6Dzcna4VeEI0uEDwv74DUHSglzeYI++GbAzVXlb6TmPpuPftmvYLIw3z3C0TtHEkjqzpOg5bRKuWOzQY9doCgenkkj6igi3tRxABESroNrE3GqBZNxk6t5UeqNTmYYHKih6m5E0Xe46q1g9tw08leKU1dmUo1eXEvknEpRTIE9mm6DOdE2KdjOMcYL3LdiQ+rbuvcOGtnRoCkPnDdfK189jOT3rbdF1L21KIpLfLokHQyaSnVaUiWPC0Zfll7NhbB761nM500a0yHwaWtZxF6pXhbHH+rS5vzPfbjbm09ajLHQSmwmufK1UHrzwppwMY+4SkxddV2ibjmRRSiI/G96ko3IovIlj20fRFNO2l4bqW2bI2qTDCxoDqTPQ+dkcfvjSDfzdCzP41osL+JuXVvBXL9K9sIS/fmnJnP/Nyzx/aZlulX5Z/F+8/qM3spjNaZenqEnT5uVwK2PrTndweJ+QbtPwVbHexo2VMuY3OqjCvhxXaioZauH4/iF8/p5J7BmoI+UrmI2prUXYolIy2tEoMT1/jAZb5qXHn719GMd2BJHWmkotZWB4LT+fzdZwab6MfF17sWoqPS0IPZMkOUgfGoXIL63lU8/ebzU20VVVNpA9fgfkKxtQKWxXvFY1d5WuwID2SJ/b/Dexlb6udVUzP98Z7r3A5mzTpOo3Gl7Ou2bTrdcbaDQaXULcyr83bJq2lLSa9DyOx2ZYms5sItDNUp0MYzOzbaynzdpWq83d+qujYGE6IsaZs83w5tu4bt7MxzwFVXmMj6JsC9X1Nwl1EzBJEuaS2sUeKLRxCmEmhBmmtHKbMlIe26I2LYmnLfpyhSo2SnUzFKtFJHVaolXeu2/eqOBPv3cJ/++/uID/11/M47//izX8d3+5gX/1l1k6HS/jX/3FEv6f/3GRboHXF/A//OUs/s0PV/HaomYh99MitjOXHW5tOIJ0eN8wqojKyTwP4nGl2cGluXW8fnkN2XoCNb82BtfONk2Mpf34/PEpfO2BHTg61sGgbx2Jtt4+X4Xe0CAXb1fMC5SPTITwtQd34tE7BjAZLyCuN3cwDQ15rpd9eONqDucX9Ib6JHv72qw8gGp3aFTDbEYhUTgRYzgE82zQPB+SXjTKynMeTEm6zjvS9S4pdsto/bbH8+D5bzmTBg9tioJ37YPAi9eVnh8aStW3yUHfzKxaYZ1UqoamtpSy9/1OeKUkUWjCj4Y3+a2JTzw0iSumyDgeDphNx7XTjt1xSG/2aJiNFaQ4tvKyaXqwtbCFLUm8GDZ/4zaDmly7ITwneGnTidzMsfDOcAQPN5MjJGO3JfmtwnU7A/zUCMT8SgEzS0WUmlpvqr19tZ9uB4cOjOG2I1OIJeIkzoR5w0zRN4Sinw59qCCFcGoME7sOIdE/SVLN0H8Q+c4AtOdPUy+vNnJtl8bhVoQjSIcPBO+nr2+92WFurYwXzszjzHwdOSqLeiDNa0FajFVaj8Dj907g9z63C1++M4P7p/24ayyAO0ZDuGs8hPt3J/DV46P43c/uxOPH+nGgr2QW/evdj3oyVGqG8Oa1HH7y5qLZXcbsyCNCpEIrlmgF5Cs8Ny9oopIjbdKCSCeCZlq/FtdbFfoOZWokt874buqyrTBeCPl5Ibf7WX9PqW9hK+zN/h8MNg2lJqs4EvZtTgoyV0hkpXINxSrrynQSbh4C7Q1bAgsfGvUWytUmGi3Zi7R8mI4IZXp8EHfsHcVEoolBfx470i2zLVsqUEe43WTdSqpux6Sbpo7ka+GV39bIFuy5d/UmdD23iNPCxuimIxPQfHs53ZyS/Gz8brjNUPZY5C+51/J1s6HBYsFvNpPoIGIs5h3DUTxyz0589o5RHBnzYyJaQsaXpytiKtHAXTsiePzEOP7RFw7iseNDmErp9VcF1ofd+EAE7OXpcGvDEaTDB4KnCKkPeEAl3QRev7aGJ169jrPLHZJkPy1JbbLtQ9RXxXSqgS8eG8AfPr4f//Kru/GHX5rGH35xJ90u/DeP78UffmUPvnx7FHtia+jvrJq3VajHX22HcGGxhh+enMHr18sodZLQNmHWWvIjV6hgbb1k3j1oJtcwVoB39XB/AiMDCSo8O8xmBeUFY0RsKa+bVavgXduu4HTM/Bh4u+92eMrXqn3P/XJQWnI2tQ5itOgG0nGz3Zosaw09a9ZnkeRWqtkdbMyUE/rZ5TZWmp8JEqGspnKlbmbwqiPS9NkXMkvN7x7vw+MPHcI3PrcP//BTO/B7j+zBV++dxO4B7W5kt//z6tXkaVOlXNuON49szW2SnLEGddSVUox2Eyt2w9F5vpvfbD9vJNiDF9oDRdiEjr3r8rZKz2fe+PLapSXetzmsNTOo0BJsd4K8Xxu4c2cKv/vIAfzTL+zBf/WpMXzzwUF886ER/KPPTfLe3Y3f/9QgvnSwjd+4O4VHj8SxI1HSZoLGwvYo0uHWhyNIh/cNKRlPn5lJEHRSqtky8Pxb8/jOS9dxZtmHtU4/yoEUCU17mGoT8CL29FfxqUNhWpIxfPXOEEkxiIf2NLA/vYYh3zKS0Mbf2kINKDX8ODtfwfdfmcOLF4pYb2kXmwRTCm5O36/UmljLVVCo2WEzKVs9O9OUe21Dp02xzXMxSd1VlPbYlKKrODd9jbdVcPbKFlROG0aw3zYN+ylnwxuF/yHBSsGUyQixSBDDfUmkRJCsBRGFXsasDdJLNbaBz5Z/cy3qdvFvwpbEIskKyXVmOW82ii/7tDVflDXgR4REcdt0Ar/72EH8y18/it/73A58+e4BHJrwIe4vUIaaqVvlJqtMKXobMXSrgvAOdNV+mzKZNrHOo0rv2BwxuD3ajNH9vhkmVXrffNWG95y5wsrwhsuNLyNqh6PryxU8c2oGJ6+UsdTQJggZXveTJGvYN9TBl4714Z9+cRr/j9/cj//2N/bgHz86gkcPB3i/ZjHqW8BtYz58/u5pHJlKIen3XuosSDKvzA63KhxBOnxAbFM+cvzXc0ftqfkkFc5/fvYKfnq1gbn6IAqBYVS14TdDmzfKt/RKrHWk2qtI0VrU66RiZg/XqkmtgggWSiG8eDGPv3ruGp54LYuZcgplf9/mLFlP9WjG6VqpjtVCw1yTFannSOl4GEOZiJn4YwlPMZi6r921Lnjra0iS4UW2ra7y9FSoTd+WzpZVaSgt+ZmpHzzX8KJ1Cu85D9uPPxgsXXh0rV17BtMhJMJm9SJl96PWZkekUMd6WTNwNTFE5TKRfwZsmTbLxbCaW3xxNotXzi5hrhhGyT9AktTm7Nq7tsL2yaKvs0g3j6lkGXtGg8jEtMuMrEgtc9Gf3XvU1IrI0tSnld7mxdzoZweG5awUhgh1yvKoNTXJpsXz7gByFzYlk45JV3XupWHb02sHwV5lramHsEnE6lBpF56txUaynuudCK3INfzdTy7jhYsVzNUyKLL8mmjm570aQw5p3xoGsIzBzjL6Wyu8b7NmA33t9dpsNVBr1CW5cuymLTm2y+9wq8LeUQ4OvwSkCozKoaaqk9xmcj48cXoe//tTF/GtV9bw0o0ArhXT2KAFWO1omzIt6dAMyS1ro0lLqNgMYzYfwqtXW2ba/H946ga+/0YBl4tJ5Hx9Zv/SJpWaARWfsaCYxmqhisWNmtlRxSz/oBzJaBhjg0lk4lLaWt2vkJYstYdAvSVyCaHWiaJCmcodbXNOaVgQq8bpmL6lQjltQ6YZsz7GEW2QzvldbZMipKG78YyaNvEEr2Z+OYg0/P4W+jNBDKT8LKFeB8Uy8bNS72A5V8dGRfSi54eWmEylGtcLHkla+mqSaBdphf/o9FX84NV5nF0OYKmZITXEUWF9a49VnzZsaFXZZnqDRZhkrXrVlmp2QX+9HTTOzAjtBFknGoBVLl79MS/Wi9q50Q6bnXFkbymsWcfIClM4a5Gq9ugYXW3cJGNqW7wq26pGQqsxrnbe3SJR5SOS1mcbQdUXE2ywbWwbMW47Yt7XqHWTCqWJrrqHdL5e8+PF81n85x9fxbdfXsMrM7Qsyyx/J8n4lI/p243PZbXrvY8+ZGsBnFts4AenFvCt5y7hjetFFFrahlCTxyS/rWGHWxvubR4OHxrEE9J02pi80vBhMVvGpZksri4UMbdWM6+qyjeoYv1xKse4USh5uqVSAGfnKnj5YgHPvp0nua7hR2/mcG6ZiqiVQoXhG+z9b6NU6TjjpLDC/jb2TGZwYDJl3hJhqC4QxmqpjbM3clgq0EqiRWB5rINwOGgU/vzyKi2ndeZdpoIr4fUbZTMJSBuGa9NuM2xIHdfNyjwD1EuQF5ZWcHl2zcabsXFnNvwkWk0e2lqfafFLKkkmJeKI+Ru4e/8wPnV0CKORvJnhq7pYKrTwwrklvD7Luu2kjOXznvu928RUpyFfLGN+aQMr6xXzwunVStt0WnK1MOayLbx1bQMnL67j9JUCriy3UWhE4Q/FzMza7Po6rs6umHdhvjVfxStXC3h7sYmNpjo1WhfoQzREmmzWsbS0ZixWtfnrs1WcvlZmpyrIDlCS9W6tYFP37Rbblu3Fat/IMc+5NZyfLTFeFaeY/rmlFtZbCbat0hfxKRdLxoloFA1adjfmV3BhLm/b6kbFvJFjvqC3X7Kj5rcbQmgzgRpJeInlvjK7geuLFcxm63RVrJU63Vd9hbHI++jCEuW9WsQLFwr44Wvr+N6pVbw218ZaI2Mm+ui+sS3uyPGTAF9g/wOuJR0+FBgCYq/cQj16KisSkV5Kqz5/X8KPnWMp7Bnvw0BCrzDSRJMOiqUars2t4tpiDusVWWgiRL0sOGCesWnITcSrjQS2YO2kdofpxtr4rc8cwB88Mo2doQVk2huUJYBTVIh//P2LePJsA+u+MSowbcbdQYTWWDpIFamZh+06U7E7shRbYRQ7CTT9dqG3KVAX2mklzniZQA3Rtl6My3gMordFFKhASy3Ka/Zu9YZ/KV+XYJX+B4EZruO/Xho8kmjj9z5/GL/70DgmAjNIdDZojYXwyuUc/uQHF/Djy8A6xixZbOb7XqGc7LBtqN1GhO2VjLYxMZTA1HCaHQNaqsUSOwarWKalrj1TS6wnDUAyK0QDVST8ZYQpp9LSnqhFWl4FkqsWzZv3I7Kd44E20gyrFyBr5aHKpu3lCk1a5Kz7Vrf+vPrq0DrV+07SwTrrXu+slMXK9ElC5Rbbqx3rdmbsPrQapjVN1mohSa9UsMa8CtCryeRdZ31JdlmTuiO377Ij2LWZ2o9V9yzz5X01MRjDJOsgFQ2iUdd2hHksrPA+LbXMezx1T+ltNfatLFtt/0Hb3OHjBUeQDh8ipGilJkRe3sCaVRXyl9ObDoJaS+fjVZ+e3PBPJEgF0zLDbd5sVMVs85qORLbWepQCtNcEfjMdEd5nbh/DP/nCHpwYq2Cws8TUGri+4cOf//Ay/tPzq1jyTaLsl4XCdMge2sJOz0Mlm/IXAYskNaHIWiNWbqvsbI4BymIG6doajNX7KWV9MB6VZKsja0SDfpSW4fStT6/0HwQmPv8DlPOO3Rn8sy8dwWMHghhszyBCxZ9vBPF3L83iz56+jrdz/Wadnn09mO2cbOEX5W/rWq2lkPZbjn4aWmWZRVt6CbZmyqqsqiu1k7WwtTbShjE1QNbUsK2c6UWofumvwUqFMzNwGVFDrpaWSS5Mi0GUCy8pDVt+3QlB1rd91ik51Snq1jsJVXFVWl1rM4xNpDuEz3tNnQuloYlbGmDX68baJEqlbzdAUD4KYdPQvWEy0LnuUZZNm1jY5UJ6rqmW19xoSsSOgB3mNTFNWiJZK4M9d7i14YZYHT5UWLVgP63SsM4SpkhE74bUC4Sj5pmhJoPQJqPiktPLgaUsPVXINExS/JCpYvw9euyGoLeefarnPzkQw+7ROJL+EpVqDdrAe2VDw7zryNVDJj8pdRNX/zyW9WFJWflaRa5rWySx5QSzJyvjSVYpW/smDKtgu/9GOVvoTO6DwhJdMgx8+s4d+PydoxgLbZgJTSKlWVpzT59ewCvX6sj7Boz1aONsz/O95O/JaUtq7CiVTWVUl8Av61gWfddaYh0YglGM7ke728mxcdXOW50M41h9tg5t/XkTZmzd2XrfXs+CSVsdJKXPtDV8ad9XaePK34uncOabfrLjvNREpF4cr60UR9j6tOE3wTTsPShZ9YaQMMsspzqQVWzfb6pZ1F48e6Qct3wcbn1s/ZYdHH5pdJVK13k+Um92CE89/BZ9NLGj+zoqw4AKJcUoD/bqTS9cZ0pDloVNSzaCPm2aVgXJ2pByXlgr48zVNbPoW8+yZOFEQ23cvr8fxw/2IU3SjNASk/Vih4EVj0qOcY1FYmRRerYEVmZjD9l8uk5htq5ILqnjbqmlpJXO5jXF+OBQLrKcdo4kcOeuPozHKyyD3trfQJVyn5vZwJmZPPLtJH3scz4LCmHwfvK3MlvHY1Mf1gqWha0NwNum+m0ZVe/KxoTRtyFNhjXEYsNpIox1tn4UQRNeZLeZjcS7bc8odCaWOfc+veF6yeC9keOmVuFl895Fc78oLNPSF881PCvpvTJpqN67J23YbtmUjjn30rCwV+goQ7dEng9ltTSojRLMkhrjJIuR2oRx+GTAu2McHG5plOtNXJhZw7n5EnKdPvM2/2YggMmxAZw4Mokd/R1EO0UzvOspvI87pNKT4RYOTfdj/2QCkUCVnm3UAzHMFYI4faWIa1mfnRxCq0bK2cHB4cODI0iHTwQ0NHtjvYYXzq/iQjaEDf84yv5htINpTO2Ywt6dI4j4tUyhThqRtfDxh9Zzjg6msX/nOPpSSbNmr4A+LNT68cKFMl6+VES2QX+/ho7dT9nB4cOGewbp8ImAhvjq7Q5ypSpqDZg3/88sV3B1qY7Z9TYuL9dwbaWGKkmm7bcTWT6u0OCfoL1XtXPOCF2tXMLcUpblqeD01TyeOjWPt2brZvPsutmEwRKksyEdHD48uFmsDp8MmGdfmiXbQH/Mh6G43ywtsQvZgXwNWCv7zKJxMxGoG+1jB4/hKKBmRKajfgzGYF7Oq51d9Lyu0gSyWmbQCJnJTnZxuqK6n7KDw4cJR5AOnxh4JKFnd3rnpB1K1SQO/euMV8xkkq2ZjB9nqCxaYqBFBXYiih0atjNpvUkn3sQawdmPDg4fJhxBOnyCYClS2DTENg/k+GHObxUi6f3T9GZ8ms/NICrTrVIuB4dbA+7JvsMnBGIKz3lHssGsM2OTZiLLrXTLU3YNHb/DqQw+lkV/3pIDR44ODh8+HEE6fEJgicKShYWd7EIny9GsqfPcrQO7vm7LaV2hMSC7a+7MsniSpaNHB4cPH44gHT5BuJkmaG8ZYpSvxymeu1UgUbc7wZSlh3NwcPhw4QjS4RODXkThWZQeuQjGArtF8E5RvTLKOt7+5+Dg8OHDEaTDJxjbadES461Ejh62SHEbtnvedMHBweHDgiNIBwcHBweHHnAE6eDg4ODg0AOOIB0cHBwcHHrAEaSDg4ODg0MPOIJ0cHBwcHDoAUeQDg4ODg4OPeAI0sHBwcHBoQccQTo4ODg4OPSAI0gHBwcHB4cecATp4PARw9tntZdzcHD46OAI0sHhYwBHjg4OHz84gnRwcHBwcOgBR5AODg4ODg494AjS4RODreFJvQPSc+1N93F57cX2l3DcLKvn6+Dg8HGAL7D/AfeLdPgQwNvoHQ/O3qnuvcu+jt6DL9g3GRrHi1uvourSXNfjvb6iSmmKZAKdJr9bPPNSB9q+ACkyyDM/naWijwJGIhav07GSBCmnnCSiF+GnnHRGXoWwcVQj5nL3QF8ODg5/v3AE6fAhQVqbblOL81BEQCUvWJ8W/IYYbFCRQpsXrG0XkC+/SV/0M0kp0rb0fhH8nTai/haSwSZCvhrTsCTJXFFuBVFphdHyhbrE897S/LCh4njlCvvalLWFqK/K0tfN9bbPj1qT8jaDqPskr0jdt9VJ6NaNg4PD3z8cQTp8SOBt5BEklby+RXx6o79soQBpKhxoIhpsk7xg/BSiRcJs8rAuQmgH0OzwiuKLJRn3vVp7fpJNJubD7bsGcft0GslAhTTYQrvjx+xqCa9cWMKNbAcNX4y+JGOT/kcDlUmdhP5EGHftH8WhyRjivgKlaqDZ6uDawgZOX1rBQjGAqi9OeYMmnu1UODg4/KrgCNLhQ4K0t6VEDROaIURadMlwB2PpIMb6QhjrD6M/GUA0oMHOJhU+CbLdRrXRQTZXx9J6HfPrNayWOqgiyhCyoCyV/iJE/E3cuSuNb3z+Njx8qA/pQIG+beSqPvzwlav4T0++jSvrQRJO0hDkR0s0rBsSdH88hC88cBC/+dmD2JWpINbJod1s4vy1Zfz102/iubMbWG31oUaSlNUrGLkdUTo4/EoQ8A/u+J+6xw4O7xvqXW1X1rIYNYAZC7SwYyCIhw4N4ovHh/HYHQP43NF+PHQgjXt2J3FsVwLHdqdwbG8f7tqdwW3TSRygJbWjP4AIyqiXCmg0msaaNBYl0/V6cu8kB10ZiPvw8NERPHrHIHbEski1lxFoF3H52gx++NM3cH6uRNJNoukLo8P0vDS29w5/HuncnPf2WB5+kaWrq4qtIWR73GjU4WsUMM162j3YQgbLlDCHvkgbjWoFswtZ5MpgRyFiSN0OWdtUfp6s7wXWNtefd97bbWF76bau9Pb9efBi2NBeebZw83Vhex7C9vA353/z2S/CO9MVfnasd8sl9Pb9+TJvwYayLeHwcYQjSIcPDP28zfM0uu4XArQKhxJ+HCfxffmeSXz9xDAe3hfGwcEGJuJVDIXK6AvVkA42kArTherIRBoYTXWwaziEgxNx7BqK0vJsodmooFypmaFXWZI2E0+tywlt8yzv0GQaXzoxidvHO+jrLNP+LKNUqeMnp6/h6dPzWGtlUPOLIENGaDv9ZUt+MyxMX5uql7aFIabNcN6gr+c8+5YXKVtHQ7fGWVL34tzklEI3v1a9jsEU62ciwbopIY4C4oEmgn4/FpbzmFkpo9qJmWenJu0uto5+HqysJiebbfdju02umlAIr1wWNjj/OqwTI7PnPHRDM7mturFf+tTfVp7ClixePiaeCdkN3w1jYRPsSm+u2Pqz17wWvKldeB8ohgliPc3RzbBp2Dblx6bT1/a4Hkwu9NrK23M2jS3/zbJ1g9j20j2lPw9Kr/vNuFb+Xvk6fBzgCNLhA0M/e09p+/gd9rUwmg7i07eP4x98ahc+dziO/ek8BpBFjIQV6tS7M0w1FUeKggqNcfwduQbCqCFJ4pzoD2HPZB8G0qS5Uhnr+SpJsqvIjUIxH8qWaJFogYdum8Lnj41iPLKBWDsHPy/PrFTx1Ok5vDEHFP3DqPtitEY9RSZIQenIKuFu4nTbwFNJalWY3JYC1JCyVX2KKwKXMuwqRBKLoVtd3oROVAqlxrwZpt3qIB4JYu9EPyb7/Ih0WE9oIBIKY2Wjgguz68g3Imj4reUrbMn/86E8jOuKrE+VXyem2MZXTiSoc6HrZ86ZUzdPtZcpV/dPMJ8molxXKp7rz0/Nvxmqm7g+PV/VafdQufPPytq9Qig962y7K7C9tklF9JJPNxmiW17jtnxvAtPZyqUrs3Feu9i/LX+57V/edZ10v7s+3plJ3Vyz8t+UnvxFiIYUrbPwwjh8nOAI0uEDwf6ct37QWqowngnikbum8BsPTuOe6Q5G/GtItPPmeaOeoWl4s9IJodDwY6MGlJoB+kXQ8keo7IIkNT8CVBxBXxOpqB9jQ2kkYhHkiyXkSZJNkqSZgSprspu3j8Q63h/F5+7agXt2x5DurNN6rKHRCuDN63k8/foyrhfiqAT6zWQXKVUtARFRB0lwAeonoyY9xWVyMNIaFzAEbnK14ZQv5bS2Cn0MKQZEjxoENRZ0sM2cSPoBEb+VWLFMWOVm/BhOurHT5jHDT41msGs8hZi/RinrCAWDKFQ7uDSfw2K+RYKMmpRsfpLjvcLmbUiFZbRSy6nsGrjV82DJateKWqXNoNLbDG9CGw/FtfSvsJvl6ii8J5GO7PNlOU3MssttbLomTLcODC3o1Hzp01QH0ZWAJ+YaP4ys7DTISVbToWK7GHltVMKmb+J0v730boI5tZ2XAGXfKj/T5j0hmeW3ma6Rw0tXsguS0HauVD+6GmAAK7lk5T1MGY3jPWbvH5uOEcDUpVd3Qte/e+bw8YEjSIdfCkY58Mc+EAMePjKKX3twN+4cb2Gws0RLTjMzNXM0jPVmBJdW6nj10hrdOk5d2cCZmRKurjSwWiFxhTIIRxLUHUpRxNJEhFpnqD+JaDiEpdUNZEWS5nlcSCqI4ToI+RrYP9VHghzHnv4qEp2cUUwbZeDFc2v46YU8Vlr9qGn2KpWd0o36G0gGaoj7qojRRQIN4+9vN5hyEwmep4J1pEK0aAN1xOnCHRJXSxYwFb5RjKJEq+pFtlESW4rhkoEq41KOQAVRX4WyyNWpJKlWSQ4i9021yC9T2kYDQ5ko9k/3oz/aoiVdNR0FBKOYWS7g8kIRVV+CkslKtYr0vahShVI45a1Zvup4hEm+cZ8s9ToSwRrlrCJJ2eOsj7CRl+UUWTA3ieBZrVL8IR7G/C1TZ3F/BRHG0+SogMrXbiLEehDBJ1n+dLDM7xpiTDfE8vhNHVhisfWnwst1ScdWhpHXdDKYv5GV8ZVOMlhBmnmadlO+qiPK6teIhDobSlFpmbQtHTEn870dykbEGCbZRpl+gmVRe8mp7dT2uj9CTJvdN8b2Og78U/sxja10rZNviIQdYv3G/LxvKGNadcDvFGXXvRFip00jKFZWxjNi6cPKuuUcPk5ws1gd3jfMDaPfMk0LKYeov427dvfhdx/dh08fiNJyXKTluG4UXbUTxky+Q1LM4YWzqzg3W8Ba2YcqrUEpnEg4iOH+BG7bPYoHDo/g9h1hDEeKiHXKpmffJrnO5nz4q2ev4q+fn8VsrQ8Ff79RnyLSOJXal+7djX/+lf04kFpCupWlsm7j8mIdf/70Ffzt6TwWMU51GqesTWQSARzdkcbufj9Jr0yF1UKx0cGV+XWsZisYGhigNddHmSKIhUl+JJZms4lcsYr5lSLmVspYKvlQbMUMecQjAYzQgt05HMdUXxDpMBAKUG7KUKrWsZzNYXa5hIVcG+t12rYkOtGPhixVd1LjQRLzif0D+KdfPoiH9wD9nUVDDoVGFN96/hr+/ZPXcak0gKI/ZewbS7C/WJkqhKwt1WMy4jOziCcGwhhNh2ihA+GQiIjKv91Bk21VqjWxUWpijeb9KnsYK8UOcs0Ya03PbdvYMdaPAyLxUIV1V6Ffh2Vs4PrsMvLlJoaHhjE2nMZA0m+eIYvk6802LeEGlrJVzK5UjDWsIWPShl2TKsaiDGJjWVoREk1f1I/hTATjfbwXUgGk4j7EgvZZs4LWKW+52sRKroo5ttnCehXZmmjYPquVDWdqZ9NC82A3ZkiFWhhJBzE1GMNYJox+ph+hn+4PRjGzqjeKNcytUWa6bKmNCtu77oui6VeNWcgCFL2JGIeYxsRAFJOq35SP5WdZgh2G7aBSbzO9Ju+FEm6s1LBU1P1DSXhvt31eer+4PR1+9XAE6fC+oRvGPLvjgX7eIwkfHr9/J373szuwJ5lFqrXM3nIVjU4E19bb+MGpeTxxahnnl/0otFOo+/Us0FsAr+GnFtKRFu7alcbXaIE+dCiJsUgO8XaJJNs0JHvqahF//oPzePYCFZZvDBUSjbTlWAr4nUcP4L/6zChGcJ1WaxHNlg8/fTuLP/nhVbw4E8CGfxRNKrcgZdo3lcJvf+4IHtyboLW5QauqgbV8Ca+8ccUsNTl88AB2TQ5QyQcQJ9lpiLXVrKNYa2B+rYQzl1fw4pklnJ+vIJbsw20Hd+KOA2M4MBHDeBK0HEgntKraVJ5SjCu5Ei7NZfHy2RWcvFTEQiGGoo91wPJ7k18CbTvj9/cfO4jfurcfo745qvoi6qy/F89v4I+fuIznrwWQ8w3QGjeUZupuOzx7yVO0snhk7UZ8dUyQ7O/cP4S79pLgxqMYZ50lw7SSgpbEpKGbJJ1qg2RWbmGJ9XB1IY+fvLmAk1crKLVZMAZ7+J79+A3W3a5MiW2TY9v5sJLN47W3LqDVDuLA/r2YHEmhLw5E2Unws+PUaLVRrrWwslHHBXaOXjm/hFOXN7BYirIN07Y8Ikd2G0SMByjcXXsHcGgygZ2skyGSbSLSoZWv9bMUlHI02uxg1TtYK1BOWtivX1nBS+ezuLYGFDvqgLDzYqjLwtiUvM9CtAwnMkHcuTtj8jg4meJ5wNx7WqNrCbJNUu+wHhq4sVrFW9dyOHV+Gefmq1hrJChz0sgsiGwTjLdrOIp7Dw3hzj192D0U5u/BbgARCogg26ixk1CstLCYLePcjRxeOZfFmzNFrFTDqLDjtrV5hW1Da/fr2JHmRw03xOrwgaChUPscp0UFEcPn757EnVN+pJBFuF0mQfiwXArgR68v4ls/vYGzq0Eq+D5U/XEzk1S9fKMUfHaGarXpN0OopWoLAwP9xqqM+OtmaCpIkorF40bJXJ5dQ6EeopKKwE/FuocM+chdEzg83ESyk6XSaqBCC+CV8yv48ZtrWGumjdWmfHy8NjEQwUO3jeKOCT9GwzkMxyrI0CIaTnRoxQ7jrn392JGqYTBURMZXRspXQjpQxkC0jsnBEHaOJKlQSQC+Go7tH8ZX7t+NB/bGsTdTxXAoj75gDil/ga6C/nAd42k/do3GMUrrolGnks0WUW74zPNY78mU/ju0IneMZHB0Jy20YJkWJC00+pcbflyaL+DycpU+tOYMoTCedOc2t3VoP5VyhJbN7qEIHrt3FzswU7h/Txj7+6oYi1JOlk+bKSR8dthSQ4GSdzTRwvRQDCMDSVrMGyT3HKqyljt+HGb9PHz7MPZkChiNbGCIdZIJsowkmTv2jtAyT2A8wXIHC0yz1E2b5xGSNK3r3aMpjLP+A+0KivkcKrQCdR8IEX8Ht+8exdcfPogvHR/GvVNt7EmVmE+RspaQUnoaYvVr+LZq0hxPg+0Rw/Ro0hDoxnoWxVLdjC60u7N+bUehjQQt0ANjMXzh7gl89b4JPHgwjoODddZFAQPBvB0SpqwaatUs6+E4Oy1DUeweS2OYFne9mkcuX0CNnS/dryKzNK3Ou3an8fgDU5R5EMd3+LAzWeZ9wHunK29C8oaqGIwxPd4/e9mLmuiPkrBryBeKrIOW/S1o+FadTiOzh60jh48GjiAd3jfsz9Z79tLA0d0DeOyeSUwlikjQstDzI1Hb2bkSvvvidbw+10KB5KghqhYVgdEDJgU7xOilp0k4xWIF0YhmsQ4hE2mTbEvmGV4wGKIV18HluQ0zXKlniiLIwzsH8Zk7x5l3CbGOnnm2kSeRvvz2Ml69VELRb/O1yrKFsUwE9+wfxL5B9vLbG4h0mB+tnf5khNZKGPFgwz5vZBmUvp10oUkn9Kc1lgz7MJKJYxcV5227+rB3OICMX0PCFSriOutEQ3XWYtGzPD3LitGi7E/FEImEsbSSpSVa7spkCdJYf+0mJocSuJ1pjpB4wiibminVfWYm6/mFMortGDsGUvxb1pEHpWJ9rYJV/qN9ITx6Yhe+fN80Dg3XMRhYQ7yTo5wNs8NQnVZfQ0N9tNBFKDa2Jr8AC6tFvPrWHC4v1VHpaHMFP/azru/e30fSyrPu1tk2VbPpQ38igkwsgDA7NH52aIxJaqTxG/pTm4R5n0RpbQ2kQhgfTqNZr2NljSTJ8tG2oyXrwzT9HzgygQMjfmQ6q4i2CoZI2iyLtbCUmi2n2kN1G2WeffEgRgczqNdrWFzJsQPFsrF+RTpqjwjz3ktyfPyhPfjS3SM4MFjDgOoCG6znKttZFj87KZRBdej9YWQAAC2USURBVK5PWYekRTNUOtIf5z0ZpLW8gdVcjZZ9gPc9O1Q70/jNT+/F545ksCu5gTQ7h1HKJELWUG2D97O2CoTpnPmMzHFalqP9MQz3JVEuV7Cyzg5IU6QbZo62fLYF7a/C4aOFI0iHDwSjhKm24qE27jk4is/eOYwB3xoVRNlcy9f8tOJW8cybq1ispWk5JhjaKgqPFjw1YFWBVc2NZhOhgA+7JwYxORAigRWpWOrMzGeeFV6gRXNluY6qL4VQ0Ifb9g7jgUODGAlvbOadLTbx6rk1vDnbRNkQJJW/iJkSjPVFqORFkDA71+hZH5OBn+nrTySdq3SwVmqj0ACaWl4RoOIyw4Aiyhbi4QCGaEYOxDtmogdaLZRI3tliC+tVn3m+hgCtBCpGS5h2uC0RC2NtPY9LM1mU2xGjPDVcquE0/Y0NpmhFDWI81TTLPTSpRUr28kIeZ2cLyDejxvLsRZCCrVGB5OxvseMyiC/dvwdHxzvox5IZFu1Q1oVsA29eL+GNG1WcmanjwmILM9kmsmVNqIpT/hjeuLSM599YwFwxggrbTtNVRJDHWXH2GbHaRbN8aaGxvUQupUYbcxtVXFoq49paCxu1IDrBGALhMMOx9dmBCFOuTCqKeDRCwilgKVtBrRMxWwzWykWMpMPYTStLk31K1Spm1iq4uFAkUddwfbWB5XyL7UkrNBxFMOBnJ0RDr2yTWAjRaBRLayV2QKood9gZ4/2mzs1wwodHj+3AV06M0oIukXzXzH2lJUKVlh8LGw1a6BVcY/rrVcocSMAfjJrhdcmstovHk1jLN3B9sYh6U6MCffjawyTHo2lMRteRamd5LzVRrHZwZbGKN64V8eZMmek2sFImSQZTCIcips7UWcgkeW+TdJeyOazkWAdt7RrFtuXd4rWi98tw+OjgCNLhA0M97f5EEPcencSJvUmk1OvvVHnFj+VCEy+cWcLJK2VsdDSLVMsUbA9Z19/505fSt8NMmuTix57xNA5MJsyzOPXktTVbmT1tWVNnZyu0alKIRcO4Y/8wTuxLYcC/Dqpypuszz7teOb+Gc0ttlHwZM6SrdJWnCPKe/UPYO9gxaWvpgJRSi0p3rezHqYvrZmnIc29vUMmVsETl5ov1IRKjoqeSN7MmGUNWkUpTpgV0fq6IH7++gB+/tYaXabVeXuugGexDLJGmEmfqtFDMXrShkBlC1rDlEvWzhontcKmxOTHUF6cFOYDpfpF3yeSh5S/XlvJ46/o6srVI1/JUzu+AV6H8Nh0XWrrHD47jwSPsaMQ2jALX89xVtsuTJ+fxN8/P4plzBbxwqYxX2EanrxVw5kYJ1ym7JkWdvKTnZBWst1Ps3OiZHnBg5xCOs3MxFCmZzoikkCyadLRc7OCl88t44pUZPP1mFi9cKJJ8K1ir0LJMDiCm+jN1RtIhScbZWShrgs9SDusVH8sVQ4UEK6u9rz+N9VIVz71+Az98bRk/OpPDTy6U8fKVCl6/XsT1bAuI9COVzphOkiYiBdp1EmQMqxs1XJ7PIVcnXflJmrTeTxwcweP37cTRkRrJcdnILot0qQS8cmkdPzi5gKdel8xllrmOpQI7crEBRBJJ0NA2IxKzq3W8yfvhCi3qAMnz08cP4AvHx7AzSWu6s857tG1mTv/07Cq+/dI8vvfGBp6VzFcreHumilwjgmRm0JQ76Ksj4m+YDtN6kZ2JhQ3kqux++dm25u7aak6HjxaOIB0+MPRTHqZSv+/IBG6bDCPRXmXPvGaU/RJ75a+cW8GZuQaK/gEqQFk+1tLQGKtVBFvO+BmC9IEdaxyYstvPJUhiYZKubKZqO4DzszlDXKVOEslEFMf2j+D4rhj6/RtmyE15L9AqeZnW68UVP8q0NM0bMZQvr1qCtBZklCQkMtGAmqydF86t4v985jJ+8GYBL19v463ZBq6ukBAjGYwODyIZ0XBhg9LaIcRaK4i350v49gvX8bcvL5Fs6nh9to1z8w1anyHzLHUgE6GFo+n9TIdkosHTS4slWlm0GrT0pDtkqhm9Wvt5dGcGB0bDZrhYy1VEoNcW8yzzOlaqIkhNcOpBkEJXq4pu42E/7jowjuN7MxgMbhiLT3W4QrP4mdfm8TwV+VIlSNKNIVsNkeBAcqzTWivjwgJJfqWGZRKyJkPpuacmUx2YHqAFOUALssR2Zt2RzLQoRXvnPvfmEr71kxv4yfkSzq6EcTUbMdbTNVpmpXoQ6cwA+lIxM4HJTzKjeKzMoFnGopmipY4sV3Yg6nYm7ZkrK/jx6XmcnmniSi6KmWIcc4UgbpAcr8iKa4cwOT6CgVSE6dmlKVo7urROQrq+htUyqZgEOZwJ4wv37cFDB+MYDKyaTpE6W9lqAM++tcKOwgyeOVvGmeUIrqxHcWm5hctsn1wjbDpGC7k6Xj67iKdOzePli5rBHMTE2DAeuWcP7pzwo9+XNaMIDcqjEZO/ee4qfnKphiuFBBarSXawwpilxb6YLbKTFcfIcAapiJaZVCkv7+lmB5dms8xHa111P6jD5DVlt0EdPjLoNnVw+MAIaJgryNuIBCACMuhQcVKhNtodS3pS2VTq5ps/eo8Qtzvj14U2MG82W/y2T7MY2aRphvP83Sn8RIj5xsimIb9StoOVUipaWqAZmWYyhdI33l4s77wrLf1lTcyt0Ep54zpO3qhirjmA9cAIVnyDII/g5QvruEHLqk6y0PMyTVBSAjlaFqcuLOMnZ7O4Uk5jNTCKdf8gZisxvHBxA6/RKiu04lTU9nmjZkhq44M+Evvm4GpXDpW/UKyY2ZOdQITnqitbW9GQOg2yjbv1+wvQYaKtVgeVag01Eo6eN+oZm2pzgCT1wJ278UWSxj170jg8FsR0po3BWBNxdgCqrPvZbNlYhLJWRY6SxUjINpAzD9iYlp4N1thIUvA/Pj2D1+c6WGmPoOAfQzEwZGbdXt4I4gmSy0/OkuBrcVrNUdMUei64YzCG3aMJJEKaQarOQBBrsurOLeFV1vk6yTsQSrONY+ycaOlIBwlaxp1WEzdmF7G0lqcU3Wd8JGsNXybCGvbX4Krs2jbGB1PYORJHOkxCIqmj3UK9E8SVhSKeZUfhNXaEFhsjyPlH2JFLo8QO1QyJ+Kk3lvFnT17Gv3viOv7DM0v44dtVXM5rmU4M42OD2DEcQSqojoLWY3aQL9Tw9oV5zNDa9/mDrEvKG9Fm/bSWWa+lYgEXLl/H4koeTXb0VKd6jrlzrB9Tgwmz1lbPhm3nS7B3hcNHC0eQDr8U9MywWq9TuW37SfOuEmka4vR8+W9elExHvfBux1ByZi0cCS9MvSeK0L9UhpwhTipko58Vmv+yYgw5Gk+bSoMEWSNB2okdXsrel4nc/bTfLbKHJnfo+VKxlaISTBtLreGnBUVlupivYpkKkDaKHRJlGURC2XwNV+fzWCz6jWKtkQgbtFpqtApXii2zjq5Up+pnGmaCCeMGAwGE6FQzm5wtwShIpVI3w44Ka0lJaJtnfEE6S5Ce5O+GV49KWJ2EpZUNs11dnTaOdizStb6oD5+6bQz/5MtH8Idf3o8//MIU/ulnh/G79/fh1+/uw6cPJrF/KICBcIMWtnaX0bCyJWpZkfYdm90W8WkJAy28uTVcoUWcayeNxa5nhOqctEgUItkVWqeXaZmuFNh+tJ1kh6t0iUgIqViI1qQ6Cxq6JrExzUQ4gD3jg/jMXbvw9fun8Vv3jeB37u/H7z3Qh28+OIDffngMn70tg4mU1njaTRXUeRJJ6r4Js650T6gW+xIx9MVD0MrLkCGgDkkdZt3rZcq8wQ6MrGRNftIzcEmhTQ+XKOtL51bx0wslXFhPYLk9gFIgiUAshuHBJNP08W7QZgLaZIIVz7qZnhjE50/sw288NI1vPDhCefvxuw9amX/zgVHco5GOsI1ju2WaHBY1az61/67xN83Lltq8Nxw+Sni/QgeH9wn9gn0oVWrYyJfRJAnIurJ2EXvx0SAG+2LsPUtRaQhMk1VsrO3fnjPKnYpY4TQrUUojrOE4qixZUhpWLFWbyBc1q1FDjDam0SNaH2c0i0J2iZSWgtE1PxMmpiHbeqPOMhSRKzVZDpbBpC/oGaDPWKOVmn0eKPJSTKWdL1axplmNZsINzQRPHkLWb7XeMkStJRJS2aI4WZ+WGPXhhbZotVq2A2ADbMLv9xv3MwtEf1N/JoCsdhIkeyxX52nFXljCbI51p1nE/hgvt8yw9Z6+Bh7eH8NX70rjtx8YwB98bgR/+Og4/uXnp/AHn5nEIweimI7l7VaBhlhsZ0PO+9PWgCrnRqGOfEXEQiJm/WhdI7tOLKfddUhWXp51K9ei9dRtcZYpYDoM2jdX1lPMV8H+kQC+emIC//ixPfivv7gT/+KxMfyLRwbpBijfEP75oyP4J49O4JufmsCR0RZirXUSX4Up6s5j6zC9AOtK7ar7KREl+YRDTJ/3IcsuMtWazyzbLleTlaxOjzovElXEb+8htXOLtNpAnGG0NEnPB/1MK8j7M4xYSBYrydHEaaIvFcTDx3bgm48dxB88uhP/7JEJyjqKf0F5/1AyPzKOX7tvCPuHtUSoQtl0f6oO7GYZmphmiLYLe7R17vDRQHeqg8P7hFWUcuVKA8tZkkuZpNS1HLQ8OhnzY3o8jdG+IPvjJSoTb6uxrbhWEW2pAU3i0Nq9iaE4psdStCS95RakKpLTBq2y1Y0GScxaIeb2lWLbTMUSi/0kuglvz+NmmMgkJhFgwyzoNhKaBBiD8vo1S0PkT9Ls0MkK1jWVsdZgnIZIQP42X8niKWuzPIFkrbDW4lKgbUrYpG3Ts66L7qENY09Ub71g8/SgsDY/DTIurNfx9Mnr+NsXruOVGx3MN4ZR9A91J0ypbFW2TQXpUA1jiSb29Tdw704/vn7PAH7n0xN4YF8Ig8EcaU8EpJTVQaCJxrTtSABz1tCBGT4gETJ7Ky3LL3LktzljhTZZDlnq5s+UqXsX8Jrk156lByZS+PUHd+MbJL/HjoZw12gR+9Ib2JkuYTxZx3CyjcGkH0PJEAYSQcS0uL9dYQY1Jsf8mKxPHQmmqTyUi5mdLMdMTH70V35tyiJn65/XJJM5ViglpU/bbvJRmwbppcUw3gu/vS6D2jQYYKcwHkCasmWSJNFkwLz7dDBBeekkdzoWRDCkebVmW35UfWnWbNKQsFm3qftBUJLK3uEjR7dFHBzeO/Tb9Vy9RcW7WsTsanlz0onUjGZR6o0ch6b7kAlREWudIFWDILUi1bO1lbWg4bI6xgZCOLpnABMDAVoGZbNJgCyVBi2PpY06FumkYLZbWZ4sgtStlG6AcbYF6WK75FsxdCRdKcfTrnaiYjRBrHqUswlahS6n3XIMpTKgXaTSZByWhorWqk45JeI5lXarxDYV/QRtOD3PlTOpGhJRLKZMwVo67+a/HSYUvbwrdqjZSA/R34WlKr79/HX8++9fxn98Zgnff6uOU0txXCwkMVOOYbURQ9FMkLHrBrVh20C4hLt2xfC5O0axb8TXnTBUZ4o2bbWeccxLZJGI+BDVrjyyGs0wLAOxDmxnQuFp6UVpfcVo3Zm6Uvm7FMQPdST6UxE8fNcePHJsitZt3ayDDLdzaDRrWNio4eTVIp58PYsnTq3iB6dX8fTra7iaZRkD2tlGdGWyNGlaKfXtYwemiQbvUVmJ9jmwj/eUng+GECfjGSuQ5CpJvTaTxDoySzJ4T5qhVPOMXTsDtVCpa1KOSsEOQ7fjlC838OalOTx18gq+f3IW3zm5iL89tUy3gv9C952TK/guv793cpXfa/jO6Sy+R/f0a6u4sNBEqWm33tP9YO5h8+3U80cN1wIOHwBUQVR0VtUFMJ8tmaUOxZaGouK8HqJiaWPnUASfuWMCJ3anMByqINrWptV26NMQHJ21IPScq07LAHjg9kk8dHQEw+Eyw2urOU3eCGAl38DZa+u0iuwmBIZmqKBbVFQt9rxFYFa1UWkHqei1s7Y0teQ0GpswXyZ3E3aLcKws+rYhLQEIOjeGhvmpvPPnYhWqbAmj2IwFYGXxwhtF52UjGAKzubwT4UgYUTqP5Ly0peBlqNrhXaXrJdY92kxO8njXRUsBVNoRLOZ9eP7sOv78yWv4t9+dwb9+YhX/9uki/vj5Cv73F4v4u9creH0phGwrbd4a4mcNJwJl3Ll3wCyG1zsq/dp7lSlaWrNQbppANDmcwGhGr+qqsGU0LE7rnla31kjoTSV6ebb2gB1K+UlOms2rNiG50WLX/q8aVp4YzuDorgGMJZtIIG+GTUVoZ2cK+E8/vob/z/fn8T9/fxX/C92//t4i/uSpBZyaC9MiHjFrN2XFe7D3lOrOh3xF2wTqeXSETuthWc/+DqaGUxjLhOxyFd57KpdkklO5kpEg9k0MYN9wnFZ0HTF2HDQEqy0Hl3IV5Gi01pmm9qlVPWttpLYh/Oun38YfffcC5Z3Dv/7+Mv7XJ5YpM7+/v4T/7Xtz+Dffu45/812W53s38G95/Ec/uIoXrtSRbWZsB5Np2ftHUjh81NCvycHhfcMbqpLSzhaahrzmsmBfO8MfecT8xPtDLZzY24/ffGgfPnWwD1PxCtJUfvF2EZF2mRYC7RYqp1SgQUUUwRfvnsZXT0zi8FALfdgwEyvEbZU6lc+VVbx6fsmsBayZoVwfSaONKpVfs92dBCO5eBQOBhCh4tbSCkkoRbNd2UgFGk1pnAd7bhUTQ8sS1JGUuTl6Zxz7bUjMDJUqf6vc7M+KuVBGsaP94yETslxtU9wOXU8nY3SaTOPJLVn8ZvNsOVNGk5eJYqE0Nw91pOs2P63ZzCSCGO6LIcwOQ77ewdvzFTzxWhb/6aer+PNnV/GnTy3i//fEdXz7pRVcXAuitLnXaBMD6QiJL4qwSI2tamFlMmsxmXck0MHh3SO4+8AIJhM1JDt5S5Ts2ITaDST9Ddyxe8isRdQepVqKozqQ9aUJRNoAvkZyGexLYzgVIhHpvaFl5tBEje168sI6/u6FOTxzsYFXlxJ4bTWBM6thWr8JFDoZhopTFhGfrQV9miOey1rU8P9itopKyz4nluzaAGDv1ADuOTSGHRmSIS3kCDtvet2V3riR8NdwdCqJf/Cpffj9R/fhy3cO4EBfAyl2FJqNKmaWNzC3QeKV5e3ThgR+JOIx7JyaRDyewUqujeurflxajeDCWhznsjGcXQvj8kYAxcAA6pFBLBR5faWFC8sdLFSiKJvlNHYS2M13hsNHCf2SHRzeFzaVEH/KUsqVWgfnrqzhlXNrWKwkUPKnTM+auhPDsQ7uP5DBNz67C9/89DgevyOOh6ZbuGOgjDuGa3h4bxhfv2cYv//IbnzzoUkcH2th0JeF3bqN5EdL5MZyFS+eWcTF5SbT1gxTWQM+s4ShWGmg3pJSEUlKKlo14QD0EmIN6XqW4DthwwpeaSw5vgssg1FYPbXWVnhd3h5ke0rW38vHQlbU9hh6xtWXiJgJSlrXZ4ZrGUYWpMiRhhaPRcDvAJN8lx+hGZLpcBP3HhjEP/jMfnztXs2i9GM6U8ZgtEQiKqBdLaBULCNLolrP18yWZ9rRxihpTUiiwtbQdsuQv14vZsugejKdAuaiSSrjgxF8/sQ0vnbfOE5MtbA/tYHdqQKOjLTw2O0D+Ief2o37difQ52fHiASkeJVmCBdmN3BpsYBqh1ZrKIoAOzZevcha07IYDb/qGZ9ITUPwEV8VfdEGjuzKYNewZqdqswelqTtiq4aVjMhQb9B4Q8sv1pskoaR5Tq7S6C0ejxzfiV+7fyfu2+HHgVQRu5MlHByo45EjKfzWAyP46u1h/NrdcfzjRybwO5+dwr17YsiE61hYXsPFuTzWalHzGjKNcESCLbML0tcePIjP3TbCTl4T04mS6RTuiFeZbhOfPdKP33lkP/7RYwfw0MEERmIV0wnUMhGHjyfcRgEOHwBbVpEg1VSt1s26u3QmicGBJMJkRzulw+7BqddH7ZvM4NBUCoen4rhtOoET+/vx8NFhfPooe/O7I5hOVdhL15ZxIseO2fNylortqdfm8fRbWcxXU2YZgdmPlHmKBHaOpHDXngEMhkvmOacmApUbMG9NODtX7VpEYYqs8G2jGO/ZP4w9Q77uRgEtElCL4dfx2rUSNlpJ+7YRUzo5ElcsiGP7hmlVRMxeplrkLeK6sVLByUvrmMmHUPUnjZ/kkuUYpYY+OJHE8X19GI7ayTCCNip//WoWb1wv01bS2yys9WMnqWTwwKF+7EiWTT5KrVj34bXLazh1tYT1Bjse6hzIWvIqX/BENbAto1dD7RmN4vH7tf/oKO7aEcTBsRD2jkawfzSG3UMBOvpNJnD8wDAevG0chyZI0EHWI5W2nqvNbbTxzOsLODNXp6WUxN4dY7i7u1FAtC1iolXJcorUtH3cjtE+7BpLYP9kCrezTR44PIxH7hjB8R0hszF8oqM4TWMpzay38IOTs3j5iuo8hUz/II7QEp3I+Eii2qWnYda8tsgd9UYTYT8t4USY7RbEfbxvvnB8HLdPBpAJ5Egy3VejMdZstmZ2Abq+HmCbpNh5AiqlAgYzMezgvZLQWzYog4Z6+5NhI/PO0QT2TaRwx55+3HdoCI/cOYr79kQxHs3RAt5gOFq4g/1YK1RxdSGH9WITfn8YEyOsC1rZMZ+WkNRoTZN4B9PYMZbB9FCU93kSx3ancc+eJB4+OIDH7hrDffuSODQWNNZ0qVBANldhZ0F3Yag7wc3+rrY3r8NHB0eQDh8A9kesb/V9ZaNplqKWPRTLdcRicWTSSYRCPqos7XXaMDuoaAH3YArYMRTGfiqkg+Nx7Or3mZ603n4QNcNrWjDdRoMKWkr06dML+P7pFVxYl62QYWpSJMydVo6myo8NJNhz78dYgtaFhuZoadRbAZyfyePN6wXzailLkH6Trt4xeMJsNeenYrUEqaUYP4sgVcJ3EqQmssg62STIQpcgmYch4g6VvL9Fgkzh2F4SZExv59AWfNqv1I/XrngEmbITMxhHhHZkZz/uP9iH8ViB5F00ua8WW3j1/AremKkh304bcpES1f+7YLw1QcmHRMSPew5NGGW/R7NAo7Tqhvw4NJnE0R1J3LkzwY5F0mw+fmJ/BgdHSQJBu+m6IeaaH8+/NW86J/NlvUIqif3TtEJJkCPsjEQ7ei6plpclyTLzKxn3Y2okjgM7MjiyI43Dk1FMpevoC+RpsWrrvIYhsZWyH8++uWi2kbuWj5s1pD5/CNOjGewcipmXDus+0HPsgSSJdyjN+yWNO3elcf+hPjx8mGQ6Hma6GqYvGcITtdxMkLS8A6xfpluusr1a6qSlMJiOmTd/mD2NtCdq1Icdw3Hsn6K8O+nYedOwa7/ux+5Qb5PteWO5gBffmsXFhRoKjTjyZZa93cFIn9ZEBiiD1jcyTaY9mAxh93gCR6dJuuwI3rGTHcIpEnS6ZepCbznRhg3mHl8pYq3UZGztxWpHQeyd5/BxgBtidfgA8J7LdcFfs7bIylH5n7ycxV89cwXffy2H8+sJrGHQWHF6TmMmuHeqhggTKNDlqJBzhgz0rsYOCY92A9bqQZy6UcJfPT+Dv3l5FW+uRLDRyRglIivNKBASsibpLK/nzXsatUOLeuASJhr2U7EGkQprar4mjYi0tp4QessMvD/B+zTcy+uyN6WqurlBkzfMcgWemp1VqcyazE9+Jo5Jgc4kpMksciIQs6DCyG2/rRQKb33pGCcSJEGlqfTjmuKkWlBsn3mXorZeqza1znQr7lZeHrp+xr+NWCSMoYE+JGP2maaGJ0VSUtCTJOAD/TUcHWnhyFADOxN5DPjXaAmJlNvIV4M4fTmHZ95YwlVaYhVaYtoAwXYaKAHJ3MhAVqy3/ciW2DmqibijJLYWkmzPjC+LVGeF7at9SvVmEnZE2iSwjRaePDWP77y8gItremdJhqWNYjFbwktvXMOZmRI7AraTonZKhpokrQg+ezSFx26L4dP7gjg82ECwuoqNtVVUterfjFVQom7xzeYRkpFtL796O4w3r+Xwreeu4ZlzVVyv9iHv0/7AEV7X9g9FktYGJVlDur1mNnXXK7nUOqVmBJcW6/jRyRt444r2eNUz8DhWin5a1/P49ovXcXKO92FLr3JL8j7RzN4KUv4S65T1GthAn3+d9/oaS7lBSZluu4FipY58qWZGL5ode28wsgxyW7fGOXzUcBakwy8N0+flv2Yd6mWz2VzVLP1Yy9dRIWkiGIc/HGUYPdeikjffcrLf9Goiqo1OGGtVWn6LVTz79jr+7pUVPHWmgEu0MIqQ5dR9i4UIScrEgCTSrGJqOG1mQNIWMZaHFGSu3MClBb2gmP16X8IoIA3DjfZFcce+IUwNhkhM2rvVhyJlfPsGLU6Scq6ZMM84LRGpWG2SVgi37RvF3skE48h61Bs7Yriy2sCpy+uYL2jHGK1lU3hdbRmLeS8tyNv3DiITo7Ijael5aq4RwmuM8+aNAm3K7tZ1/BtJh/DwbcM4vitMRa19ZRuG1i7Ml/DcmTVcztJKZUdjc1G7IXEd8o/ltflaJ1bQG0r0pvt2o8JTqvqgNpJluWSxGqK1zxFVTjMLsxOi8g/h8nKT+WXxvVeW8Mr1BpaaGVRo4akjcXA6gxP7MhiJFKnsS6ZjUKBh/NqFZbw9W0UzPIRgOElrUDLadDV0WG1rI/ggzs6W8INTS/jOq7SIF9ihYqdHO+2YcC22WS6PcrmKSCSCSCzK24WkzLTaMk8DbA86vd1kJVfHS2duYHa9hcTgBEIx+7aRGu+hG9km22QNNzY6JLLui7l1XzZIYtkKFter5m0t2iXJH07w3rTb6dkXeKtetLgjiHIriNlcBy9d3GBdzOOZt/O4VlCp9QxcS2J4z9ZbWN4o0lXMULjSCoRjlJV17LdpqtPWZBn0uEBprpT8eONGGU+enseP3ljGpTUf07RD56Zhzacjx48LHEE6fEjgz5oaU067uKyzd3x9ccNsxTa7WsNyoYP1qqwNmI2x5RbpN5fv4Fq2bd788NyZVaNAn3wzh9fnO1hppKic7RvXNdhh+9WWFjw10mw2zPv6ju4aQn+ENiZJT2pZG4BdX9Wrl/TmD6soRava4ac/FTdDbkvrZbOR9JWVphnyvLDcQr6ldy5KuTGwya2NiF5v1Zfgj6WNlWwO89kabqy1SQplvDVTxkpFq+W008qWZIFAx7wDMpkIo1CSYq6ZIePLKyTVqyT+5QYJUqRq1wbun+zDZ+8cx77BJhLm+WOL1ksQL55dxjNvrmGlrq3sVA7l4NWC/RP0qRoy/iQEbQG4mt3AtblVXGNH4fpyFXO5NpZLQXYafJjnsep+lkQys+7DGRLcs2+vsf6X8dQb6ySwDlYbSWMtqe5k/R+cyuCeff0kyHJ3CLhtiOGnb87i+6/O48Kqn52cENZrQdPeSv9GFjg738BPmPYTJxfx7NkiLm9EkScpmC3pREoqE/PQRCTNOp1dyZME7euyVip+yksZaXleW++wnUp4+rUFPPnaIhZrJJb4CJaKvJ6t4/oG76O5Kl67XsBiSR0jbYigVlf61tpd3qjiysIGri+VsbDBOir76PxYpKzzJESR4pW1Fk5eyePJ15fwfd6PL19h3VW0/5CV2Vp7pqINSc6tFJlmHleXK5innNoofZX5z6t+Wc8zTPNqtoPXr5Xw4zdWTZo/OVfEtY2w6fw1DJHbTp8jx48XfIH9D7gWcfhQ0KEesjcTP2nFiKi0dVyMxKK3so8NRJGiIanJDDQGqAxaaHX3TV2nKbJA5bhRk3WmTa29XXm6NKDhJ6o7De6JBBRbA5jaxu7E/kH84VcO4zO7muhrLdL6KmOt4sPfvLCAP3tmHpfKgyTajBEwwcwnByIYiWv4tcpU9MyyjdV8Aws5oNjRdmmiGqXOXBgnRoKcoOxjqQ5CbRIDrTvR0UaJJEPSy9WilFdDkHYQUrLJitWQ6WR/AMmgnqlpu7YOqiSBuQ2bl4YWFT4ZauHL9+7CP/78NA5nVpHuLDOPNm6st/FnT1zE37ycw7Jv0nQWjBWtWjHjiYotp2PVlP02VMnr3oCuLGct5B9Ihc1klVhY6xFZfp9dIK91nvkiSTybp3UFWmLqJGjTB1v/xvruVPC1B/bin39pH46kV9DXXuSVJgksiP/81AX8xfMrWGkPoa+vj52JKOJBSaYN50mi2m2JnZH1Mq061q9dPyhJJasIUsd2Cz8tTdHzPO0ZOzEYRyYRojWuemVaLZJmocJOShmFWgfJTB+GB9KIBRnbtEnbLNifk5VYDbIMGpLffv8oI5WGedC6zkT1Uukw+hKahcq8Nb7JcLUmOwe5Ekm6ilLDEq32ZzX1wSAmLToTnjlIenVo9Fq2/rgPY/0xZFgB2kRfZVINan/g9UKZHQDK3tCoScyMinjrHpWGSdzEcPi4wBGkw4cK3UzeDWUVtgZEpSjs8zg9JQxQB/jp5NfRVmwM1qLC0XNMWVQezVhYFaO0bBpC94w9eG08MD0Yxu9//iC+cV8/hjtzZiKN3tjw4zM5/LvvX8Yr82HkfYNMP8y8NHFIxK1cmDeVnF3rKBUnJWgtVaVrnx/a/CWVeS8llau3y42IqCllbyxcQQPGllCs5aIjb6cWHdt4enYpdaqa0QST6cEIvvHoAfz6PSlMBeYQ62yYpRU/fXsVf0yCfGEmgg3/OOp+DcPZ0tukrGwW8vCcJUiVS7sQKR+7rlNlUolsm9hjwYbXHqqWUkVaqlsrs0L521V87aG9+GeGIJfRT4LU7jIrlQD+8qmL+D+ez+FGY9w81xPMjjpMTXmI1LXucZMMmK4IT9dsabp1tmkd88zkzTTMs0RJqGtMj+1n7xFLTTa2oLTUXgqi56G801QHSqP7t72+JNvm+z0lqzLhJbWbldHKY1OVszLa/CSTTdFcZzjzx3R0F3ntLatVkutTsmhUwqane31Lcn3anAima30cPg4wbefg8GHB+3nrxrJqQwpEqlkTXPSsLoRqJ4xKO2zeql+hFVWlUq377QtuNdTUVTfmz0vRG761sMrfKhs/ssWmeUfgcjnAtGT9aMu2DsYH4piitajlHN7sWCUhhd2kk9UnK0NOJGdUtsJ0FVw3Z5Of8pEVoakudb8sXOWztfesLeGm+qOTn84CTFvvmo8wvH2rhnnexcSVj/aenR5OYu94AqmgFqtrSze/eQvI5fkibqzaoVjVnakLRdxUonIerMTWwqS/qSs6K745VhkMudApPb0QSnNFVS5TFspoZfPStQRjPpmuCM6m0U1S6RsohP4M7Zh09UYTvQNU6WrDNhOXctvOhVyXuLuQ9GavXl6SExmpu6EJLHom2GCHp9FRd4LtpGenTEt/m+FUz3RaLWmerSotc9XeRVuw/vKT5azw2ohcbSPLVnVh8qC/3UZOoS0Ux5PPK7NJz3zZUMpRdag21/QfOc281n3v1Z9yN+kwvHU2rvfl8PGBI0iHDx03KyQpFKvM9G2VgKdQdWTVmImlcAqzmYJi6dNTQjasVW+CPPW2DR8uzm7g3EwORZJJjcpJw51D/WHsm4jZZ5Nmw22RT4vJ8CoTbPPbkBuTsQrVqH+TnwdPGvnZEDyiHDak/fl4YWwo62xIm5YcPwxEm1Zq/fi0pZkfeybS2DEYYFfBrhOUdamXCJ+dK5jF6HW/FqNLYXcTMdh+bLFZx93jra6GLY+hJF33XFd+SWTD8NuQlHXykXXUUnATTva/Xp5st7yzbWEnt9gA3frUlW4axt/kJ5m8fKy3VzsevBTlY69slUL/Iv1u8Qh7YMPakshWs3/b0/Gczm2bWDm32tNILVG7corsVA7rGJf+htBUHutzk7Npy19Xt1rdnnvp6HP7NaXJ7+2uG8fh4wNHkA6/Ihg193NUgL2+hV4hvRTsNe9Ilsn1hQ2cOr+IxWIANRKKhkqTcR9u2z+MIzsTiPlyVONai2j3gn0ntqcsZ2HPts6F7aHsla3PLT9hSxXaY6lLA8orhav5kuODcRzc2Y/BhJ6J1qhA/cjVfHjj6irOzRZR6mgLMu0cxJ/qZtJbefx8bJdFzn562DqzsnnnW/5S6FIR1tbzSECk2WQBtORFQ4XesLSIxR7cnMrPx1Y4m/o7sVVzm47BjTPXvPie28K74v0c1wvb/W3qNrdfjK1Q7w5vU/KubH3e7O/w8YAjSIdbEiIYrR+UGpNNkKs08da1LN6aqWC1kUGumUStHcbkxCjuOjSNkaRecKvN0vXGCUXUrW/V/q8aylEDg3rT/P5dI9g1laFPDRWaauvNMM4slPHShTXM5vxmwpKGLTeV869YXG3AHpBj/s1WE+VGC6VWAIVWhC6MQiNo9kzdGmpm3Zr/LfIyzfQLoDDWtvvVO+Xdyzk4uGUeDrcgrOK1qpdqmaeydKr1JkrVBjYKDVyeW8eFmTyuLlZxfbVF10C2IlrSJBJNsfzoyNF+dhCLBDDUH0OzUcaNmTlcmlk3BP+Ts1m8fLmM5aqWWSRJPkHzSFEltlbge4dCv78YN0NxVVMiv0jYj3arjvmFFVy6sYazM2W8NVvF6Wsl8+qpUkdvo9CQq811K993k+RN556QH5Gzdevg8G64WawOtyik0qwNYGcbysppm702M9EOor56d8KLD7VW0KzBLDRp5fjtm+F/to3wq/g5WHIOB9tIUdZEoIZQu0LrVs+qKGfdh3xdi8vtgvRNibyD96HNewV9ryU04ZRAh/XbaSEZ9WMg2jKbBATbdtNxrRnNV31mzaImuqgtFFHRtmhxSwoNjf5MvFfB/h7w88Ry+P9fOIJ0uMVhJ5No5qVRcm3ZknQ+Uo0hHF3VzELRZ4B3PEOZO/6jvO0lKeXVODGJR3atlggYkbpkL1/NSLWl6srqifwr1Obba8lOfunKKw9e1OzWbo2bqxY2lhVTx1sCb09vO36FRXJweM9wBOng4ODg4NADXpfPwcHBwcHBYRscQTo4ODg4OPSAI0gHBwcHB4cecATp4ODg4ODQA44gHRwcHBwcesARpIODg4ODQw84gnRwcHBwcOgBR5AODg4ODg494AjSwcHBwcGhBxxBOjg4ODg49IAjSAcHBwcHhx5wBOng4ODg4NADjiAdHBwcHBx6wBGkg4ODg4NDDziCdHBwcHBw6AFHkA4ODg4ODj3gCNLBwcHBwaEHHEE6ODg4ODj0gCNIBwcHBweHHnAE6eDg4ODg0AOOIB0cHBwcHHrAEaSDg4ODg0MPOIJ0cHBwcHDoAUeQDg4ODg4OPeAI0sHBwcHBoQccQTo4ODg4OPSAI0gHBwcHB4cecATp4ODg4ODQA44gHRwcHBwcesARpIODg4ODQw84gnRwcHBwcOgBR5AODg4ODg494AjSwcHBwcGhBxxBOjg4ODg49IAjSAcHBwcHhx5wBOng4ODg4NADjiAdHBwcHBx6wBGkg4ODg4NDDziCdHBwcHBw6AFHkA4ODg4ODj3gCNLBwcHBwaEHHEE6ODg4ODj0gCNIBwcHBweHHnAE6eDg4ODg0AOOIB0cHBwcHHrAEaSDg4ODg0MPOIJ0cHBwcHDoAUeQDg4ODg4OPeAI0sHBwcHBoQccQTo4ODg4OPSAI0gHBwcHB4d3Afi/AcsYzrLPFJ0CAAAAAElFTkSuQmCC;" vertex="1" parent="1">
                    <mxGeometry x="197" y="100" width="456" height="408" as="geometry"/>
                </mxCell>
            </root>
        </mxGraphModel>
    </diagram>
</mxfile>